<mxfile host="app.diagrams.net" agent="Mozilla/5.0 (Windows NT 10.0; Win64; x64) AppleWebKit/537.36 (KHTML, like Gecko) Chrome/137.0.0.0 Safari/537.36" version="26.0.6">
  <diagram name="Strona-1" id="Y6jKSsADV0F2im5d588g">
    <mxGraphModel dx="2750" dy="1610" grid="1" gridSize="10" guides="1" tooltips="1" connect="1" arrows="1" fold="1" page="1" pageScale="1" pageWidth="827" pageHeight="1169" math="0" shadow="0">
      <root>
        <mxCell id="0" />
        <mxCell id="1" parent="0" />
        <mxCell id="J6oPv5elQKLaFBjouUGu-20" value="" style="group" parent="1" vertex="1" connectable="0">
          <mxGeometry x="120" y="510" width="200" height="227" as="geometry" />
        </mxCell>
        <mxCell id="B96o6gm8LpOH2C7WPo1T-21" value="" style="rounded=1;whiteSpace=wrap;html=1;fillColor=#ffe6cc;strokeColor=#d79b00;container=0;" parent="J6oPv5elQKLaFBjouUGu-20" vertex="1">
          <mxGeometry y="37" width="200" height="190" as="geometry" />
        </mxCell>
        <mxCell id="B96o6gm8LpOH2C7WPo1T-22" value="&lt;p style=&quot;line-height: 100%;&quot;&gt;&lt;font face=&quot;Helvetica&quot; style=&quot;font-size: 18px;&quot;&gt;Spring Boot App&lt;/font&gt;&lt;/p&gt;" style="rounded=1;whiteSpace=wrap;html=1;fillColor=#dae8fc;strokeColor=#6c8ebf;movable=1;resizable=1;rotatable=1;deletable=1;editable=1;locked=0;connectable=1;container=0;" parent="J6oPv5elQKLaFBjouUGu-20" vertex="1">
          <mxGeometry x="22" y="57" width="156" height="60" as="geometry" />
        </mxCell>
        <mxCell id="B96o6gm8LpOH2C7WPo1T-23" value="" style="shape=image;verticalLabelPosition=bottom;labelBackgroundColor=default;verticalAlign=top;aspect=fixed;imageAspect=0;image=data:image/png,UklGRpYVAABXRUJQVlA4WAoAAAAYAAAA/wAA/wAAQUxQSGkJAAABwIZtm2lLkt6IWOls27Zt27Zt27ZtlW3bysyasu1qd2cWzoqI9/mRp87ZWHutcUbEBGiT/zf5f5MZ45jD0El61RnHrBnjcf+x7/KB0+ijjPmfqwbP+5krY8xctnLwfIBsRl+5YpP//gfcBwdauM6lg22h754JQXFGfHG/XXabzF13336LLefd6vdrqd0XJMXZcBhTacbZEY0edtLjFMMs2Iu5PPkVu+OSbnUB7VukOAP2odCxnRC0bA3XwvelNMyk7WmphT1XKQ2xpI/T2rjlhFurGV5R989UbGi54G5qBlfQPmQMNi2X30vNwEp6DsU2YNNy2V2VhlXQQRTMxjYt591CaUhFPRrbzG/TsmaZwoBK+jl5Adi0bKcu7x9afRHVLNB25jNKgynpmVQvCGPzZKXh9B1as3BTOO/6CgNJOpLCYk3LLxWHUdDN/429KLvyRKVBFPVkbBZtCseqq/tGo3eRR4CdeaPSEEr6Di2joHDqEg2hoK3JHgF25rVKA0g6mDIaCoerm3tHOoHCSG3zSMUBtOwc6qgy31WantSMXPt20g3CkmbUE7DiklFB5YxGXbw7uXsu0zSvvGxkNn6o4rQs+fS3vj7ab3zja+dSu8as/+aXvjLaL3/1izcd34qLR4YzH1IjhZiaFEMIIaYmxTAZq+YYo+lcM857K4xr2dmjI7OZliaNMDZhfCsvZq4ddcVdY9yOeq5suMf44jrKqFw4XlK8+WNf+4nv/X7bnXfZ4U8/+dxbnnzbRpJSGNflVHqgmZsA7UvxqMxfH/rG3x3/bxZ59Sl/euc9JMU4DKJ+T2bUxi0bl7bN87ZtMcDckR+9gxTjEGj0JVqPCkNpi21jA8a2a87A+s0eJqXQ/5JeQxmZsY3NIm3skoGt7y2l3hf1wIo9ojHa2Nm0372Rep+08kLqxAE2znDJu/pf0PZkptLG13Jw/2v0frI9DWDbD+5/QfeYY0pMZhv1P0kHU5hG29QHDoGkt5HtaaDlt0oDIOiGl1LtiTOVf9xOYQAo6Uu0TJxN5j1KGgJBN7uSiifLpmUvjbFfKemD5AmzyVx2S8WBIGktmUm2KfixShoKS3Xnf1InyKbAK9RoICRJL7tikmwyvFFJgyAmSc87DCqTakMLr1TSAIhJ0vXecAyUiifEpmaufLyS+l5ooiQ97DsXQSnGk2HjFva/jRqNNWhVf7in4qJCjE3Sxksf8fnjgFKMzSTadjYbPiwljXtlf7iHwqLmX3H/t/3ubIBcjc0E2nbNwJZ3lqLGHLSqP9xdiwxLVtzs/s985/f2vrgA5GJjxm9j11yg7vRIKWnBT193xFEjPPKYOdwP6rEHHbLAgw854tjTLl2fmbfkamPGbGPbNWcDl/74AVKMWvjHGLXphWa0zm2pNjYjNy7z5ty2xWx88WYvu4EUoxb7ea4pIzXuA8Zl0bXaNjZjNWbhV5+546eesFpSilr8b8gMT5t6wL6HHX7w/rv86UefftNTbrdEkmLSSPekeHhQOESLDE3UqA+mMDjtwuuUNgoxNSkGjfMM6vCgcsFqhY0m8a94cNiZLytpUq8ZJGy4k8LElOFhZ36vqIn1EIGHDDmT2U1RA86VJw05k9lfQRNcBocrz1CapGsGhskcoKBJ/tvQcOWpShN1KnVImMweCprogykeEjaPVJys3QeFyWyuqMn+ES2D0TZX323iPkXr4UDLN5Q04a+mDgZTuegGCpP2WBgOzrxRSZN+iw2DwWQO0hQ2p1M9CGxTH6w4edqBzDCg5RtKmsIv0HoImMIZyxWm4YXUIWC78jQlTeNtr8IeALT8VEnTuYbS/0zhrFUKU5H0Q9reZ2yeqKQpeRHV7nc2LV9X0nQG3fzv9D4yR2p6g3Yh0+tN5d93U5yaRu8g2z3OuPJKNZraoNuvp8/ZtPxQSVMctCuZ3m7TcqgUpinp1RS7t1G47FaKmu7rXUzta6ZSH62k6U76PtnuZcaVN6rRlEfdO9PPjDNfVtLUR+1Ixv3LpuVP6sKox2H3L5uWfaTQAQrak4x7lk3LmhWK6sKoJ1Hds2xaTr+JkroxaD8y7lM2LeffVkkdmfRkqu3+ZNNyyZ3UqDOj/kRLf7JpueSuatSdQbf6GxX3JJuWC++iRl3a6F1k7F5kaDnr9mrUrUH7kulFxi0n3EKNOjbqzuupuPfYOHPwaiV1btKbybZ7jk0tbBeV1MFRW9Bi9xqbAt+Toro4aPUZZHqNTYb3SFHdnPSAOSruLTZu+fszFIO6utFrqcY9xaZmjr+zGnV40pfJxr3EJsMfl6pRx29Bi90/bNyS3yUldXuQ9qPF7hs2pXLqgxSDuj5qxXG02L3Cxi38YrkazcCkGxxPi90jbErhshdJSTMx6UYn0IL7go1b2OpmSkEzMukGx9Ia9wIbirn4ZVLS7ExacSDZ2LPPpmb4+Y0Ug2ZpkragVuwZZ+MWjn2clDRjo/Q1yNizzMYZrniXlIJmbpBe09Iae1bZOJtrv3dTKWkmJz3oDHLFnkk2zoYt7yklzepGq7aE1tgzx7azYZdHSClodifpTf8mV+zZYuwM7PF4KUbN9BB1572gNfbMsHHNULd/tBSjZn4jveUvOBt7Jhg7F/j3rx4ghag+GINu/isoxdhdZ9s1A+d87vZSjOqLSXrUflCKsTvMxjVXKPu9coWUonpkSNIL10Aptt1NNnYuwDnfvL+kFNQzY5BesQacbeyuMXbNBfjr5s9fIYWkPpokPf8AIBcbd4eNXdoK/H3H199MUorqq0nSw3/7TyAXG3eAjV1zAbh0i9feUlJM6rUpSLd69zEAudjY02Nju7QFYG7td595fUkhBfXeGCU96KsnA5S22tgTZ2O75myAfOYf3np3SYopqB+HJCk+7ItHXA1Q2lJtY0+CjW3X3Bbm3bDmF2+57xJJSkm9OiZJusMbf3XqHBvXNpfq61yU8fy1ltzmyvzrT9jiE8+6TZCk2AT18JgkKd3t1d/f//LC/C5tm3PZuNZaSykl59y2uVRz3fmfJ+/0nbc94ZZRG6cU1N9Ditp45QNf/pnNDrpoQ2Ws+eorT95/s2++94UPuFHSvLGJQf0/pKT5l9/0Yc986ye/8qvt9tj7wDUnnHLaKScdf9QB++yy2S+/96UPv/WlT3rgbVY1us6Qmhg0JGNqohYeU7OkaZIWH5smxaChGmJMTRODFh5iTE2TUoxBm/y/yf//r3kAVlA4IEQLAABQQwCdASoAAQABPm0wlUikP6ShJ3BKw/ANiWNu8p8dlOAP5AsgD8AP0ATmFAP73tFQQ+g5snkbwvzV55u0DN9/qv+N7VfzJ7AH6j9N/zB/sP+4XvPf739mfcn/kPUA/tH9560b9t/YT8t/2a/8Z/2PTOzX7/AdxfJgzP29/ZfLeiFclb8zZezyfftbwcuDbZL26ZMd42yXt0yY7xtkvbpSo8pOrXumTHeNslyj9pbCYnQeAdOp4C7kBi4SWt8AWur8DTGpowFZhjZq8f2Mt2eUU6AJjXg3WKLWC/nrVqLOKH7LubzSLGnwIUWLO/QxoH6d77Yr9SYUv2hyVVU5JqCTR5jhsZqxzn2w6zxowwUB6XoinFm30MVd7E2BpcuPJIZOrBFTtBlfpl+cI+0to1ftmye5EYDVQ+OEkNJJ4bW4jBjfGNnZfo1joaw4HTfwXCOfZAmrIt6DHWuSrRaF6Ky9Tou9pTKd7jbcTCZNMy4PsaWwbMuLh1G5ubm5tIsX2cP5TLYvHS5TyWYw6NXqf2TIsA7dIm6Ex/VeU2oBsaSkY6C39FDg0jk+kTGhPEXJ+umXCG6RhZwPqa0RnB2Jh6lVVyjK29i573xIMEDPqjvKcKxD/e2Lf+vRGqVxIXvME5KVrnDfS8JX1J8mjm33hbmsoL4Uq2gfr2B/Qthz3/RH9HUQTi0Lj4Zz7F2kRuiXdlAuIxumTakn+3xtkvbpkx3jbIoAAP6mqgAAAAE1ZzMMe/PPIyCnPQAi/Hpgk1fgyDGunI5z1TI71N/Q3Pq9ZagpyngKx6awMltCOC4owPa1yGYJjBoTCNnZAxBJdJFJM80or2WF9CRTJJnCWhU/GiYC54Sls2PXMfhfBvaeKCS9MJGKkC2LySaBN/gtRfoI0p183ffYW9swdtiy1/4X96oO62WebQj9Eyu5hFftzNQGoX5mXV50q1nRnfnVo8BPnxNjnf1tdpGsz7F2mS9RLOv4gOj1xWyAA9iyGhvC0Ugjkhzj+QvVN4Bp80kEqnvya3kcC5TqUPdB/vkm/SO8QUBJ7UOiVWIViCOpYDIHb8NE2sBH7BRcvFY6PlStp1JYoxM9YhM7TlWh4KpyPtOBevDG3xOXv4ov9+uJ80RikRTnsnKRQ/PpQDb1Qyeo6esZNjlEHIMfQyX585grPCnMIp54CgBgV7urynZaNDv7m8klCl4apDPv5bGfxh/Bt4bt/U6FfUrLNnSQnJwOjR0Kk6iKuSc+3xuBar7GZjx0tEuA2xoftIBxgxNhgcW1vVC2PcPFEhOxPohlRiwjpQF7pwIWVxACIotjXp3/3iTo/w0AO60U05/14ph2dGp5cUWERLkZHo8hNfMSAQenKqem+BsKXWvQtlqg1wz5YxFxzU1zLijqFQHC7V8awy5HWgaecGDh/dDT7xivnvcG8igBbJVRJjAp8eIxpJc8JVxGAjMu0RKWVGlTZix+T3XUfPxA+J0u1zDejha2EItUfGWp3/YQP/9FZDSh3/TY93/puk1i+RUR7gz2b6zd/ZmlKWfbHqC+wZVbJrJL04y/0TCgl6E51WwCAsNqg/CBD/HWbVre8c9dIc1z7fLjape2WUWYQfwWuK+wseF+GmTr3mT+mRmPa7aKZPCPB3ejiItnNkJSmbW4QVJwp3ykf0P+rhZAZRZSvb3E6gwpS050Fq14Kjqz54UlAvGyaCqKmjV66EbCZ//6Uh3O6PlxfyokduG4ycSgmrRgxWOJx6gu3XFVv8PBKxa/KDohFYOfuTRJ1M4J7doIXG0xNw/kfkRjO581eV4CFL+XWqcWO3vP1MCU4HUMDWbWVGsIzREJl4BEkbX+FQp9So9CHIROC8BlgZy8LtgJS8L34cx3ChVjANVWGx0x3zHt/Sg/CLuMltoRko2ykTEhomT9HReOrsdYYIKIHzceFqCrUeKCz/aYsptwlyCmyfl0DBtUweRLUidyJtbZ652vs3nDi8syJXZGFN7QVf0E4bSGpRzFvDbLgyJZZESvXaXP3t2gZ63CIEU9VYG/an5DItWEg4CN6KEgDxIyRiK03/TjyrSijjw3IQq41zlmoqWVkv8IdAsy3RCthO0LkwILTJMI2h6VJMo/ATrkqwEcpYXA0IE6U2LYCCEysZFmTqpi2JNRnLuO7qzJjxWNdxKtTFVxzTe2/tAtU8qaAVNYy4hCK+w2mDhgimX68Yrkeb/K+ikXJRhrRxWJ0211YjoUxiw4c4X1MF1aT0Y3Ux1vXWXbm7VuMYnkp1f4YGX96Uf3S5xzX0pAtVMXrft+quUHVqybxYMMIr+Zz0d/QBo3qse0s7BSeD5K3q2SeBFTEmu36cxUX5IrE6jDH8mwTkqs2dAwzpO1xkQvfm7C3crWgf1amGtHyBze601c272wnnhCFnzh/1QyyGJt6N5FdQU2F9M4f2OKRqBLQYgYtTpiFfgAAymM6lkwqSuSvt/Ya8NdY06SSkjZ0G/A4GRp0UQM0cTLIQjyVatKvQCDfTkO3bXDqbxCQyvETPPUUP3/eYTKm00gvTOe8ImHX9X3/ANcFRA+fwsW9qO1mwrfzIQlzpD1CqrMmCVkSMOrN0KKGNzA8wgfU9Mp0K5wIx9urdj3LZQoTmRuhPyQFkfvspyUh6oYCmjad3TupajRyFfDl4l0fkfzM9nFc///10H/zf//+tQvBmjv+jjWUdoxEovm+2LOWJE58y3opVtVKkh3+Nmdrnn//g3JD8M6zgcSeosp4jhXwI+/FuJ+YSqhBzSeBym9wL7Ru+xtuNuBtr/8T9ee60J1FSwdsUFxjAjGIZGSMjx+a4NGW6zwNsxN9Gr+oYG2qGsfptVMJkXq+jHRvD15szNsM5qrEn/jKiXj46yhR8epmtTbchWNQrw8FUJjmYCE9MJi+bIzByK7Yu47hp4oTjWS8p+AzPlbdwpwKBtcf5x2LBYLnb2nya4HKwE6TUH+HPGkMZXfG1mjDgmc7Yg51DdAf/Y1pZ3hz4Zybnmdu8YHjz3tJFd7ZucFvq6//5cjmQc4bMmyoj+pqib4nz2Xs90jpKQ94KfBU7NYJLUYNFoxz8XAnwIQ+edaBzE1EjiZQnR+bwVFV8KpJ0Mj9V9oNswhtfh9HNBeNJV3rp0DDXITNva9nxsudajumTL9NvUHOZ+6Or81l1h1dCKLTTBPHECyZ5T2IG9z5pt+yjhQEIhhhdIjxaFNmKEcBm+tPWlYBJVWpHzhXUG7aJT3WivpXTXmC/MwBi9lfoVPUAreFysekqa1vxZk8cp73Rg6Kxp5dGZdhjCDQEFoVYzmF8OEEDexHu+c6tCvea7qzZ+wCxxYZzQBxZj6T5fUuNFi+EwzyRv95oHf5m9eyVWtwj//H2YEJOB1CmGUaapz/sWpblWTX0JfnKLZTELsWFpDjR6ZIs6eF/NF1Nbbwrj7t2eK2gXQwxT4YSYakOVJ2M1w/oVOguCG/U3BirvWk4bcDsNK2HzuKuAiHe7iQ0ymwqh4V2MOz/uJtQwapN6cZR6niW9qoWni03psa2iVT7X7z1ZONM/qP2VlRA12oRyHyHZXqDqpEy9lOac8x5k6RdGsmOesQ/gyDe2uk/R5DXE4UyP8xychTfr+Jok9b2UEVF0eogAS8yuZVAr8W2H0zxy8mnep7VsBbs7XwtIlD0QadugruyBqnKPPDkUPywts5uxAND6i/Kbhv6gUAXKAxcwbPB9rFYCFqNWdlKBecjudKuJBq8Jj8tYMvEdf6cXMvf4SYU3VxDuajYr8pB165aGty1tQA5itg8hJHeaPtz0TYpt3H2OXPv3eYearI8vm54tBp6YjHLuj0Kil5jvNwO1JLyioeU+1VgJ3AAAAAAAAAAAARVhJRroAAABFeGlmAABJSSoACAAAAAYAEgEDAAEAAAABAAAAGgEFAAEAAABWAAAAGwEFAAEAAABeAAAAKAEDAAEAAAACAAAAEwIDAAEAAAABAAAAaYcEAAEAAABmAAAAAAAAAEgAAAABAAAASAAAAAEAAAAGAACQBwAEAAAAMDIxMAGRBwAEAAAAAQIDAACgBwAEAAAAMDEwMAGgAwABAAAA//8AAAKgBAABAAAAAAEAAAOgBAABAAAAAAEAAAAAAAA=;container=0;" parent="J6oPv5elQKLaFBjouUGu-20" vertex="1">
          <mxGeometry x="155.93" y="37" width="44.07" height="44.07" as="geometry" />
        </mxCell>
        <mxCell id="J6oPv5elQKLaFBjouUGu-6" value="&lt;p style=&quot;line-height: 100%;&quot;&gt;&lt;font face=&quot;Helvetica&quot; style=&quot;font-size: 18px;&quot;&gt;Postgres DB&lt;/font&gt;&lt;/p&gt;" style="rounded=1;whiteSpace=wrap;html=1;fillColor=#dae8fc;strokeColor=#6c8ebf;container=0;" parent="J6oPv5elQKLaFBjouUGu-20" vertex="1">
          <mxGeometry x="22" y="147" width="156" height="60" as="geometry" />
        </mxCell>
        <mxCell id="J6oPv5elQKLaFBjouUGu-12" value="" style="shape=image;verticalLabelPosition=bottom;labelBackgroundColor=default;verticalAlign=top;aspect=fixed;imageAspect=0;image=data:image/png,UklGRpYVAABXRUJQVlA4WAoAAAAYAAAA/wAA/wAAQUxQSGkJAAABwIZtm2lLkt6IWOls27Zt27Zt27ZtlW3bysyasu1qd2cWzoqI9/mRp87ZWHutcUbEBGiT/zf5f5MZ45jD0El61RnHrBnjcf+x7/KB0+ijjPmfqwbP+5krY8xctnLwfIBsRl+5YpP//gfcBwdauM6lg22h754JQXFGfHG/XXabzF13336LLefd6vdrqd0XJMXZcBhTacbZEY0edtLjFMMs2Iu5PPkVu+OSbnUB7VukOAP2odCxnRC0bA3XwvelNMyk7WmphT1XKQ2xpI/T2rjlhFurGV5R989UbGi54G5qBlfQPmQMNi2X30vNwEp6DsU2YNNy2V2VhlXQQRTMxjYt591CaUhFPRrbzG/TsmaZwoBK+jl5Adi0bKcu7x9afRHVLNB25jNKgynpmVQvCGPzZKXh9B1as3BTOO/6CgNJOpLCYk3LLxWHUdDN/429KLvyRKVBFPVkbBZtCseqq/tGo3eRR4CdeaPSEEr6Di2joHDqEg2hoK3JHgF25rVKA0g6mDIaCoerm3tHOoHCSG3zSMUBtOwc6qgy31WantSMXPt20g3CkmbUE7DiklFB5YxGXbw7uXsu0zSvvGxkNn6o4rQs+fS3vj7ab3zja+dSu8as/+aXvjLaL3/1izcd34qLR4YzH1IjhZiaFEMIIaYmxTAZq+YYo+lcM857K4xr2dmjI7OZliaNMDZhfCsvZq4ddcVdY9yOeq5suMf44jrKqFw4XlK8+WNf+4nv/X7bnXfZ4U8/+dxbnnzbRpJSGNflVHqgmZsA7UvxqMxfH/rG3x3/bxZ59Sl/euc9JMU4DKJ+T2bUxi0bl7bN87ZtMcDckR+9gxTjEGj0JVqPCkNpi21jA8a2a87A+s0eJqXQ/5JeQxmZsY3NIm3skoGt7y2l3hf1wIo9ojHa2Nm0372Rep+08kLqxAE2znDJu/pf0PZkptLG13Jw/2v0frI9DWDbD+5/QfeYY0pMZhv1P0kHU5hG29QHDoGkt5HtaaDlt0oDIOiGl1LtiTOVf9xOYQAo6Uu0TJxN5j1KGgJBN7uSiifLpmUvjbFfKemD5AmzyVx2S8WBIGktmUm2KfixShoKS3Xnf1InyKbAK9RoICRJL7tikmwyvFFJgyAmSc87DCqTakMLr1TSAIhJ0vXecAyUiifEpmaufLyS+l5ooiQ97DsXQSnGk2HjFva/jRqNNWhVf7in4qJCjE3Sxksf8fnjgFKMzSTadjYbPiwljXtlf7iHwqLmX3H/t/3ubIBcjc0E2nbNwJZ3lqLGHLSqP9xdiwxLVtzs/s985/f2vrgA5GJjxm9j11yg7vRIKWnBT193xFEjPPKYOdwP6rEHHbLAgw854tjTLl2fmbfkamPGbGPbNWcDl/74AVKMWvjHGLXphWa0zm2pNjYjNy7z5ty2xWx88WYvu4EUoxb7ea4pIzXuA8Zl0bXaNjZjNWbhV5+546eesFpSilr8b8gMT5t6wL6HHX7w/rv86UefftNTbrdEkmLSSPekeHhQOESLDE3UqA+mMDjtwuuUNgoxNSkGjfMM6vCgcsFqhY0m8a94cNiZLytpUq8ZJGy4k8LElOFhZ36vqIn1EIGHDDmT2U1RA86VJw05k9lfQRNcBocrz1CapGsGhskcoKBJ/tvQcOWpShN1KnVImMweCprogykeEjaPVJys3QeFyWyuqMn+ES2D0TZX323iPkXr4UDLN5Q04a+mDgZTuegGCpP2WBgOzrxRSZN+iw2DwWQO0hQ2p1M9CGxTH6w4edqBzDCg5RtKmsIv0HoImMIZyxWm4YXUIWC78jQlTeNtr8IeALT8VEnTuYbS/0zhrFUKU5H0Q9reZ2yeqKQpeRHV7nc2LV9X0nQG3fzv9D4yR2p6g3Yh0+tN5d93U5yaRu8g2z3OuPJKNZraoNuvp8/ZtPxQSVMctCuZ3m7TcqgUpinp1RS7t1G47FaKmu7rXUzta6ZSH62k6U76PtnuZcaVN6rRlEfdO9PPjDNfVtLUR+1Ixv3LpuVP6sKox2H3L5uWfaTQAQrak4x7lk3LmhWK6sKoJ1Hds2xaTr+JkroxaD8y7lM2LeffVkkdmfRkqu3+ZNNyyZ3UqDOj/kRLf7JpueSuatSdQbf6GxX3JJuWC++iRl3a6F1k7F5kaDnr9mrUrUH7kulFxi0n3EKNOjbqzuupuPfYOHPwaiV1btKbybZ7jk0tbBeV1MFRW9Bi9xqbAt+Toro4aPUZZHqNTYb3SFHdnPSAOSruLTZu+fszFIO6utFrqcY9xaZmjr+zGnV40pfJxr3EJsMfl6pRx29Bi90/bNyS3yUldXuQ9qPF7hs2pXLqgxSDuj5qxXG02L3Cxi38YrkazcCkGxxPi90jbErhshdJSTMx6UYn0IL7go1b2OpmSkEzMukGx9Ia9wIbirn4ZVLS7ExacSDZ2LPPpmb4+Y0Ug2ZpkragVuwZZ+MWjn2clDRjo/Q1yNizzMYZrniXlIJmbpBe09Iae1bZOJtrv3dTKWkmJz3oDHLFnkk2zoYt7yklzepGq7aE1tgzx7azYZdHSClodifpTf8mV+zZYuwM7PF4KUbN9BB1572gNfbMsHHNULd/tBSjZn4jveUvOBt7Jhg7F/j3rx4ghag+GINu/isoxdhdZ9s1A+d87vZSjOqLSXrUflCKsTvMxjVXKPu9coWUonpkSNIL10Aptt1NNnYuwDnfvL+kFNQzY5BesQacbeyuMXbNBfjr5s9fIYWkPpokPf8AIBcbd4eNXdoK/H3H199MUorqq0nSw3/7TyAXG3eAjV1zAbh0i9feUlJM6rUpSLd69zEAudjY02Nju7QFYG7td595fUkhBfXeGCU96KsnA5S22tgTZ2O75myAfOYf3np3SYopqB+HJCk+7ItHXA1Q2lJtY0+CjW3X3Bbm3bDmF2+57xJJSkm9OiZJusMbf3XqHBvXNpfq61yU8fy1ltzmyvzrT9jiE8+6TZCk2AT18JgkKd3t1d/f//LC/C5tm3PZuNZaSykl59y2uVRz3fmfJ+/0nbc94ZZRG6cU1N9Ditp45QNf/pnNDrpoQ2Ws+eorT95/s2++94UPuFHSvLGJQf0/pKT5l9/0Yc986ye/8qvt9tj7wDUnnHLaKScdf9QB++yy2S+/96UPv/WlT3rgbVY1us6Qmhg0JGNqohYeU7OkaZIWH5smxaChGmJMTRODFh5iTE2TUoxBm/y/yf//r3kAVlA4IEQLAABQQwCdASoAAQABPm0wlUikP6ShJ3BKw/ANiWNu8p8dlOAP5AsgD8AP0ATmFAP73tFQQ+g5snkbwvzV55u0DN9/qv+N7VfzJ7AH6j9N/zB/sP+4XvPf739mfcn/kPUA/tH9560b9t/YT8t/2a/8Z/2PTOzX7/AdxfJgzP29/ZfLeiFclb8zZezyfftbwcuDbZL26ZMd42yXt0yY7xtkvbpSo8pOrXumTHeNslyj9pbCYnQeAdOp4C7kBi4SWt8AWur8DTGpowFZhjZq8f2Mt2eUU6AJjXg3WKLWC/nrVqLOKH7LubzSLGnwIUWLO/QxoH6d77Yr9SYUv2hyVVU5JqCTR5jhsZqxzn2w6zxowwUB6XoinFm30MVd7E2BpcuPJIZOrBFTtBlfpl+cI+0to1ftmye5EYDVQ+OEkNJJ4bW4jBjfGNnZfo1joaw4HTfwXCOfZAmrIt6DHWuSrRaF6Ky9Tou9pTKd7jbcTCZNMy4PsaWwbMuLh1G5ubm5tIsX2cP5TLYvHS5TyWYw6NXqf2TIsA7dIm6Ex/VeU2oBsaSkY6C39FDg0jk+kTGhPEXJ+umXCG6RhZwPqa0RnB2Jh6lVVyjK29i573xIMEDPqjvKcKxD/e2Lf+vRGqVxIXvME5KVrnDfS8JX1J8mjm33hbmsoL4Uq2gfr2B/Qthz3/RH9HUQTi0Lj4Zz7F2kRuiXdlAuIxumTakn+3xtkvbpkx3jbIoAAP6mqgAAAAE1ZzMMe/PPIyCnPQAi/Hpgk1fgyDGunI5z1TI71N/Q3Pq9ZagpyngKx6awMltCOC4owPa1yGYJjBoTCNnZAxBJdJFJM80or2WF9CRTJJnCWhU/GiYC54Sls2PXMfhfBvaeKCS9MJGKkC2LySaBN/gtRfoI0p183ffYW9swdtiy1/4X96oO62WebQj9Eyu5hFftzNQGoX5mXV50q1nRnfnVo8BPnxNjnf1tdpGsz7F2mS9RLOv4gOj1xWyAA9iyGhvC0Ugjkhzj+QvVN4Bp80kEqnvya3kcC5TqUPdB/vkm/SO8QUBJ7UOiVWIViCOpYDIHb8NE2sBH7BRcvFY6PlStp1JYoxM9YhM7TlWh4KpyPtOBevDG3xOXv4ov9+uJ80RikRTnsnKRQ/PpQDb1Qyeo6esZNjlEHIMfQyX585grPCnMIp54CgBgV7urynZaNDv7m8klCl4apDPv5bGfxh/Bt4bt/U6FfUrLNnSQnJwOjR0Kk6iKuSc+3xuBar7GZjx0tEuA2xoftIBxgxNhgcW1vVC2PcPFEhOxPohlRiwjpQF7pwIWVxACIotjXp3/3iTo/w0AO60U05/14ph2dGp5cUWERLkZHo8hNfMSAQenKqem+BsKXWvQtlqg1wz5YxFxzU1zLijqFQHC7V8awy5HWgaecGDh/dDT7xivnvcG8igBbJVRJjAp8eIxpJc8JVxGAjMu0RKWVGlTZix+T3XUfPxA+J0u1zDejha2EItUfGWp3/YQP/9FZDSh3/TY93/puk1i+RUR7gz2b6zd/ZmlKWfbHqC+wZVbJrJL04y/0TCgl6E51WwCAsNqg/CBD/HWbVre8c9dIc1z7fLjape2WUWYQfwWuK+wseF+GmTr3mT+mRmPa7aKZPCPB3ejiItnNkJSmbW4QVJwp3ykf0P+rhZAZRZSvb3E6gwpS050Fq14Kjqz54UlAvGyaCqKmjV66EbCZ//6Uh3O6PlxfyokduG4ycSgmrRgxWOJx6gu3XFVv8PBKxa/KDohFYOfuTRJ1M4J7doIXG0xNw/kfkRjO581eV4CFL+XWqcWO3vP1MCU4HUMDWbWVGsIzREJl4BEkbX+FQp9So9CHIROC8BlgZy8LtgJS8L34cx3ChVjANVWGx0x3zHt/Sg/CLuMltoRko2ykTEhomT9HReOrsdYYIKIHzceFqCrUeKCz/aYsptwlyCmyfl0DBtUweRLUidyJtbZ652vs3nDi8syJXZGFN7QVf0E4bSGpRzFvDbLgyJZZESvXaXP3t2gZ63CIEU9VYG/an5DItWEg4CN6KEgDxIyRiK03/TjyrSijjw3IQq41zlmoqWVkv8IdAsy3RCthO0LkwILTJMI2h6VJMo/ATrkqwEcpYXA0IE6U2LYCCEysZFmTqpi2JNRnLuO7qzJjxWNdxKtTFVxzTe2/tAtU8qaAVNYy4hCK+w2mDhgimX68Yrkeb/K+ikXJRhrRxWJ0211YjoUxiw4c4X1MF1aT0Y3Ux1vXWXbm7VuMYnkp1f4YGX96Uf3S5xzX0pAtVMXrft+quUHVqybxYMMIr+Zz0d/QBo3qse0s7BSeD5K3q2SeBFTEmu36cxUX5IrE6jDH8mwTkqs2dAwzpO1xkQvfm7C3crWgf1amGtHyBze601c272wnnhCFnzh/1QyyGJt6N5FdQU2F9M4f2OKRqBLQYgYtTpiFfgAAymM6lkwqSuSvt/Ya8NdY06SSkjZ0G/A4GRp0UQM0cTLIQjyVatKvQCDfTkO3bXDqbxCQyvETPPUUP3/eYTKm00gvTOe8ImHX9X3/ANcFRA+fwsW9qO1mwrfzIQlzpD1CqrMmCVkSMOrN0KKGNzA8wgfU9Mp0K5wIx9urdj3LZQoTmRuhPyQFkfvspyUh6oYCmjad3TupajRyFfDl4l0fkfzM9nFc///10H/zf//+tQvBmjv+jjWUdoxEovm+2LOWJE58y3opVtVKkh3+Nmdrnn//g3JD8M6zgcSeosp4jhXwI+/FuJ+YSqhBzSeBym9wL7Ru+xtuNuBtr/8T9ee60J1FSwdsUFxjAjGIZGSMjx+a4NGW6zwNsxN9Gr+oYG2qGsfptVMJkXq+jHRvD15szNsM5qrEn/jKiXj46yhR8epmtTbchWNQrw8FUJjmYCE9MJi+bIzByK7Yu47hp4oTjWS8p+AzPlbdwpwKBtcf5x2LBYLnb2nya4HKwE6TUH+HPGkMZXfG1mjDgmc7Yg51DdAf/Y1pZ3hz4Zybnmdu8YHjz3tJFd7ZucFvq6//5cjmQc4bMmyoj+pqib4nz2Xs90jpKQ94KfBU7NYJLUYNFoxz8XAnwIQ+edaBzE1EjiZQnR+bwVFV8KpJ0Mj9V9oNswhtfh9HNBeNJV3rp0DDXITNva9nxsudajumTL9NvUHOZ+6Or81l1h1dCKLTTBPHECyZ5T2IG9z5pt+yjhQEIhhhdIjxaFNmKEcBm+tPWlYBJVWpHzhXUG7aJT3WivpXTXmC/MwBi9lfoVPUAreFysekqa1vxZk8cp73Rg6Kxp5dGZdhjCDQEFoVYzmF8OEEDexHu+c6tCvea7qzZ+wCxxYZzQBxZj6T5fUuNFi+EwzyRv95oHf5m9eyVWtwj//H2YEJOB1CmGUaapz/sWpblWTX0JfnKLZTELsWFpDjR6ZIs6eF/NF1Nbbwrj7t2eK2gXQwxT4YSYakOVJ2M1w/oVOguCG/U3BirvWk4bcDsNK2HzuKuAiHe7iQ0ymwqh4V2MOz/uJtQwapN6cZR6niW9qoWni03psa2iVT7X7z1ZONM/qP2VlRA12oRyHyHZXqDqpEy9lOac8x5k6RdGsmOesQ/gyDe2uk/R5DXE4UyP8xychTfr+Jok9b2UEVF0eogAS8yuZVAr8W2H0zxy8mnep7VsBbs7XwtIlD0QadugruyBqnKPPDkUPywts5uxAND6i/Kbhv6gUAXKAxcwbPB9rFYCFqNWdlKBecjudKuJBq8Jj8tYMvEdf6cXMvf4SYU3VxDuajYr8pB165aGty1tQA5itg8hJHeaPtz0TYpt3H2OXPv3eYearI8vm54tBp6YjHLuj0Kil5jvNwO1JLyioeU+1VgJ3AAAAAAAAAAAARVhJRroAAABFeGlmAABJSSoACAAAAAYAEgEDAAEAAAABAAAAGgEFAAEAAABWAAAAGwEFAAEAAABeAAAAKAEDAAEAAAACAAAAEwIDAAEAAAABAAAAaYcEAAEAAABmAAAAAAAAAEgAAAABAAAASAAAAAEAAAAGAACQBwAEAAAAMDIxMAGRBwAEAAAAAQIDAACgBwAEAAAAMDEwMAGgAwABAAAA//8AAAKgBAABAAAAAAEAAAOgBAABAAAAAAEAAAAAAAA=;container=0;" parent="J6oPv5elQKLaFBjouUGu-20" vertex="1">
          <mxGeometry x="155.92999999999995" y="127" width="44.07" height="44.07" as="geometry" />
        </mxCell>
        <mxCell id="J6oPv5elQKLaFBjouUGu-18" value="" style="endArrow=classic;startArrow=classic;html=1;rounded=0;entryX=0.5;entryY=1;entryDx=0;entryDy=0;" parent="J6oPv5elQKLaFBjouUGu-20" source="J6oPv5elQKLaFBjouUGu-6" target="B96o6gm8LpOH2C7WPo1T-22" edge="1">
          <mxGeometry width="50" height="50" relative="1" as="geometry">
            <mxPoint x="190" y="107" as="sourcePoint" />
            <mxPoint x="240" y="57" as="targetPoint" />
          </mxGeometry>
        </mxCell>
        <mxCell id="J6oPv5elQKLaFBjouUGu-19" value="&lt;font style=&quot;font-size: 18px;&quot;&gt;User Data&lt;/font&gt;" style="text;html=1;align=center;verticalAlign=middle;resizable=0;points=[];autosize=1;strokeColor=none;fillColor=none;" parent="J6oPv5elQKLaFBjouUGu-20" vertex="1">
          <mxGeometry x="50" width="100" height="40" as="geometry" />
        </mxCell>
        <mxCell id="J6oPv5elQKLaFBjouUGu-21" value="" style="group" parent="1" vertex="1" connectable="0">
          <mxGeometry x="240" y="100" width="200" height="230" as="geometry" />
        </mxCell>
        <mxCell id="J6oPv5elQKLaFBjouUGu-22" value="" style="rounded=1;whiteSpace=wrap;html=1;fillColor=#ffe6cc;strokeColor=#d79b00;container=0;" parent="J6oPv5elQKLaFBjouUGu-21" vertex="1">
          <mxGeometry y="37" width="200" height="193" as="geometry" />
        </mxCell>
        <mxCell id="J6oPv5elQKLaFBjouUGu-23" value="&lt;p style=&quot;line-height: 100%;&quot;&gt;&lt;font face=&quot;Helvetica&quot; style=&quot;font-size: 18px;&quot;&gt;Node.js App&lt;/font&gt;&lt;/p&gt;" style="rounded=1;whiteSpace=wrap;html=1;fillColor=#dae8fc;strokeColor=#6c8ebf;movable=1;resizable=1;rotatable=1;deletable=1;editable=1;locked=0;connectable=1;container=0;" parent="J6oPv5elQKLaFBjouUGu-21" vertex="1">
          <mxGeometry x="22" y="57" width="156" height="60" as="geometry" />
        </mxCell>
        <mxCell id="J6oPv5elQKLaFBjouUGu-24" value="" style="shape=image;verticalLabelPosition=bottom;labelBackgroundColor=default;verticalAlign=top;aspect=fixed;imageAspect=0;image=data:image/png,UklGRpYVAABXRUJQVlA4WAoAAAAYAAAA/wAA/wAAQUxQSGkJAAABwIZtm2lLkt6IWOls27Zt27Zt27ZtlW3bysyasu1qd2cWzoqI9/mRp87ZWHutcUbEBGiT/zf5f5MZ45jD0El61RnHrBnjcf+x7/KB0+ijjPmfqwbP+5krY8xctnLwfIBsRl+5YpP//gfcBwdauM6lg22h754JQXFGfHG/XXabzF13336LLefd6vdrqd0XJMXZcBhTacbZEY0edtLjFMMs2Iu5PPkVu+OSbnUB7VukOAP2odCxnRC0bA3XwvelNMyk7WmphT1XKQ2xpI/T2rjlhFurGV5R989UbGi54G5qBlfQPmQMNi2X30vNwEp6DsU2YNNy2V2VhlXQQRTMxjYt591CaUhFPRrbzG/TsmaZwoBK+jl5Adi0bKcu7x9afRHVLNB25jNKgynpmVQvCGPzZKXh9B1as3BTOO/6CgNJOpLCYk3LLxWHUdDN/429KLvyRKVBFPVkbBZtCseqq/tGo3eRR4CdeaPSEEr6Di2joHDqEg2hoK3JHgF25rVKA0g6mDIaCoerm3tHOoHCSG3zSMUBtOwc6qgy31WantSMXPt20g3CkmbUE7DiklFB5YxGXbw7uXsu0zSvvGxkNn6o4rQs+fS3vj7ab3zja+dSu8as/+aXvjLaL3/1izcd34qLR4YzH1IjhZiaFEMIIaYmxTAZq+YYo+lcM857K4xr2dmjI7OZliaNMDZhfCsvZq4ddcVdY9yOeq5suMf44jrKqFw4XlK8+WNf+4nv/X7bnXfZ4U8/+dxbnnzbRpJSGNflVHqgmZsA7UvxqMxfH/rG3x3/bxZ59Sl/euc9JMU4DKJ+T2bUxi0bl7bN87ZtMcDckR+9gxTjEGj0JVqPCkNpi21jA8a2a87A+s0eJqXQ/5JeQxmZsY3NIm3skoGt7y2l3hf1wIo9ojHa2Nm0372Rep+08kLqxAE2znDJu/pf0PZkptLG13Jw/2v0frI9DWDbD+5/QfeYY0pMZhv1P0kHU5hG29QHDoGkt5HtaaDlt0oDIOiGl1LtiTOVf9xOYQAo6Uu0TJxN5j1KGgJBN7uSiifLpmUvjbFfKemD5AmzyVx2S8WBIGktmUm2KfixShoKS3Xnf1InyKbAK9RoICRJL7tikmwyvFFJgyAmSc87DCqTakMLr1TSAIhJ0vXecAyUiifEpmaufLyS+l5ooiQ97DsXQSnGk2HjFva/jRqNNWhVf7in4qJCjE3Sxksf8fnjgFKMzSTadjYbPiwljXtlf7iHwqLmX3H/t/3ubIBcjc0E2nbNwJZ3lqLGHLSqP9xdiwxLVtzs/s985/f2vrgA5GJjxm9j11yg7vRIKWnBT193xFEjPPKYOdwP6rEHHbLAgw854tjTLl2fmbfkamPGbGPbNWcDl/74AVKMWvjHGLXphWa0zm2pNjYjNy7z5ty2xWx88WYvu4EUoxb7ea4pIzXuA8Zl0bXaNjZjNWbhV5+546eesFpSilr8b8gMT5t6wL6HHX7w/rv86UefftNTbrdEkmLSSPekeHhQOESLDE3UqA+mMDjtwuuUNgoxNSkGjfMM6vCgcsFqhY0m8a94cNiZLytpUq8ZJGy4k8LElOFhZ36vqIn1EIGHDDmT2U1RA86VJw05k9lfQRNcBocrz1CapGsGhskcoKBJ/tvQcOWpShN1KnVImMweCprogykeEjaPVJys3QeFyWyuqMn+ES2D0TZX323iPkXr4UDLN5Q04a+mDgZTuegGCpP2WBgOzrxRSZN+iw2DwWQO0hQ2p1M9CGxTH6w4edqBzDCg5RtKmsIv0HoImMIZyxWm4YXUIWC78jQlTeNtr8IeALT8VEnTuYbS/0zhrFUKU5H0Q9reZ2yeqKQpeRHV7nc2LV9X0nQG3fzv9D4yR2p6g3Yh0+tN5d93U5yaRu8g2z3OuPJKNZraoNuvp8/ZtPxQSVMctCuZ3m7TcqgUpinp1RS7t1G47FaKmu7rXUzta6ZSH62k6U76PtnuZcaVN6rRlEfdO9PPjDNfVtLUR+1Ixv3LpuVP6sKox2H3L5uWfaTQAQrak4x7lk3LmhWK6sKoJ1Hds2xaTr+JkroxaD8y7lM2LeffVkkdmfRkqu3+ZNNyyZ3UqDOj/kRLf7JpueSuatSdQbf6GxX3JJuWC++iRl3a6F1k7F5kaDnr9mrUrUH7kulFxi0n3EKNOjbqzuupuPfYOHPwaiV1btKbybZ7jk0tbBeV1MFRW9Bi9xqbAt+Toro4aPUZZHqNTYb3SFHdnPSAOSruLTZu+fszFIO6utFrqcY9xaZmjr+zGnV40pfJxr3EJsMfl6pRx29Bi90/bNyS3yUldXuQ9qPF7hs2pXLqgxSDuj5qxXG02L3Cxi38YrkazcCkGxxPi90jbErhshdJSTMx6UYn0IL7go1b2OpmSkEzMukGx9Ia9wIbirn4ZVLS7ExacSDZ2LPPpmb4+Y0Ug2ZpkragVuwZZ+MWjn2clDRjo/Q1yNizzMYZrniXlIJmbpBe09Iae1bZOJtrv3dTKWkmJz3oDHLFnkk2zoYt7yklzepGq7aE1tgzx7azYZdHSClodifpTf8mV+zZYuwM7PF4KUbN9BB1572gNfbMsHHNULd/tBSjZn4jveUvOBt7Jhg7F/j3rx4ghag+GINu/isoxdhdZ9s1A+d87vZSjOqLSXrUflCKsTvMxjVXKPu9coWUonpkSNIL10Aptt1NNnYuwDnfvL+kFNQzY5BesQacbeyuMXbNBfjr5s9fIYWkPpokPf8AIBcbd4eNXdoK/H3H199MUorqq0nSw3/7TyAXG3eAjV1zAbh0i9feUlJM6rUpSLd69zEAudjY02Nju7QFYG7td595fUkhBfXeGCU96KsnA5S22tgTZ2O75myAfOYf3np3SYopqB+HJCk+7ItHXA1Q2lJtY0+CjW3X3Bbm3bDmF2+57xJJSkm9OiZJusMbf3XqHBvXNpfq61yU8fy1ltzmyvzrT9jiE8+6TZCk2AT18JgkKd3t1d/f//LC/C5tm3PZuNZaSykl59y2uVRz3fmfJ+/0nbc94ZZRG6cU1N9Ditp45QNf/pnNDrpoQ2Ws+eorT95/s2++94UPuFHSvLGJQf0/pKT5l9/0Yc986ye/8qvt9tj7wDUnnHLaKScdf9QB++yy2S+/96UPv/WlT3rgbVY1us6Qmhg0JGNqohYeU7OkaZIWH5smxaChGmJMTRODFh5iTE2TUoxBm/y/yf//r3kAVlA4IEQLAABQQwCdASoAAQABPm0wlUikP6ShJ3BKw/ANiWNu8p8dlOAP5AsgD8AP0ATmFAP73tFQQ+g5snkbwvzV55u0DN9/qv+N7VfzJ7AH6j9N/zB/sP+4XvPf739mfcn/kPUA/tH9560b9t/YT8t/2a/8Z/2PTOzX7/AdxfJgzP29/ZfLeiFclb8zZezyfftbwcuDbZL26ZMd42yXt0yY7xtkvbpSo8pOrXumTHeNslyj9pbCYnQeAdOp4C7kBi4SWt8AWur8DTGpowFZhjZq8f2Mt2eUU6AJjXg3WKLWC/nrVqLOKH7LubzSLGnwIUWLO/QxoH6d77Yr9SYUv2hyVVU5JqCTR5jhsZqxzn2w6zxowwUB6XoinFm30MVd7E2BpcuPJIZOrBFTtBlfpl+cI+0to1ftmye5EYDVQ+OEkNJJ4bW4jBjfGNnZfo1joaw4HTfwXCOfZAmrIt6DHWuSrRaF6Ky9Tou9pTKd7jbcTCZNMy4PsaWwbMuLh1G5ubm5tIsX2cP5TLYvHS5TyWYw6NXqf2TIsA7dIm6Ex/VeU2oBsaSkY6C39FDg0jk+kTGhPEXJ+umXCG6RhZwPqa0RnB2Jh6lVVyjK29i573xIMEDPqjvKcKxD/e2Lf+vRGqVxIXvME5KVrnDfS8JX1J8mjm33hbmsoL4Uq2gfr2B/Qthz3/RH9HUQTi0Lj4Zz7F2kRuiXdlAuIxumTakn+3xtkvbpkx3jbIoAAP6mqgAAAAE1ZzMMe/PPIyCnPQAi/Hpgk1fgyDGunI5z1TI71N/Q3Pq9ZagpyngKx6awMltCOC4owPa1yGYJjBoTCNnZAxBJdJFJM80or2WF9CRTJJnCWhU/GiYC54Sls2PXMfhfBvaeKCS9MJGKkC2LySaBN/gtRfoI0p183ffYW9swdtiy1/4X96oO62WebQj9Eyu5hFftzNQGoX5mXV50q1nRnfnVo8BPnxNjnf1tdpGsz7F2mS9RLOv4gOj1xWyAA9iyGhvC0Ugjkhzj+QvVN4Bp80kEqnvya3kcC5TqUPdB/vkm/SO8QUBJ7UOiVWIViCOpYDIHb8NE2sBH7BRcvFY6PlStp1JYoxM9YhM7TlWh4KpyPtOBevDG3xOXv4ov9+uJ80RikRTnsnKRQ/PpQDb1Qyeo6esZNjlEHIMfQyX585grPCnMIp54CgBgV7urynZaNDv7m8klCl4apDPv5bGfxh/Bt4bt/U6FfUrLNnSQnJwOjR0Kk6iKuSc+3xuBar7GZjx0tEuA2xoftIBxgxNhgcW1vVC2PcPFEhOxPohlRiwjpQF7pwIWVxACIotjXp3/3iTo/w0AO60U05/14ph2dGp5cUWERLkZHo8hNfMSAQenKqem+BsKXWvQtlqg1wz5YxFxzU1zLijqFQHC7V8awy5HWgaecGDh/dDT7xivnvcG8igBbJVRJjAp8eIxpJc8JVxGAjMu0RKWVGlTZix+T3XUfPxA+J0u1zDejha2EItUfGWp3/YQP/9FZDSh3/TY93/puk1i+RUR7gz2b6zd/ZmlKWfbHqC+wZVbJrJL04y/0TCgl6E51WwCAsNqg/CBD/HWbVre8c9dIc1z7fLjape2WUWYQfwWuK+wseF+GmTr3mT+mRmPa7aKZPCPB3ejiItnNkJSmbW4QVJwp3ykf0P+rhZAZRZSvb3E6gwpS050Fq14Kjqz54UlAvGyaCqKmjV66EbCZ//6Uh3O6PlxfyokduG4ycSgmrRgxWOJx6gu3XFVv8PBKxa/KDohFYOfuTRJ1M4J7doIXG0xNw/kfkRjO581eV4CFL+XWqcWO3vP1MCU4HUMDWbWVGsIzREJl4BEkbX+FQp9So9CHIROC8BlgZy8LtgJS8L34cx3ChVjANVWGx0x3zHt/Sg/CLuMltoRko2ykTEhomT9HReOrsdYYIKIHzceFqCrUeKCz/aYsptwlyCmyfl0DBtUweRLUidyJtbZ652vs3nDi8syJXZGFN7QVf0E4bSGpRzFvDbLgyJZZESvXaXP3t2gZ63CIEU9VYG/an5DItWEg4CN6KEgDxIyRiK03/TjyrSijjw3IQq41zlmoqWVkv8IdAsy3RCthO0LkwILTJMI2h6VJMo/ATrkqwEcpYXA0IE6U2LYCCEysZFmTqpi2JNRnLuO7qzJjxWNdxKtTFVxzTe2/tAtU8qaAVNYy4hCK+w2mDhgimX68Yrkeb/K+ikXJRhrRxWJ0211YjoUxiw4c4X1MF1aT0Y3Ux1vXWXbm7VuMYnkp1f4YGX96Uf3S5xzX0pAtVMXrft+quUHVqybxYMMIr+Zz0d/QBo3qse0s7BSeD5K3q2SeBFTEmu36cxUX5IrE6jDH8mwTkqs2dAwzpO1xkQvfm7C3crWgf1amGtHyBze601c272wnnhCFnzh/1QyyGJt6N5FdQU2F9M4f2OKRqBLQYgYtTpiFfgAAymM6lkwqSuSvt/Ya8NdY06SSkjZ0G/A4GRp0UQM0cTLIQjyVatKvQCDfTkO3bXDqbxCQyvETPPUUP3/eYTKm00gvTOe8ImHX9X3/ANcFRA+fwsW9qO1mwrfzIQlzpD1CqrMmCVkSMOrN0KKGNzA8wgfU9Mp0K5wIx9urdj3LZQoTmRuhPyQFkfvspyUh6oYCmjad3TupajRyFfDl4l0fkfzM9nFc///10H/zf//+tQvBmjv+jjWUdoxEovm+2LOWJE58y3opVtVKkh3+Nmdrnn//g3JD8M6zgcSeosp4jhXwI+/FuJ+YSqhBzSeBym9wL7Ru+xtuNuBtr/8T9ee60J1FSwdsUFxjAjGIZGSMjx+a4NGW6zwNsxN9Gr+oYG2qGsfptVMJkXq+jHRvD15szNsM5qrEn/jKiXj46yhR8epmtTbchWNQrw8FUJjmYCE9MJi+bIzByK7Yu47hp4oTjWS8p+AzPlbdwpwKBtcf5x2LBYLnb2nya4HKwE6TUH+HPGkMZXfG1mjDgmc7Yg51DdAf/Y1pZ3hz4Zybnmdu8YHjz3tJFd7ZucFvq6//5cjmQc4bMmyoj+pqib4nz2Xs90jpKQ94KfBU7NYJLUYNFoxz8XAnwIQ+edaBzE1EjiZQnR+bwVFV8KpJ0Mj9V9oNswhtfh9HNBeNJV3rp0DDXITNva9nxsudajumTL9NvUHOZ+6Or81l1h1dCKLTTBPHECyZ5T2IG9z5pt+yjhQEIhhhdIjxaFNmKEcBm+tPWlYBJVWpHzhXUG7aJT3WivpXTXmC/MwBi9lfoVPUAreFysekqa1vxZk8cp73Rg6Kxp5dGZdhjCDQEFoVYzmF8OEEDexHu+c6tCvea7qzZ+wCxxYZzQBxZj6T5fUuNFi+EwzyRv95oHf5m9eyVWtwj//H2YEJOB1CmGUaapz/sWpblWTX0JfnKLZTELsWFpDjR6ZIs6eF/NF1Nbbwrj7t2eK2gXQwxT4YSYakOVJ2M1w/oVOguCG/U3BirvWk4bcDsNK2HzuKuAiHe7iQ0ymwqh4V2MOz/uJtQwapN6cZR6niW9qoWni03psa2iVT7X7z1ZONM/qP2VlRA12oRyHyHZXqDqpEy9lOac8x5k6RdGsmOesQ/gyDe2uk/R5DXE4UyP8xychTfr+Jok9b2UEVF0eogAS8yuZVAr8W2H0zxy8mnep7VsBbs7XwtIlD0QadugruyBqnKPPDkUPywts5uxAND6i/Kbhv6gUAXKAxcwbPB9rFYCFqNWdlKBecjudKuJBq8Jj8tYMvEdf6cXMvf4SYU3VxDuajYr8pB165aGty1tQA5itg8hJHeaPtz0TYpt3H2OXPv3eYearI8vm54tBp6YjHLuj0Kil5jvNwO1JLyioeU+1VgJ3AAAAAAAAAAAARVhJRroAAABFeGlmAABJSSoACAAAAAYAEgEDAAEAAAABAAAAGgEFAAEAAABWAAAAGwEFAAEAAABeAAAAKAEDAAEAAAACAAAAEwIDAAEAAAABAAAAaYcEAAEAAABmAAAAAAAAAEgAAAABAAAASAAAAAEAAAAGAACQBwAEAAAAMDIxMAGRBwAEAAAAAQIDAACgBwAEAAAAMDEwMAGgAwABAAAA//8AAAKgBAABAAAAAAEAAAOgBAABAAAAAAEAAAAAAAA=;container=0;" parent="J6oPv5elQKLaFBjouUGu-21" vertex="1">
          <mxGeometry x="155.93" y="37" width="44.07" height="44.07" as="geometry" />
        </mxCell>
        <mxCell id="J6oPv5elQKLaFBjouUGu-25" value="&lt;p style=&quot;line-height: 100%;&quot;&gt;&lt;font face=&quot;Helvetica&quot; style=&quot;font-size: 18px;&quot;&gt;MongoDB&lt;/font&gt;&lt;/p&gt;" style="rounded=1;whiteSpace=wrap;html=1;fillColor=#dae8fc;strokeColor=#6c8ebf;container=0;" parent="J6oPv5elQKLaFBjouUGu-21" vertex="1">
          <mxGeometry x="22" y="147" width="156" height="60" as="geometry" />
        </mxCell>
        <mxCell id="J6oPv5elQKLaFBjouUGu-26" value="" style="shape=image;verticalLabelPosition=bottom;labelBackgroundColor=default;verticalAlign=top;aspect=fixed;imageAspect=0;image=data:image/png,UklGRpYVAABXRUJQVlA4WAoAAAAYAAAA/wAA/wAAQUxQSGkJAAABwIZtm2lLkt6IWOls27Zt27Zt27ZtlW3bysyasu1qd2cWzoqI9/mRp87ZWHutcUbEBGiT/zf5f5MZ45jD0El61RnHrBnjcf+x7/KB0+ijjPmfqwbP+5krY8xctnLwfIBsRl+5YpP//gfcBwdauM6lg22h754JQXFGfHG/XXabzF13336LLefd6vdrqd0XJMXZcBhTacbZEY0edtLjFMMs2Iu5PPkVu+OSbnUB7VukOAP2odCxnRC0bA3XwvelNMyk7WmphT1XKQ2xpI/T2rjlhFurGV5R989UbGi54G5qBlfQPmQMNi2X30vNwEp6DsU2YNNy2V2VhlXQQRTMxjYt591CaUhFPRrbzG/TsmaZwoBK+jl5Adi0bKcu7x9afRHVLNB25jNKgynpmVQvCGPzZKXh9B1as3BTOO/6CgNJOpLCYk3LLxWHUdDN/429KLvyRKVBFPVkbBZtCseqq/tGo3eRR4CdeaPSEEr6Di2joHDqEg2hoK3JHgF25rVKA0g6mDIaCoerm3tHOoHCSG3zSMUBtOwc6qgy31WantSMXPt20g3CkmbUE7DiklFB5YxGXbw7uXsu0zSvvGxkNn6o4rQs+fS3vj7ab3zja+dSu8as/+aXvjLaL3/1izcd34qLR4YzH1IjhZiaFEMIIaYmxTAZq+YYo+lcM857K4xr2dmjI7OZliaNMDZhfCsvZq4ddcVdY9yOeq5suMf44jrKqFw4XlK8+WNf+4nv/X7bnXfZ4U8/+dxbnnzbRpJSGNflVHqgmZsA7UvxqMxfH/rG3x3/bxZ59Sl/euc9JMU4DKJ+T2bUxi0bl7bN87ZtMcDckR+9gxTjEGj0JVqPCkNpi21jA8a2a87A+s0eJqXQ/5JeQxmZsY3NIm3skoGt7y2l3hf1wIo9ojHa2Nm0372Rep+08kLqxAE2znDJu/pf0PZkptLG13Jw/2v0frI9DWDbD+5/QfeYY0pMZhv1P0kHU5hG29QHDoGkt5HtaaDlt0oDIOiGl1LtiTOVf9xOYQAo6Uu0TJxN5j1KGgJBN7uSiifLpmUvjbFfKemD5AmzyVx2S8WBIGktmUm2KfixShoKS3Xnf1InyKbAK9RoICRJL7tikmwyvFFJgyAmSc87DCqTakMLr1TSAIhJ0vXecAyUiifEpmaufLyS+l5ooiQ97DsXQSnGk2HjFva/jRqNNWhVf7in4qJCjE3Sxksf8fnjgFKMzSTadjYbPiwljXtlf7iHwqLmX3H/t/3ubIBcjc0E2nbNwJZ3lqLGHLSqP9xdiwxLVtzs/s985/f2vrgA5GJjxm9j11yg7vRIKWnBT193xFEjPPKYOdwP6rEHHbLAgw854tjTLl2fmbfkamPGbGPbNWcDl/74AVKMWvjHGLXphWa0zm2pNjYjNy7z5ty2xWx88WYvu4EUoxb7ea4pIzXuA8Zl0bXaNjZjNWbhV5+546eesFpSilr8b8gMT5t6wL6HHX7w/rv86UefftNTbrdEkmLSSPekeHhQOESLDE3UqA+mMDjtwuuUNgoxNSkGjfMM6vCgcsFqhY0m8a94cNiZLytpUq8ZJGy4k8LElOFhZ36vqIn1EIGHDDmT2U1RA86VJw05k9lfQRNcBocrz1CapGsGhskcoKBJ/tvQcOWpShN1KnVImMweCprogykeEjaPVJys3QeFyWyuqMn+ES2D0TZX323iPkXr4UDLN5Q04a+mDgZTuegGCpP2WBgOzrxRSZN+iw2DwWQO0hQ2p1M9CGxTH6w4edqBzDCg5RtKmsIv0HoImMIZyxWm4YXUIWC78jQlTeNtr8IeALT8VEnTuYbS/0zhrFUKU5H0Q9reZ2yeqKQpeRHV7nc2LV9X0nQG3fzv9D4yR2p6g3Yh0+tN5d93U5yaRu8g2z3OuPJKNZraoNuvp8/ZtPxQSVMctCuZ3m7TcqgUpinp1RS7t1G47FaKmu7rXUzta6ZSH62k6U76PtnuZcaVN6rRlEfdO9PPjDNfVtLUR+1Ixv3LpuVP6sKox2H3L5uWfaTQAQrak4x7lk3LmhWK6sKoJ1Hds2xaTr+JkroxaD8y7lM2LeffVkkdmfRkqu3+ZNNyyZ3UqDOj/kRLf7JpueSuatSdQbf6GxX3JJuWC++iRl3a6F1k7F5kaDnr9mrUrUH7kulFxi0n3EKNOjbqzuupuPfYOHPwaiV1btKbybZ7jk0tbBeV1MFRW9Bi9xqbAt+Toro4aPUZZHqNTYb3SFHdnPSAOSruLTZu+fszFIO6utFrqcY9xaZmjr+zGnV40pfJxr3EJsMfl6pRx29Bi90/bNyS3yUldXuQ9qPF7hs2pXLqgxSDuj5qxXG02L3Cxi38YrkazcCkGxxPi90jbErhshdJSTMx6UYn0IL7go1b2OpmSkEzMukGx9Ia9wIbirn4ZVLS7ExacSDZ2LPPpmb4+Y0Ug2ZpkragVuwZZ+MWjn2clDRjo/Q1yNizzMYZrniXlIJmbpBe09Iae1bZOJtrv3dTKWkmJz3oDHLFnkk2zoYt7yklzepGq7aE1tgzx7azYZdHSClodifpTf8mV+zZYuwM7PF4KUbN9BB1572gNfbMsHHNULd/tBSjZn4jveUvOBt7Jhg7F/j3rx4ghag+GINu/isoxdhdZ9s1A+d87vZSjOqLSXrUflCKsTvMxjVXKPu9coWUonpkSNIL10Aptt1NNnYuwDnfvL+kFNQzY5BesQacbeyuMXbNBfjr5s9fIYWkPpokPf8AIBcbd4eNXdoK/H3H199MUorqq0nSw3/7TyAXG3eAjV1zAbh0i9feUlJM6rUpSLd69zEAudjY02Nju7QFYG7td595fUkhBfXeGCU96KsnA5S22tgTZ2O75myAfOYf3np3SYopqB+HJCk+7ItHXA1Q2lJtY0+CjW3X3Bbm3bDmF2+57xJJSkm9OiZJusMbf3XqHBvXNpfq61yU8fy1ltzmyvzrT9jiE8+6TZCk2AT18JgkKd3t1d/f//LC/C5tm3PZuNZaSykl59y2uVRz3fmfJ+/0nbc94ZZRG6cU1N9Ditp45QNf/pnNDrpoQ2Ws+eorT95/s2++94UPuFHSvLGJQf0/pKT5l9/0Yc986ye/8qvt9tj7wDUnnHLaKScdf9QB++yy2S+/96UPv/WlT3rgbVY1us6Qmhg0JGNqohYeU7OkaZIWH5smxaChGmJMTRODFh5iTE2TUoxBm/y/yf//r3kAVlA4IEQLAABQQwCdASoAAQABPm0wlUikP6ShJ3BKw/ANiWNu8p8dlOAP5AsgD8AP0ATmFAP73tFQQ+g5snkbwvzV55u0DN9/qv+N7VfzJ7AH6j9N/zB/sP+4XvPf739mfcn/kPUA/tH9560b9t/YT8t/2a/8Z/2PTOzX7/AdxfJgzP29/ZfLeiFclb8zZezyfftbwcuDbZL26ZMd42yXt0yY7xtkvbpSo8pOrXumTHeNslyj9pbCYnQeAdOp4C7kBi4SWt8AWur8DTGpowFZhjZq8f2Mt2eUU6AJjXg3WKLWC/nrVqLOKH7LubzSLGnwIUWLO/QxoH6d77Yr9SYUv2hyVVU5JqCTR5jhsZqxzn2w6zxowwUB6XoinFm30MVd7E2BpcuPJIZOrBFTtBlfpl+cI+0to1ftmye5EYDVQ+OEkNJJ4bW4jBjfGNnZfo1joaw4HTfwXCOfZAmrIt6DHWuSrRaF6Ky9Tou9pTKd7jbcTCZNMy4PsaWwbMuLh1G5ubm5tIsX2cP5TLYvHS5TyWYw6NXqf2TIsA7dIm6Ex/VeU2oBsaSkY6C39FDg0jk+kTGhPEXJ+umXCG6RhZwPqa0RnB2Jh6lVVyjK29i573xIMEDPqjvKcKxD/e2Lf+vRGqVxIXvME5KVrnDfS8JX1J8mjm33hbmsoL4Uq2gfr2B/Qthz3/RH9HUQTi0Lj4Zz7F2kRuiXdlAuIxumTakn+3xtkvbpkx3jbIoAAP6mqgAAAAE1ZzMMe/PPIyCnPQAi/Hpgk1fgyDGunI5z1TI71N/Q3Pq9ZagpyngKx6awMltCOC4owPa1yGYJjBoTCNnZAxBJdJFJM80or2WF9CRTJJnCWhU/GiYC54Sls2PXMfhfBvaeKCS9MJGKkC2LySaBN/gtRfoI0p183ffYW9swdtiy1/4X96oO62WebQj9Eyu5hFftzNQGoX5mXV50q1nRnfnVo8BPnxNjnf1tdpGsz7F2mS9RLOv4gOj1xWyAA9iyGhvC0Ugjkhzj+QvVN4Bp80kEqnvya3kcC5TqUPdB/vkm/SO8QUBJ7UOiVWIViCOpYDIHb8NE2sBH7BRcvFY6PlStp1JYoxM9YhM7TlWh4KpyPtOBevDG3xOXv4ov9+uJ80RikRTnsnKRQ/PpQDb1Qyeo6esZNjlEHIMfQyX585grPCnMIp54CgBgV7urynZaNDv7m8klCl4apDPv5bGfxh/Bt4bt/U6FfUrLNnSQnJwOjR0Kk6iKuSc+3xuBar7GZjx0tEuA2xoftIBxgxNhgcW1vVC2PcPFEhOxPohlRiwjpQF7pwIWVxACIotjXp3/3iTo/w0AO60U05/14ph2dGp5cUWERLkZHo8hNfMSAQenKqem+BsKXWvQtlqg1wz5YxFxzU1zLijqFQHC7V8awy5HWgaecGDh/dDT7xivnvcG8igBbJVRJjAp8eIxpJc8JVxGAjMu0RKWVGlTZix+T3XUfPxA+J0u1zDejha2EItUfGWp3/YQP/9FZDSh3/TY93/puk1i+RUR7gz2b6zd/ZmlKWfbHqC+wZVbJrJL04y/0TCgl6E51WwCAsNqg/CBD/HWbVre8c9dIc1z7fLjape2WUWYQfwWuK+wseF+GmTr3mT+mRmPa7aKZPCPB3ejiItnNkJSmbW4QVJwp3ykf0P+rhZAZRZSvb3E6gwpS050Fq14Kjqz54UlAvGyaCqKmjV66EbCZ//6Uh3O6PlxfyokduG4ycSgmrRgxWOJx6gu3XFVv8PBKxa/KDohFYOfuTRJ1M4J7doIXG0xNw/kfkRjO581eV4CFL+XWqcWO3vP1MCU4HUMDWbWVGsIzREJl4BEkbX+FQp9So9CHIROC8BlgZy8LtgJS8L34cx3ChVjANVWGx0x3zHt/Sg/CLuMltoRko2ykTEhomT9HReOrsdYYIKIHzceFqCrUeKCz/aYsptwlyCmyfl0DBtUweRLUidyJtbZ652vs3nDi8syJXZGFN7QVf0E4bSGpRzFvDbLgyJZZESvXaXP3t2gZ63CIEU9VYG/an5DItWEg4CN6KEgDxIyRiK03/TjyrSijjw3IQq41zlmoqWVkv8IdAsy3RCthO0LkwILTJMI2h6VJMo/ATrkqwEcpYXA0IE6U2LYCCEysZFmTqpi2JNRnLuO7qzJjxWNdxKtTFVxzTe2/tAtU8qaAVNYy4hCK+w2mDhgimX68Yrkeb/K+ikXJRhrRxWJ0211YjoUxiw4c4X1MF1aT0Y3Ux1vXWXbm7VuMYnkp1f4YGX96Uf3S5xzX0pAtVMXrft+quUHVqybxYMMIr+Zz0d/QBo3qse0s7BSeD5K3q2SeBFTEmu36cxUX5IrE6jDH8mwTkqs2dAwzpO1xkQvfm7C3crWgf1amGtHyBze601c272wnnhCFnzh/1QyyGJt6N5FdQU2F9M4f2OKRqBLQYgYtTpiFfgAAymM6lkwqSuSvt/Ya8NdY06SSkjZ0G/A4GRp0UQM0cTLIQjyVatKvQCDfTkO3bXDqbxCQyvETPPUUP3/eYTKm00gvTOe8ImHX9X3/ANcFRA+fwsW9qO1mwrfzIQlzpD1CqrMmCVkSMOrN0KKGNzA8wgfU9Mp0K5wIx9urdj3LZQoTmRuhPyQFkfvspyUh6oYCmjad3TupajRyFfDl4l0fkfzM9nFc///10H/zf//+tQvBmjv+jjWUdoxEovm+2LOWJE58y3opVtVKkh3+Nmdrnn//g3JD8M6zgcSeosp4jhXwI+/FuJ+YSqhBzSeBym9wL7Ru+xtuNuBtr/8T9ee60J1FSwdsUFxjAjGIZGSMjx+a4NGW6zwNsxN9Gr+oYG2qGsfptVMJkXq+jHRvD15szNsM5qrEn/jKiXj46yhR8epmtTbchWNQrw8FUJjmYCE9MJi+bIzByK7Yu47hp4oTjWS8p+AzPlbdwpwKBtcf5x2LBYLnb2nya4HKwE6TUH+HPGkMZXfG1mjDgmc7Yg51DdAf/Y1pZ3hz4Zybnmdu8YHjz3tJFd7ZucFvq6//5cjmQc4bMmyoj+pqib4nz2Xs90jpKQ94KfBU7NYJLUYNFoxz8XAnwIQ+edaBzE1EjiZQnR+bwVFV8KpJ0Mj9V9oNswhtfh9HNBeNJV3rp0DDXITNva9nxsudajumTL9NvUHOZ+6Or81l1h1dCKLTTBPHECyZ5T2IG9z5pt+yjhQEIhhhdIjxaFNmKEcBm+tPWlYBJVWpHzhXUG7aJT3WivpXTXmC/MwBi9lfoVPUAreFysekqa1vxZk8cp73Rg6Kxp5dGZdhjCDQEFoVYzmF8OEEDexHu+c6tCvea7qzZ+wCxxYZzQBxZj6T5fUuNFi+EwzyRv95oHf5m9eyVWtwj//H2YEJOB1CmGUaapz/sWpblWTX0JfnKLZTELsWFpDjR6ZIs6eF/NF1Nbbwrj7t2eK2gXQwxT4YSYakOVJ2M1w/oVOguCG/U3BirvWk4bcDsNK2HzuKuAiHe7iQ0ymwqh4V2MOz/uJtQwapN6cZR6niW9qoWni03psa2iVT7X7z1ZONM/qP2VlRA12oRyHyHZXqDqpEy9lOac8x5k6RdGsmOesQ/gyDe2uk/R5DXE4UyP8xychTfr+Jok9b2UEVF0eogAS8yuZVAr8W2H0zxy8mnep7VsBbs7XwtIlD0QadugruyBqnKPPDkUPywts5uxAND6i/Kbhv6gUAXKAxcwbPB9rFYCFqNWdlKBecjudKuJBq8Jj8tYMvEdf6cXMvf4SYU3VxDuajYr8pB165aGty1tQA5itg8hJHeaPtz0TYpt3H2OXPv3eYearI8vm54tBp6YjHLuj0Kil5jvNwO1JLyioeU+1VgJ3AAAAAAAAAAAARVhJRroAAABFeGlmAABJSSoACAAAAAYAEgEDAAEAAAABAAAAGgEFAAEAAABWAAAAGwEFAAEAAABeAAAAKAEDAAEAAAACAAAAEwIDAAEAAAABAAAAaYcEAAEAAABmAAAAAAAAAEgAAAABAAAASAAAAAEAAAAGAACQBwAEAAAAMDIxMAGRBwAEAAAAAQIDAACgBwAEAAAAMDEwMAGgAwABAAAA//8AAAKgBAABAAAAAAEAAAOgBAABAAAAAAEAAAAAAAA=;container=0;" parent="J6oPv5elQKLaFBjouUGu-21" vertex="1">
          <mxGeometry x="155.92999999999995" y="127" width="44.07" height="44.07" as="geometry" />
        </mxCell>
        <mxCell id="J6oPv5elQKLaFBjouUGu-27" value="" style="endArrow=classic;startArrow=classic;html=1;rounded=0;entryX=0.5;entryY=1;entryDx=0;entryDy=0;" parent="J6oPv5elQKLaFBjouUGu-21" source="J6oPv5elQKLaFBjouUGu-25" target="J6oPv5elQKLaFBjouUGu-23" edge="1">
          <mxGeometry width="50" height="50" relative="1" as="geometry">
            <mxPoint x="190" y="107" as="sourcePoint" />
            <mxPoint x="240" y="57" as="targetPoint" />
          </mxGeometry>
        </mxCell>
        <mxCell id="J6oPv5elQKLaFBjouUGu-28" value="&lt;font style=&quot;font-size: 18px;&quot;&gt;Products&lt;/font&gt;" style="text;html=1;align=center;verticalAlign=middle;resizable=0;points=[];autosize=1;strokeColor=none;fillColor=none;" parent="J6oPv5elQKLaFBjouUGu-21" vertex="1">
          <mxGeometry x="55" width="90" height="40" as="geometry" />
        </mxCell>
        <mxCell id="J6oPv5elQKLaFBjouUGu-29" value="" style="group" parent="1" vertex="1" connectable="0">
          <mxGeometry x="827" y="103" width="320.0000000000002" height="227" as="geometry" />
        </mxCell>
        <mxCell id="J6oPv5elQKLaFBjouUGu-30" value="" style="rounded=1;whiteSpace=wrap;html=1;fillColor=#ffe6cc;strokeColor=#d79b00;container=0;" parent="J6oPv5elQKLaFBjouUGu-29" vertex="1">
          <mxGeometry y="37" width="200" height="190" as="geometry" />
        </mxCell>
        <mxCell id="J6oPv5elQKLaFBjouUGu-31" value="&lt;p style=&quot;line-height: 100%;&quot;&gt;&lt;font face=&quot;Helvetica&quot; style=&quot;font-size: 18px;&quot;&gt;Spring Boot App&lt;/font&gt;&lt;/p&gt;" style="rounded=1;whiteSpace=wrap;html=1;fillColor=#dae8fc;strokeColor=#6c8ebf;movable=1;resizable=1;rotatable=1;deletable=1;editable=1;locked=0;connectable=1;container=0;" parent="J6oPv5elQKLaFBjouUGu-29" vertex="1">
          <mxGeometry x="22" y="57" width="156" height="60" as="geometry" />
        </mxCell>
        <mxCell id="J6oPv5elQKLaFBjouUGu-32" value="" style="shape=image;verticalLabelPosition=bottom;labelBackgroundColor=default;verticalAlign=top;aspect=fixed;imageAspect=0;image=data:image/png,UklGRpYVAABXRUJQVlA4WAoAAAAYAAAA/wAA/wAAQUxQSGkJAAABwIZtm2lLkt6IWOls27Zt27Zt27ZtlW3bysyasu1qd2cWzoqI9/mRp87ZWHutcUbEBGiT/zf5f5MZ45jD0El61RnHrBnjcf+x7/KB0+ijjPmfqwbP+5krY8xctnLwfIBsRl+5YpP//gfcBwdauM6lg22h754JQXFGfHG/XXabzF13336LLefd6vdrqd0XJMXZcBhTacbZEY0edtLjFMMs2Iu5PPkVu+OSbnUB7VukOAP2odCxnRC0bA3XwvelNMyk7WmphT1XKQ2xpI/T2rjlhFurGV5R989UbGi54G5qBlfQPmQMNi2X30vNwEp6DsU2YNNy2V2VhlXQQRTMxjYt591CaUhFPRrbzG/TsmaZwoBK+jl5Adi0bKcu7x9afRHVLNB25jNKgynpmVQvCGPzZKXh9B1as3BTOO/6CgNJOpLCYk3LLxWHUdDN/429KLvyRKVBFPVkbBZtCseqq/tGo3eRR4CdeaPSEEr6Di2joHDqEg2hoK3JHgF25rVKA0g6mDIaCoerm3tHOoHCSG3zSMUBtOwc6qgy31WantSMXPt20g3CkmbUE7DiklFB5YxGXbw7uXsu0zSvvGxkNn6o4rQs+fS3vj7ab3zja+dSu8as/+aXvjLaL3/1izcd34qLR4YzH1IjhZiaFEMIIaYmxTAZq+YYo+lcM857K4xr2dmjI7OZliaNMDZhfCsvZq4ddcVdY9yOeq5suMf44jrKqFw4XlK8+WNf+4nv/X7bnXfZ4U8/+dxbnnzbRpJSGNflVHqgmZsA7UvxqMxfH/rG3x3/bxZ59Sl/euc9JMU4DKJ+T2bUxi0bl7bN87ZtMcDckR+9gxTjEGj0JVqPCkNpi21jA8a2a87A+s0eJqXQ/5JeQxmZsY3NIm3skoGt7y2l3hf1wIo9ojHa2Nm0372Rep+08kLqxAE2znDJu/pf0PZkptLG13Jw/2v0frI9DWDbD+5/QfeYY0pMZhv1P0kHU5hG29QHDoGkt5HtaaDlt0oDIOiGl1LtiTOVf9xOYQAo6Uu0TJxN5j1KGgJBN7uSiifLpmUvjbFfKemD5AmzyVx2S8WBIGktmUm2KfixShoKS3Xnf1InyKbAK9RoICRJL7tikmwyvFFJgyAmSc87DCqTakMLr1TSAIhJ0vXecAyUiifEpmaufLyS+l5ooiQ97DsXQSnGk2HjFva/jRqNNWhVf7in4qJCjE3Sxksf8fnjgFKMzSTadjYbPiwljXtlf7iHwqLmX3H/t/3ubIBcjc0E2nbNwJZ3lqLGHLSqP9xdiwxLVtzs/s985/f2vrgA5GJjxm9j11yg7vRIKWnBT193xFEjPPKYOdwP6rEHHbLAgw854tjTLl2fmbfkamPGbGPbNWcDl/74AVKMWvjHGLXphWa0zm2pNjYjNy7z5ty2xWx88WYvu4EUoxb7ea4pIzXuA8Zl0bXaNjZjNWbhV5+546eesFpSilr8b8gMT5t6wL6HHX7w/rv86UefftNTbrdEkmLSSPekeHhQOESLDE3UqA+mMDjtwuuUNgoxNSkGjfMM6vCgcsFqhY0m8a94cNiZLytpUq8ZJGy4k8LElOFhZ36vqIn1EIGHDDmT2U1RA86VJw05k9lfQRNcBocrz1CapGsGhskcoKBJ/tvQcOWpShN1KnVImMweCprogykeEjaPVJys3QeFyWyuqMn+ES2D0TZX323iPkXr4UDLN5Q04a+mDgZTuegGCpP2WBgOzrxRSZN+iw2DwWQO0hQ2p1M9CGxTH6w4edqBzDCg5RtKmsIv0HoImMIZyxWm4YXUIWC78jQlTeNtr8IeALT8VEnTuYbS/0zhrFUKU5H0Q9reZ2yeqKQpeRHV7nc2LV9X0nQG3fzv9D4yR2p6g3Yh0+tN5d93U5yaRu8g2z3OuPJKNZraoNuvp8/ZtPxQSVMctCuZ3m7TcqgUpinp1RS7t1G47FaKmu7rXUzta6ZSH62k6U76PtnuZcaVN6rRlEfdO9PPjDNfVtLUR+1Ixv3LpuVP6sKox2H3L5uWfaTQAQrak4x7lk3LmhWK6sKoJ1Hds2xaTr+JkroxaD8y7lM2LeffVkkdmfRkqu3+ZNNyyZ3UqDOj/kRLf7JpueSuatSdQbf6GxX3JJuWC++iRl3a6F1k7F5kaDnr9mrUrUH7kulFxi0n3EKNOjbqzuupuPfYOHPwaiV1btKbybZ7jk0tbBeV1MFRW9Bi9xqbAt+Toro4aPUZZHqNTYb3SFHdnPSAOSruLTZu+fszFIO6utFrqcY9xaZmjr+zGnV40pfJxr3EJsMfl6pRx29Bi90/bNyS3yUldXuQ9qPF7hs2pXLqgxSDuj5qxXG02L3Cxi38YrkazcCkGxxPi90jbErhshdJSTMx6UYn0IL7go1b2OpmSkEzMukGx9Ia9wIbirn4ZVLS7ExacSDZ2LPPpmb4+Y0Ug2ZpkragVuwZZ+MWjn2clDRjo/Q1yNizzMYZrniXlIJmbpBe09Iae1bZOJtrv3dTKWkmJz3oDHLFnkk2zoYt7yklzepGq7aE1tgzx7azYZdHSClodifpTf8mV+zZYuwM7PF4KUbN9BB1572gNfbMsHHNULd/tBSjZn4jveUvOBt7Jhg7F/j3rx4ghag+GINu/isoxdhdZ9s1A+d87vZSjOqLSXrUflCKsTvMxjVXKPu9coWUonpkSNIL10Aptt1NNnYuwDnfvL+kFNQzY5BesQacbeyuMXbNBfjr5s9fIYWkPpokPf8AIBcbd4eNXdoK/H3H199MUorqq0nSw3/7TyAXG3eAjV1zAbh0i9feUlJM6rUpSLd69zEAudjY02Nju7QFYG7td595fUkhBfXeGCU96KsnA5S22tgTZ2O75myAfOYf3np3SYopqB+HJCk+7ItHXA1Q2lJtY0+CjW3X3Bbm3bDmF2+57xJJSkm9OiZJusMbf3XqHBvXNpfq61yU8fy1ltzmyvzrT9jiE8+6TZCk2AT18JgkKd3t1d/f//LC/C5tm3PZuNZaSykl59y2uVRz3fmfJ+/0nbc94ZZRG6cU1N9Ditp45QNf/pnNDrpoQ2Ws+eorT95/s2++94UPuFHSvLGJQf0/pKT5l9/0Yc986ye/8qvt9tj7wDUnnHLaKScdf9QB++yy2S+/96UPv/WlT3rgbVY1us6Qmhg0JGNqohYeU7OkaZIWH5smxaChGmJMTRODFh5iTE2TUoxBm/y/yf//r3kAVlA4IEQLAABQQwCdASoAAQABPm0wlUikP6ShJ3BKw/ANiWNu8p8dlOAP5AsgD8AP0ATmFAP73tFQQ+g5snkbwvzV55u0DN9/qv+N7VfzJ7AH6j9N/zB/sP+4XvPf739mfcn/kPUA/tH9560b9t/YT8t/2a/8Z/2PTOzX7/AdxfJgzP29/ZfLeiFclb8zZezyfftbwcuDbZL26ZMd42yXt0yY7xtkvbpSo8pOrXumTHeNslyj9pbCYnQeAdOp4C7kBi4SWt8AWur8DTGpowFZhjZq8f2Mt2eUU6AJjXg3WKLWC/nrVqLOKH7LubzSLGnwIUWLO/QxoH6d77Yr9SYUv2hyVVU5JqCTR5jhsZqxzn2w6zxowwUB6XoinFm30MVd7E2BpcuPJIZOrBFTtBlfpl+cI+0to1ftmye5EYDVQ+OEkNJJ4bW4jBjfGNnZfo1joaw4HTfwXCOfZAmrIt6DHWuSrRaF6Ky9Tou9pTKd7jbcTCZNMy4PsaWwbMuLh1G5ubm5tIsX2cP5TLYvHS5TyWYw6NXqf2TIsA7dIm6Ex/VeU2oBsaSkY6C39FDg0jk+kTGhPEXJ+umXCG6RhZwPqa0RnB2Jh6lVVyjK29i573xIMEDPqjvKcKxD/e2Lf+vRGqVxIXvME5KVrnDfS8JX1J8mjm33hbmsoL4Uq2gfr2B/Qthz3/RH9HUQTi0Lj4Zz7F2kRuiXdlAuIxumTakn+3xtkvbpkx3jbIoAAP6mqgAAAAE1ZzMMe/PPIyCnPQAi/Hpgk1fgyDGunI5z1TI71N/Q3Pq9ZagpyngKx6awMltCOC4owPa1yGYJjBoTCNnZAxBJdJFJM80or2WF9CRTJJnCWhU/GiYC54Sls2PXMfhfBvaeKCS9MJGKkC2LySaBN/gtRfoI0p183ffYW9swdtiy1/4X96oO62WebQj9Eyu5hFftzNQGoX5mXV50q1nRnfnVo8BPnxNjnf1tdpGsz7F2mS9RLOv4gOj1xWyAA9iyGhvC0Ugjkhzj+QvVN4Bp80kEqnvya3kcC5TqUPdB/vkm/SO8QUBJ7UOiVWIViCOpYDIHb8NE2sBH7BRcvFY6PlStp1JYoxM9YhM7TlWh4KpyPtOBevDG3xOXv4ov9+uJ80RikRTnsnKRQ/PpQDb1Qyeo6esZNjlEHIMfQyX585grPCnMIp54CgBgV7urynZaNDv7m8klCl4apDPv5bGfxh/Bt4bt/U6FfUrLNnSQnJwOjR0Kk6iKuSc+3xuBar7GZjx0tEuA2xoftIBxgxNhgcW1vVC2PcPFEhOxPohlRiwjpQF7pwIWVxACIotjXp3/3iTo/w0AO60U05/14ph2dGp5cUWERLkZHo8hNfMSAQenKqem+BsKXWvQtlqg1wz5YxFxzU1zLijqFQHC7V8awy5HWgaecGDh/dDT7xivnvcG8igBbJVRJjAp8eIxpJc8JVxGAjMu0RKWVGlTZix+T3XUfPxA+J0u1zDejha2EItUfGWp3/YQP/9FZDSh3/TY93/puk1i+RUR7gz2b6zd/ZmlKWfbHqC+wZVbJrJL04y/0TCgl6E51WwCAsNqg/CBD/HWbVre8c9dIc1z7fLjape2WUWYQfwWuK+wseF+GmTr3mT+mRmPa7aKZPCPB3ejiItnNkJSmbW4QVJwp3ykf0P+rhZAZRZSvb3E6gwpS050Fq14Kjqz54UlAvGyaCqKmjV66EbCZ//6Uh3O6PlxfyokduG4ycSgmrRgxWOJx6gu3XFVv8PBKxa/KDohFYOfuTRJ1M4J7doIXG0xNw/kfkRjO581eV4CFL+XWqcWO3vP1MCU4HUMDWbWVGsIzREJl4BEkbX+FQp9So9CHIROC8BlgZy8LtgJS8L34cx3ChVjANVWGx0x3zHt/Sg/CLuMltoRko2ykTEhomT9HReOrsdYYIKIHzceFqCrUeKCz/aYsptwlyCmyfl0DBtUweRLUidyJtbZ652vs3nDi8syJXZGFN7QVf0E4bSGpRzFvDbLgyJZZESvXaXP3t2gZ63CIEU9VYG/an5DItWEg4CN6KEgDxIyRiK03/TjyrSijjw3IQq41zlmoqWVkv8IdAsy3RCthO0LkwILTJMI2h6VJMo/ATrkqwEcpYXA0IE6U2LYCCEysZFmTqpi2JNRnLuO7qzJjxWNdxKtTFVxzTe2/tAtU8qaAVNYy4hCK+w2mDhgimX68Yrkeb/K+ikXJRhrRxWJ0211YjoUxiw4c4X1MF1aT0Y3Ux1vXWXbm7VuMYnkp1f4YGX96Uf3S5xzX0pAtVMXrft+quUHVqybxYMMIr+Zz0d/QBo3qse0s7BSeD5K3q2SeBFTEmu36cxUX5IrE6jDH8mwTkqs2dAwzpO1xkQvfm7C3crWgf1amGtHyBze601c272wnnhCFnzh/1QyyGJt6N5FdQU2F9M4f2OKRqBLQYgYtTpiFfgAAymM6lkwqSuSvt/Ya8NdY06SSkjZ0G/A4GRp0UQM0cTLIQjyVatKvQCDfTkO3bXDqbxCQyvETPPUUP3/eYTKm00gvTOe8ImHX9X3/ANcFRA+fwsW9qO1mwrfzIQlzpD1CqrMmCVkSMOrN0KKGNzA8wgfU9Mp0K5wIx9urdj3LZQoTmRuhPyQFkfvspyUh6oYCmjad3TupajRyFfDl4l0fkfzM9nFc///10H/zf//+tQvBmjv+jjWUdoxEovm+2LOWJE58y3opVtVKkh3+Nmdrnn//g3JD8M6zgcSeosp4jhXwI+/FuJ+YSqhBzSeBym9wL7Ru+xtuNuBtr/8T9ee60J1FSwdsUFxjAjGIZGSMjx+a4NGW6zwNsxN9Gr+oYG2qGsfptVMJkXq+jHRvD15szNsM5qrEn/jKiXj46yhR8epmtTbchWNQrw8FUJjmYCE9MJi+bIzByK7Yu47hp4oTjWS8p+AzPlbdwpwKBtcf5x2LBYLnb2nya4HKwE6TUH+HPGkMZXfG1mjDgmc7Yg51DdAf/Y1pZ3hz4Zybnmdu8YHjz3tJFd7ZucFvq6//5cjmQc4bMmyoj+pqib4nz2Xs90jpKQ94KfBU7NYJLUYNFoxz8XAnwIQ+edaBzE1EjiZQnR+bwVFV8KpJ0Mj9V9oNswhtfh9HNBeNJV3rp0DDXITNva9nxsudajumTL9NvUHOZ+6Or81l1h1dCKLTTBPHECyZ5T2IG9z5pt+yjhQEIhhhdIjxaFNmKEcBm+tPWlYBJVWpHzhXUG7aJT3WivpXTXmC/MwBi9lfoVPUAreFysekqa1vxZk8cp73Rg6Kxp5dGZdhjCDQEFoVYzmF8OEEDexHu+c6tCvea7qzZ+wCxxYZzQBxZj6T5fUuNFi+EwzyRv95oHf5m9eyVWtwj//H2YEJOB1CmGUaapz/sWpblWTX0JfnKLZTELsWFpDjR6ZIs6eF/NF1Nbbwrj7t2eK2gXQwxT4YSYakOVJ2M1w/oVOguCG/U3BirvWk4bcDsNK2HzuKuAiHe7iQ0ymwqh4V2MOz/uJtQwapN6cZR6niW9qoWni03psa2iVT7X7z1ZONM/qP2VlRA12oRyHyHZXqDqpEy9lOac8x5k6RdGsmOesQ/gyDe2uk/R5DXE4UyP8xychTfr+Jok9b2UEVF0eogAS8yuZVAr8W2H0zxy8mnep7VsBbs7XwtIlD0QadugruyBqnKPPDkUPywts5uxAND6i/Kbhv6gUAXKAxcwbPB9rFYCFqNWdlKBecjudKuJBq8Jj8tYMvEdf6cXMvf4SYU3VxDuajYr8pB165aGty1tQA5itg8hJHeaPtz0TYpt3H2OXPv3eYearI8vm54tBp6YjHLuj0Kil5jvNwO1JLyioeU+1VgJ3AAAAAAAAAAAARVhJRroAAABFeGlmAABJSSoACAAAAAYAEgEDAAEAAAABAAAAGgEFAAEAAABWAAAAGwEFAAEAAABeAAAAKAEDAAEAAAACAAAAEwIDAAEAAAABAAAAaYcEAAEAAABmAAAAAAAAAEgAAAABAAAASAAAAAEAAAAGAACQBwAEAAAAMDIxMAGRBwAEAAAAAQIDAACgBwAEAAAAMDEwMAGgAwABAAAA//8AAAKgBAABAAAAAAEAAAOgBAABAAAAAAEAAAAAAAA=;container=0;" parent="J6oPv5elQKLaFBjouUGu-29" vertex="1">
          <mxGeometry x="155.93" y="37" width="44.07" height="44.07" as="geometry" />
        </mxCell>
        <mxCell id="J6oPv5elQKLaFBjouUGu-33" value="&lt;p style=&quot;line-height: 100%;&quot;&gt;&lt;font face=&quot;Helvetica&quot; style=&quot;font-size: 18px;&quot;&gt;Postgres DB&lt;/font&gt;&lt;/p&gt;" style="rounded=1;whiteSpace=wrap;html=1;fillColor=#dae8fc;strokeColor=#6c8ebf;container=0;" parent="J6oPv5elQKLaFBjouUGu-29" vertex="1">
          <mxGeometry x="22" y="147" width="156" height="60" as="geometry" />
        </mxCell>
        <mxCell id="J6oPv5elQKLaFBjouUGu-34" value="" style="shape=image;verticalLabelPosition=bottom;labelBackgroundColor=default;verticalAlign=top;aspect=fixed;imageAspect=0;image=data:image/png,UklGRpYVAABXRUJQVlA4WAoAAAAYAAAA/wAA/wAAQUxQSGkJAAABwIZtm2lLkt6IWOls27Zt27Zt27ZtlW3bysyasu1qd2cWzoqI9/mRp87ZWHutcUbEBGiT/zf5f5MZ45jD0El61RnHrBnjcf+x7/KB0+ijjPmfqwbP+5krY8xctnLwfIBsRl+5YpP//gfcBwdauM6lg22h754JQXFGfHG/XXabzF13336LLefd6vdrqd0XJMXZcBhTacbZEY0edtLjFMMs2Iu5PPkVu+OSbnUB7VukOAP2odCxnRC0bA3XwvelNMyk7WmphT1XKQ2xpI/T2rjlhFurGV5R989UbGi54G5qBlfQPmQMNi2X30vNwEp6DsU2YNNy2V2VhlXQQRTMxjYt591CaUhFPRrbzG/TsmaZwoBK+jl5Adi0bKcu7x9afRHVLNB25jNKgynpmVQvCGPzZKXh9B1as3BTOO/6CgNJOpLCYk3LLxWHUdDN/429KLvyRKVBFPVkbBZtCseqq/tGo3eRR4CdeaPSEEr6Di2joHDqEg2hoK3JHgF25rVKA0g6mDIaCoerm3tHOoHCSG3zSMUBtOwc6qgy31WantSMXPt20g3CkmbUE7DiklFB5YxGXbw7uXsu0zSvvGxkNn6o4rQs+fS3vj7ab3zja+dSu8as/+aXvjLaL3/1izcd34qLR4YzH1IjhZiaFEMIIaYmxTAZq+YYo+lcM857K4xr2dmjI7OZliaNMDZhfCsvZq4ddcVdY9yOeq5suMf44jrKqFw4XlK8+WNf+4nv/X7bnXfZ4U8/+dxbnnzbRpJSGNflVHqgmZsA7UvxqMxfH/rG3x3/bxZ59Sl/euc9JMU4DKJ+T2bUxi0bl7bN87ZtMcDckR+9gxTjEGj0JVqPCkNpi21jA8a2a87A+s0eJqXQ/5JeQxmZsY3NIm3skoGt7y2l3hf1wIo9ojHa2Nm0372Rep+08kLqxAE2znDJu/pf0PZkptLG13Jw/2v0frI9DWDbD+5/QfeYY0pMZhv1P0kHU5hG29QHDoGkt5HtaaDlt0oDIOiGl1LtiTOVf9xOYQAo6Uu0TJxN5j1KGgJBN7uSiifLpmUvjbFfKemD5AmzyVx2S8WBIGktmUm2KfixShoKS3Xnf1InyKbAK9RoICRJL7tikmwyvFFJgyAmSc87DCqTakMLr1TSAIhJ0vXecAyUiifEpmaufLyS+l5ooiQ97DsXQSnGk2HjFva/jRqNNWhVf7in4qJCjE3Sxksf8fnjgFKMzSTadjYbPiwljXtlf7iHwqLmX3H/t/3ubIBcjc0E2nbNwJZ3lqLGHLSqP9xdiwxLVtzs/s985/f2vrgA5GJjxm9j11yg7vRIKWnBT193xFEjPPKYOdwP6rEHHbLAgw854tjTLl2fmbfkamPGbGPbNWcDl/74AVKMWvjHGLXphWa0zm2pNjYjNy7z5ty2xWx88WYvu4EUoxb7ea4pIzXuA8Zl0bXaNjZjNWbhV5+546eesFpSilr8b8gMT5t6wL6HHX7w/rv86UefftNTbrdEkmLSSPekeHhQOESLDE3UqA+mMDjtwuuUNgoxNSkGjfMM6vCgcsFqhY0m8a94cNiZLytpUq8ZJGy4k8LElOFhZ36vqIn1EIGHDDmT2U1RA86VJw05k9lfQRNcBocrz1CapGsGhskcoKBJ/tvQcOWpShN1KnVImMweCprogykeEjaPVJys3QeFyWyuqMn+ES2D0TZX323iPkXr4UDLN5Q04a+mDgZTuegGCpP2WBgOzrxRSZN+iw2DwWQO0hQ2p1M9CGxTH6w4edqBzDCg5RtKmsIv0HoImMIZyxWm4YXUIWC78jQlTeNtr8IeALT8VEnTuYbS/0zhrFUKU5H0Q9reZ2yeqKQpeRHV7nc2LV9X0nQG3fzv9D4yR2p6g3Yh0+tN5d93U5yaRu8g2z3OuPJKNZraoNuvp8/ZtPxQSVMctCuZ3m7TcqgUpinp1RS7t1G47FaKmu7rXUzta6ZSH62k6U76PtnuZcaVN6rRlEfdO9PPjDNfVtLUR+1Ixv3LpuVP6sKox2H3L5uWfaTQAQrak4x7lk3LmhWK6sKoJ1Hds2xaTr+JkroxaD8y7lM2LeffVkkdmfRkqu3+ZNNyyZ3UqDOj/kRLf7JpueSuatSdQbf6GxX3JJuWC++iRl3a6F1k7F5kaDnr9mrUrUH7kulFxi0n3EKNOjbqzuupuPfYOHPwaiV1btKbybZ7jk0tbBeV1MFRW9Bi9xqbAt+Toro4aPUZZHqNTYb3SFHdnPSAOSruLTZu+fszFIO6utFrqcY9xaZmjr+zGnV40pfJxr3EJsMfl6pRx29Bi90/bNyS3yUldXuQ9qPF7hs2pXLqgxSDuj5qxXG02L3Cxi38YrkazcCkGxxPi90jbErhshdJSTMx6UYn0IL7go1b2OpmSkEzMukGx9Ia9wIbirn4ZVLS7ExacSDZ2LPPpmb4+Y0Ug2ZpkragVuwZZ+MWjn2clDRjo/Q1yNizzMYZrniXlIJmbpBe09Iae1bZOJtrv3dTKWkmJz3oDHLFnkk2zoYt7yklzepGq7aE1tgzx7azYZdHSClodifpTf8mV+zZYuwM7PF4KUbN9BB1572gNfbMsHHNULd/tBSjZn4jveUvOBt7Jhg7F/j3rx4ghag+GINu/isoxdhdZ9s1A+d87vZSjOqLSXrUflCKsTvMxjVXKPu9coWUonpkSNIL10Aptt1NNnYuwDnfvL+kFNQzY5BesQacbeyuMXbNBfjr5s9fIYWkPpokPf8AIBcbd4eNXdoK/H3H199MUorqq0nSw3/7TyAXG3eAjV1zAbh0i9feUlJM6rUpSLd69zEAudjY02Nju7QFYG7td595fUkhBfXeGCU96KsnA5S22tgTZ2O75myAfOYf3np3SYopqB+HJCk+7ItHXA1Q2lJtY0+CjW3X3Bbm3bDmF2+57xJJSkm9OiZJusMbf3XqHBvXNpfq61yU8fy1ltzmyvzrT9jiE8+6TZCk2AT18JgkKd3t1d/f//LC/C5tm3PZuNZaSykl59y2uVRz3fmfJ+/0nbc94ZZRG6cU1N9Ditp45QNf/pnNDrpoQ2Ws+eorT95/s2++94UPuFHSvLGJQf0/pKT5l9/0Yc986ye/8qvt9tj7wDUnnHLaKScdf9QB++yy2S+/96UPv/WlT3rgbVY1us6Qmhg0JGNqohYeU7OkaZIWH5smxaChGmJMTRODFh5iTE2TUoxBm/y/yf//r3kAVlA4IEQLAABQQwCdASoAAQABPm0wlUikP6ShJ3BKw/ANiWNu8p8dlOAP5AsgD8AP0ATmFAP73tFQQ+g5snkbwvzV55u0DN9/qv+N7VfzJ7AH6j9N/zB/sP+4XvPf739mfcn/kPUA/tH9560b9t/YT8t/2a/8Z/2PTOzX7/AdxfJgzP29/ZfLeiFclb8zZezyfftbwcuDbZL26ZMd42yXt0yY7xtkvbpSo8pOrXumTHeNslyj9pbCYnQeAdOp4C7kBi4SWt8AWur8DTGpowFZhjZq8f2Mt2eUU6AJjXg3WKLWC/nrVqLOKH7LubzSLGnwIUWLO/QxoH6d77Yr9SYUv2hyVVU5JqCTR5jhsZqxzn2w6zxowwUB6XoinFm30MVd7E2BpcuPJIZOrBFTtBlfpl+cI+0to1ftmye5EYDVQ+OEkNJJ4bW4jBjfGNnZfo1joaw4HTfwXCOfZAmrIt6DHWuSrRaF6Ky9Tou9pTKd7jbcTCZNMy4PsaWwbMuLh1G5ubm5tIsX2cP5TLYvHS5TyWYw6NXqf2TIsA7dIm6Ex/VeU2oBsaSkY6C39FDg0jk+kTGhPEXJ+umXCG6RhZwPqa0RnB2Jh6lVVyjK29i573xIMEDPqjvKcKxD/e2Lf+vRGqVxIXvME5KVrnDfS8JX1J8mjm33hbmsoL4Uq2gfr2B/Qthz3/RH9HUQTi0Lj4Zz7F2kRuiXdlAuIxumTakn+3xtkvbpkx3jbIoAAP6mqgAAAAE1ZzMMe/PPIyCnPQAi/Hpgk1fgyDGunI5z1TI71N/Q3Pq9ZagpyngKx6awMltCOC4owPa1yGYJjBoTCNnZAxBJdJFJM80or2WF9CRTJJnCWhU/GiYC54Sls2PXMfhfBvaeKCS9MJGKkC2LySaBN/gtRfoI0p183ffYW9swdtiy1/4X96oO62WebQj9Eyu5hFftzNQGoX5mXV50q1nRnfnVo8BPnxNjnf1tdpGsz7F2mS9RLOv4gOj1xWyAA9iyGhvC0Ugjkhzj+QvVN4Bp80kEqnvya3kcC5TqUPdB/vkm/SO8QUBJ7UOiVWIViCOpYDIHb8NE2sBH7BRcvFY6PlStp1JYoxM9YhM7TlWh4KpyPtOBevDG3xOXv4ov9+uJ80RikRTnsnKRQ/PpQDb1Qyeo6esZNjlEHIMfQyX585grPCnMIp54CgBgV7urynZaNDv7m8klCl4apDPv5bGfxh/Bt4bt/U6FfUrLNnSQnJwOjR0Kk6iKuSc+3xuBar7GZjx0tEuA2xoftIBxgxNhgcW1vVC2PcPFEhOxPohlRiwjpQF7pwIWVxACIotjXp3/3iTo/w0AO60U05/14ph2dGp5cUWERLkZHo8hNfMSAQenKqem+BsKXWvQtlqg1wz5YxFxzU1zLijqFQHC7V8awy5HWgaecGDh/dDT7xivnvcG8igBbJVRJjAp8eIxpJc8JVxGAjMu0RKWVGlTZix+T3XUfPxA+J0u1zDejha2EItUfGWp3/YQP/9FZDSh3/TY93/puk1i+RUR7gz2b6zd/ZmlKWfbHqC+wZVbJrJL04y/0TCgl6E51WwCAsNqg/CBD/HWbVre8c9dIc1z7fLjape2WUWYQfwWuK+wseF+GmTr3mT+mRmPa7aKZPCPB3ejiItnNkJSmbW4QVJwp3ykf0P+rhZAZRZSvb3E6gwpS050Fq14Kjqz54UlAvGyaCqKmjV66EbCZ//6Uh3O6PlxfyokduG4ycSgmrRgxWOJx6gu3XFVv8PBKxa/KDohFYOfuTRJ1M4J7doIXG0xNw/kfkRjO581eV4CFL+XWqcWO3vP1MCU4HUMDWbWVGsIzREJl4BEkbX+FQp9So9CHIROC8BlgZy8LtgJS8L34cx3ChVjANVWGx0x3zHt/Sg/CLuMltoRko2ykTEhomT9HReOrsdYYIKIHzceFqCrUeKCz/aYsptwlyCmyfl0DBtUweRLUidyJtbZ652vs3nDi8syJXZGFN7QVf0E4bSGpRzFvDbLgyJZZESvXaXP3t2gZ63CIEU9VYG/an5DItWEg4CN6KEgDxIyRiK03/TjyrSijjw3IQq41zlmoqWVkv8IdAsy3RCthO0LkwILTJMI2h6VJMo/ATrkqwEcpYXA0IE6U2LYCCEysZFmTqpi2JNRnLuO7qzJjxWNdxKtTFVxzTe2/tAtU8qaAVNYy4hCK+w2mDhgimX68Yrkeb/K+ikXJRhrRxWJ0211YjoUxiw4c4X1MF1aT0Y3Ux1vXWXbm7VuMYnkp1f4YGX96Uf3S5xzX0pAtVMXrft+quUHVqybxYMMIr+Zz0d/QBo3qse0s7BSeD5K3q2SeBFTEmu36cxUX5IrE6jDH8mwTkqs2dAwzpO1xkQvfm7C3crWgf1amGtHyBze601c272wnnhCFnzh/1QyyGJt6N5FdQU2F9M4f2OKRqBLQYgYtTpiFfgAAymM6lkwqSuSvt/Ya8NdY06SSkjZ0G/A4GRp0UQM0cTLIQjyVatKvQCDfTkO3bXDqbxCQyvETPPUUP3/eYTKm00gvTOe8ImHX9X3/ANcFRA+fwsW9qO1mwrfzIQlzpD1CqrMmCVkSMOrN0KKGNzA8wgfU9Mp0K5wIx9urdj3LZQoTmRuhPyQFkfvspyUh6oYCmjad3TupajRyFfDl4l0fkfzM9nFc///10H/zf//+tQvBmjv+jjWUdoxEovm+2LOWJE58y3opVtVKkh3+Nmdrnn//g3JD8M6zgcSeosp4jhXwI+/FuJ+YSqhBzSeBym9wL7Ru+xtuNuBtr/8T9ee60J1FSwdsUFxjAjGIZGSMjx+a4NGW6zwNsxN9Gr+oYG2qGsfptVMJkXq+jHRvD15szNsM5qrEn/jKiXj46yhR8epmtTbchWNQrw8FUJjmYCE9MJi+bIzByK7Yu47hp4oTjWS8p+AzPlbdwpwKBtcf5x2LBYLnb2nya4HKwE6TUH+HPGkMZXfG1mjDgmc7Yg51DdAf/Y1pZ3hz4Zybnmdu8YHjz3tJFd7ZucFvq6//5cjmQc4bMmyoj+pqib4nz2Xs90jpKQ94KfBU7NYJLUYNFoxz8XAnwIQ+edaBzE1EjiZQnR+bwVFV8KpJ0Mj9V9oNswhtfh9HNBeNJV3rp0DDXITNva9nxsudajumTL9NvUHOZ+6Or81l1h1dCKLTTBPHECyZ5T2IG9z5pt+yjhQEIhhhdIjxaFNmKEcBm+tPWlYBJVWpHzhXUG7aJT3WivpXTXmC/MwBi9lfoVPUAreFysekqa1vxZk8cp73Rg6Kxp5dGZdhjCDQEFoVYzmF8OEEDexHu+c6tCvea7qzZ+wCxxYZzQBxZj6T5fUuNFi+EwzyRv95oHf5m9eyVWtwj//H2YEJOB1CmGUaapz/sWpblWTX0JfnKLZTELsWFpDjR6ZIs6eF/NF1Nbbwrj7t2eK2gXQwxT4YSYakOVJ2M1w/oVOguCG/U3BirvWk4bcDsNK2HzuKuAiHe7iQ0ymwqh4V2MOz/uJtQwapN6cZR6niW9qoWni03psa2iVT7X7z1ZONM/qP2VlRA12oRyHyHZXqDqpEy9lOac8x5k6RdGsmOesQ/gyDe2uk/R5DXE4UyP8xychTfr+Jok9b2UEVF0eogAS8yuZVAr8W2H0zxy8mnep7VsBbs7XwtIlD0QadugruyBqnKPPDkUPywts5uxAND6i/Kbhv6gUAXKAxcwbPB9rFYCFqNWdlKBecjudKuJBq8Jj8tYMvEdf6cXMvf4SYU3VxDuajYr8pB165aGty1tQA5itg8hJHeaPtz0TYpt3H2OXPv3eYearI8vm54tBp6YjHLuj0Kil5jvNwO1JLyioeU+1VgJ3AAAAAAAAAAAARVhJRroAAABFeGlmAABJSSoACAAAAAYAEgEDAAEAAAABAAAAGgEFAAEAAABWAAAAGwEFAAEAAABeAAAAKAEDAAEAAAACAAAAEwIDAAEAAAABAAAAaYcEAAEAAABmAAAAAAAAAEgAAAABAAAASAAAAAEAAAAGAACQBwAEAAAAMDIxMAGRBwAEAAAAAQIDAACgBwAEAAAAMDEwMAGgAwABAAAA//8AAAKgBAABAAAAAAEAAAOgBAABAAAAAAEAAAAAAAA=;container=0;" parent="J6oPv5elQKLaFBjouUGu-29" vertex="1">
          <mxGeometry x="155.92999999999995" y="127" width="44.07" height="44.07" as="geometry" />
        </mxCell>
        <mxCell id="J6oPv5elQKLaFBjouUGu-35" value="" style="endArrow=classic;startArrow=classic;html=1;rounded=0;entryX=0.5;entryY=1;entryDx=0;entryDy=0;" parent="J6oPv5elQKLaFBjouUGu-29" source="J6oPv5elQKLaFBjouUGu-33" target="J6oPv5elQKLaFBjouUGu-31" edge="1">
          <mxGeometry width="50" height="50" relative="1" as="geometry">
            <mxPoint x="190" y="107" as="sourcePoint" />
            <mxPoint x="240" y="57" as="targetPoint" />
          </mxGeometry>
        </mxCell>
        <mxCell id="J6oPv5elQKLaFBjouUGu-36" value="&lt;font style=&quot;font-size: 18px;&quot;&gt;Carts&lt;/font&gt;" style="text;html=1;align=center;verticalAlign=middle;resizable=0;points=[];autosize=1;strokeColor=none;fillColor=none;" parent="J6oPv5elQKLaFBjouUGu-29" vertex="1">
          <mxGeometry x="65" width="70" height="40" as="geometry" />
        </mxCell>
        <mxCell id="J6oPv5elQKLaFBjouUGu-37" value="" style="group" parent="1" vertex="1" connectable="0">
          <mxGeometry x="540" y="510" width="200" height="227" as="geometry" />
        </mxCell>
        <mxCell id="J6oPv5elQKLaFBjouUGu-38" value="" style="rounded=1;whiteSpace=wrap;html=1;fillColor=#ffe6cc;strokeColor=#d79b00;container=0;" parent="J6oPv5elQKLaFBjouUGu-37" vertex="1">
          <mxGeometry y="37" width="200" height="190" as="geometry" />
        </mxCell>
        <mxCell id="J6oPv5elQKLaFBjouUGu-39" value="&lt;p style=&quot;line-height: 100%;&quot;&gt;&lt;font face=&quot;Helvetica&quot; style=&quot;font-size: 18px;&quot;&gt;Node.js App&lt;/font&gt;&lt;/p&gt;" style="rounded=1;whiteSpace=wrap;html=1;fillColor=#dae8fc;strokeColor=#6c8ebf;movable=1;resizable=1;rotatable=1;deletable=1;editable=1;locked=0;connectable=1;container=0;" parent="J6oPv5elQKLaFBjouUGu-37" vertex="1">
          <mxGeometry x="22" y="57" width="156" height="60" as="geometry" />
        </mxCell>
        <mxCell id="J6oPv5elQKLaFBjouUGu-40" value="" style="shape=image;verticalLabelPosition=bottom;labelBackgroundColor=default;verticalAlign=top;aspect=fixed;imageAspect=0;image=data:image/png,UklGRpYVAABXRUJQVlA4WAoAAAAYAAAA/wAA/wAAQUxQSGkJAAABwIZtm2lLkt6IWOls27Zt27Zt27ZtlW3bysyasu1qd2cWzoqI9/mRp87ZWHutcUbEBGiT/zf5f5MZ45jD0El61RnHrBnjcf+x7/KB0+ijjPmfqwbP+5krY8xctnLwfIBsRl+5YpP//gfcBwdauM6lg22h754JQXFGfHG/XXabzF13336LLefd6vdrqd0XJMXZcBhTacbZEY0edtLjFMMs2Iu5PPkVu+OSbnUB7VukOAP2odCxnRC0bA3XwvelNMyk7WmphT1XKQ2xpI/T2rjlhFurGV5R989UbGi54G5qBlfQPmQMNi2X30vNwEp6DsU2YNNy2V2VhlXQQRTMxjYt591CaUhFPRrbzG/TsmaZwoBK+jl5Adi0bKcu7x9afRHVLNB25jNKgynpmVQvCGPzZKXh9B1as3BTOO/6CgNJOpLCYk3LLxWHUdDN/429KLvyRKVBFPVkbBZtCseqq/tGo3eRR4CdeaPSEEr6Di2joHDqEg2hoK3JHgF25rVKA0g6mDIaCoerm3tHOoHCSG3zSMUBtOwc6qgy31WantSMXPt20g3CkmbUE7DiklFB5YxGXbw7uXsu0zSvvGxkNn6o4rQs+fS3vj7ab3zja+dSu8as/+aXvjLaL3/1izcd34qLR4YzH1IjhZiaFEMIIaYmxTAZq+YYo+lcM857K4xr2dmjI7OZliaNMDZhfCsvZq4ddcVdY9yOeq5suMf44jrKqFw4XlK8+WNf+4nv/X7bnXfZ4U8/+dxbnnzbRpJSGNflVHqgmZsA7UvxqMxfH/rG3x3/bxZ59Sl/euc9JMU4DKJ+T2bUxi0bl7bN87ZtMcDckR+9gxTjEGj0JVqPCkNpi21jA8a2a87A+s0eJqXQ/5JeQxmZsY3NIm3skoGt7y2l3hf1wIo9ojHa2Nm0372Rep+08kLqxAE2znDJu/pf0PZkptLG13Jw/2v0frI9DWDbD+5/QfeYY0pMZhv1P0kHU5hG29QHDoGkt5HtaaDlt0oDIOiGl1LtiTOVf9xOYQAo6Uu0TJxN5j1KGgJBN7uSiifLpmUvjbFfKemD5AmzyVx2S8WBIGktmUm2KfixShoKS3Xnf1InyKbAK9RoICRJL7tikmwyvFFJgyAmSc87DCqTakMLr1TSAIhJ0vXecAyUiifEpmaufLyS+l5ooiQ97DsXQSnGk2HjFva/jRqNNWhVf7in4qJCjE3Sxksf8fnjgFKMzSTadjYbPiwljXtlf7iHwqLmX3H/t/3ubIBcjc0E2nbNwJZ3lqLGHLSqP9xdiwxLVtzs/s985/f2vrgA5GJjxm9j11yg7vRIKWnBT193xFEjPPKYOdwP6rEHHbLAgw854tjTLl2fmbfkamPGbGPbNWcDl/74AVKMWvjHGLXphWa0zm2pNjYjNy7z5ty2xWx88WYvu4EUoxb7ea4pIzXuA8Zl0bXaNjZjNWbhV5+546eesFpSilr8b8gMT5t6wL6HHX7w/rv86UefftNTbrdEkmLSSPekeHhQOESLDE3UqA+mMDjtwuuUNgoxNSkGjfMM6vCgcsFqhY0m8a94cNiZLytpUq8ZJGy4k8LElOFhZ36vqIn1EIGHDDmT2U1RA86VJw05k9lfQRNcBocrz1CapGsGhskcoKBJ/tvQcOWpShN1KnVImMweCprogykeEjaPVJys3QeFyWyuqMn+ES2D0TZX323iPkXr4UDLN5Q04a+mDgZTuegGCpP2WBgOzrxRSZN+iw2DwWQO0hQ2p1M9CGxTH6w4edqBzDCg5RtKmsIv0HoImMIZyxWm4YXUIWC78jQlTeNtr8IeALT8VEnTuYbS/0zhrFUKU5H0Q9reZ2yeqKQpeRHV7nc2LV9X0nQG3fzv9D4yR2p6g3Yh0+tN5d93U5yaRu8g2z3OuPJKNZraoNuvp8/ZtPxQSVMctCuZ3m7TcqgUpinp1RS7t1G47FaKmu7rXUzta6ZSH62k6U76PtnuZcaVN6rRlEfdO9PPjDNfVtLUR+1Ixv3LpuVP6sKox2H3L5uWfaTQAQrak4x7lk3LmhWK6sKoJ1Hds2xaTr+JkroxaD8y7lM2LeffVkkdmfRkqu3+ZNNyyZ3UqDOj/kRLf7JpueSuatSdQbf6GxX3JJuWC++iRl3a6F1k7F5kaDnr9mrUrUH7kulFxi0n3EKNOjbqzuupuPfYOHPwaiV1btKbybZ7jk0tbBeV1MFRW9Bi9xqbAt+Toro4aPUZZHqNTYb3SFHdnPSAOSruLTZu+fszFIO6utFrqcY9xaZmjr+zGnV40pfJxr3EJsMfl6pRx29Bi90/bNyS3yUldXuQ9qPF7hs2pXLqgxSDuj5qxXG02L3Cxi38YrkazcCkGxxPi90jbErhshdJSTMx6UYn0IL7go1b2OpmSkEzMukGx9Ia9wIbirn4ZVLS7ExacSDZ2LPPpmb4+Y0Ug2ZpkragVuwZZ+MWjn2clDRjo/Q1yNizzMYZrniXlIJmbpBe09Iae1bZOJtrv3dTKWkmJz3oDHLFnkk2zoYt7yklzepGq7aE1tgzx7azYZdHSClodifpTf8mV+zZYuwM7PF4KUbN9BB1572gNfbMsHHNULd/tBSjZn4jveUvOBt7Jhg7F/j3rx4ghag+GINu/isoxdhdZ9s1A+d87vZSjOqLSXrUflCKsTvMxjVXKPu9coWUonpkSNIL10Aptt1NNnYuwDnfvL+kFNQzY5BesQacbeyuMXbNBfjr5s9fIYWkPpokPf8AIBcbd4eNXdoK/H3H199MUorqq0nSw3/7TyAXG3eAjV1zAbh0i9feUlJM6rUpSLd69zEAudjY02Nju7QFYG7td595fUkhBfXeGCU96KsnA5S22tgTZ2O75myAfOYf3np3SYopqB+HJCk+7ItHXA1Q2lJtY0+CjW3X3Bbm3bDmF2+57xJJSkm9OiZJusMbf3XqHBvXNpfq61yU8fy1ltzmyvzrT9jiE8+6TZCk2AT18JgkKd3t1d/f//LC/C5tm3PZuNZaSykl59y2uVRz3fmfJ+/0nbc94ZZRG6cU1N9Ditp45QNf/pnNDrpoQ2Ws+eorT95/s2++94UPuFHSvLGJQf0/pKT5l9/0Yc986ye/8qvt9tj7wDUnnHLaKScdf9QB++yy2S+/96UPv/WlT3rgbVY1us6Qmhg0JGNqohYeU7OkaZIWH5smxaChGmJMTRODFh5iTE2TUoxBm/y/yf//r3kAVlA4IEQLAABQQwCdASoAAQABPm0wlUikP6ShJ3BKw/ANiWNu8p8dlOAP5AsgD8AP0ATmFAP73tFQQ+g5snkbwvzV55u0DN9/qv+N7VfzJ7AH6j9N/zB/sP+4XvPf739mfcn/kPUA/tH9560b9t/YT8t/2a/8Z/2PTOzX7/AdxfJgzP29/ZfLeiFclb8zZezyfftbwcuDbZL26ZMd42yXt0yY7xtkvbpSo8pOrXumTHeNslyj9pbCYnQeAdOp4C7kBi4SWt8AWur8DTGpowFZhjZq8f2Mt2eUU6AJjXg3WKLWC/nrVqLOKH7LubzSLGnwIUWLO/QxoH6d77Yr9SYUv2hyVVU5JqCTR5jhsZqxzn2w6zxowwUB6XoinFm30MVd7E2BpcuPJIZOrBFTtBlfpl+cI+0to1ftmye5EYDVQ+OEkNJJ4bW4jBjfGNnZfo1joaw4HTfwXCOfZAmrIt6DHWuSrRaF6Ky9Tou9pTKd7jbcTCZNMy4PsaWwbMuLh1G5ubm5tIsX2cP5TLYvHS5TyWYw6NXqf2TIsA7dIm6Ex/VeU2oBsaSkY6C39FDg0jk+kTGhPEXJ+umXCG6RhZwPqa0RnB2Jh6lVVyjK29i573xIMEDPqjvKcKxD/e2Lf+vRGqVxIXvME5KVrnDfS8JX1J8mjm33hbmsoL4Uq2gfr2B/Qthz3/RH9HUQTi0Lj4Zz7F2kRuiXdlAuIxumTakn+3xtkvbpkx3jbIoAAP6mqgAAAAE1ZzMMe/PPIyCnPQAi/Hpgk1fgyDGunI5z1TI71N/Q3Pq9ZagpyngKx6awMltCOC4owPa1yGYJjBoTCNnZAxBJdJFJM80or2WF9CRTJJnCWhU/GiYC54Sls2PXMfhfBvaeKCS9MJGKkC2LySaBN/gtRfoI0p183ffYW9swdtiy1/4X96oO62WebQj9Eyu5hFftzNQGoX5mXV50q1nRnfnVo8BPnxNjnf1tdpGsz7F2mS9RLOv4gOj1xWyAA9iyGhvC0Ugjkhzj+QvVN4Bp80kEqnvya3kcC5TqUPdB/vkm/SO8QUBJ7UOiVWIViCOpYDIHb8NE2sBH7BRcvFY6PlStp1JYoxM9YhM7TlWh4KpyPtOBevDG3xOXv4ov9+uJ80RikRTnsnKRQ/PpQDb1Qyeo6esZNjlEHIMfQyX585grPCnMIp54CgBgV7urynZaNDv7m8klCl4apDPv5bGfxh/Bt4bt/U6FfUrLNnSQnJwOjR0Kk6iKuSc+3xuBar7GZjx0tEuA2xoftIBxgxNhgcW1vVC2PcPFEhOxPohlRiwjpQF7pwIWVxACIotjXp3/3iTo/w0AO60U05/14ph2dGp5cUWERLkZHo8hNfMSAQenKqem+BsKXWvQtlqg1wz5YxFxzU1zLijqFQHC7V8awy5HWgaecGDh/dDT7xivnvcG8igBbJVRJjAp8eIxpJc8JVxGAjMu0RKWVGlTZix+T3XUfPxA+J0u1zDejha2EItUfGWp3/YQP/9FZDSh3/TY93/puk1i+RUR7gz2b6zd/ZmlKWfbHqC+wZVbJrJL04y/0TCgl6E51WwCAsNqg/CBD/HWbVre8c9dIc1z7fLjape2WUWYQfwWuK+wseF+GmTr3mT+mRmPa7aKZPCPB3ejiItnNkJSmbW4QVJwp3ykf0P+rhZAZRZSvb3E6gwpS050Fq14Kjqz54UlAvGyaCqKmjV66EbCZ//6Uh3O6PlxfyokduG4ycSgmrRgxWOJx6gu3XFVv8PBKxa/KDohFYOfuTRJ1M4J7doIXG0xNw/kfkRjO581eV4CFL+XWqcWO3vP1MCU4HUMDWbWVGsIzREJl4BEkbX+FQp9So9CHIROC8BlgZy8LtgJS8L34cx3ChVjANVWGx0x3zHt/Sg/CLuMltoRko2ykTEhomT9HReOrsdYYIKIHzceFqCrUeKCz/aYsptwlyCmyfl0DBtUweRLUidyJtbZ652vs3nDi8syJXZGFN7QVf0E4bSGpRzFvDbLgyJZZESvXaXP3t2gZ63CIEU9VYG/an5DItWEg4CN6KEgDxIyRiK03/TjyrSijjw3IQq41zlmoqWVkv8IdAsy3RCthO0LkwILTJMI2h6VJMo/ATrkqwEcpYXA0IE6U2LYCCEysZFmTqpi2JNRnLuO7qzJjxWNdxKtTFVxzTe2/tAtU8qaAVNYy4hCK+w2mDhgimX68Yrkeb/K+ikXJRhrRxWJ0211YjoUxiw4c4X1MF1aT0Y3Ux1vXWXbm7VuMYnkp1f4YGX96Uf3S5xzX0pAtVMXrft+quUHVqybxYMMIr+Zz0d/QBo3qse0s7BSeD5K3q2SeBFTEmu36cxUX5IrE6jDH8mwTkqs2dAwzpO1xkQvfm7C3crWgf1amGtHyBze601c272wnnhCFnzh/1QyyGJt6N5FdQU2F9M4f2OKRqBLQYgYtTpiFfgAAymM6lkwqSuSvt/Ya8NdY06SSkjZ0G/A4GRp0UQM0cTLIQjyVatKvQCDfTkO3bXDqbxCQyvETPPUUP3/eYTKm00gvTOe8ImHX9X3/ANcFRA+fwsW9qO1mwrfzIQlzpD1CqrMmCVkSMOrN0KKGNzA8wgfU9Mp0K5wIx9urdj3LZQoTmRuhPyQFkfvspyUh6oYCmjad3TupajRyFfDl4l0fkfzM9nFc///10H/zf//+tQvBmjv+jjWUdoxEovm+2LOWJE58y3opVtVKkh3+Nmdrnn//g3JD8M6zgcSeosp4jhXwI+/FuJ+YSqhBzSeBym9wL7Ru+xtuNuBtr/8T9ee60J1FSwdsUFxjAjGIZGSMjx+a4NGW6zwNsxN9Gr+oYG2qGsfptVMJkXq+jHRvD15szNsM5qrEn/jKiXj46yhR8epmtTbchWNQrw8FUJjmYCE9MJi+bIzByK7Yu47hp4oTjWS8p+AzPlbdwpwKBtcf5x2LBYLnb2nya4HKwE6TUH+HPGkMZXfG1mjDgmc7Yg51DdAf/Y1pZ3hz4Zybnmdu8YHjz3tJFd7ZucFvq6//5cjmQc4bMmyoj+pqib4nz2Xs90jpKQ94KfBU7NYJLUYNFoxz8XAnwIQ+edaBzE1EjiZQnR+bwVFV8KpJ0Mj9V9oNswhtfh9HNBeNJV3rp0DDXITNva9nxsudajumTL9NvUHOZ+6Or81l1h1dCKLTTBPHECyZ5T2IG9z5pt+yjhQEIhhhdIjxaFNmKEcBm+tPWlYBJVWpHzhXUG7aJT3WivpXTXmC/MwBi9lfoVPUAreFysekqa1vxZk8cp73Rg6Kxp5dGZdhjCDQEFoVYzmF8OEEDexHu+c6tCvea7qzZ+wCxxYZzQBxZj6T5fUuNFi+EwzyRv95oHf5m9eyVWtwj//H2YEJOB1CmGUaapz/sWpblWTX0JfnKLZTELsWFpDjR6ZIs6eF/NF1Nbbwrj7t2eK2gXQwxT4YSYakOVJ2M1w/oVOguCG/U3BirvWk4bcDsNK2HzuKuAiHe7iQ0ymwqh4V2MOz/uJtQwapN6cZR6niW9qoWni03psa2iVT7X7z1ZONM/qP2VlRA12oRyHyHZXqDqpEy9lOac8x5k6RdGsmOesQ/gyDe2uk/R5DXE4UyP8xychTfr+Jok9b2UEVF0eogAS8yuZVAr8W2H0zxy8mnep7VsBbs7XwtIlD0QadugruyBqnKPPDkUPywts5uxAND6i/Kbhv6gUAXKAxcwbPB9rFYCFqNWdlKBecjudKuJBq8Jj8tYMvEdf6cXMvf4SYU3VxDuajYr8pB165aGty1tQA5itg8hJHeaPtz0TYpt3H2OXPv3eYearI8vm54tBp6YjHLuj0Kil5jvNwO1JLyioeU+1VgJ3AAAAAAAAAAAARVhJRroAAABFeGlmAABJSSoACAAAAAYAEgEDAAEAAAABAAAAGgEFAAEAAABWAAAAGwEFAAEAAABeAAAAKAEDAAEAAAACAAAAEwIDAAEAAAABAAAAaYcEAAEAAABmAAAAAAAAAEgAAAABAAAASAAAAAEAAAAGAACQBwAEAAAAMDIxMAGRBwAEAAAAAQIDAACgBwAEAAAAMDEwMAGgAwABAAAA//8AAAKgBAABAAAAAAEAAAOgBAABAAAAAAEAAAAAAAA=;container=0;" parent="J6oPv5elQKLaFBjouUGu-37" vertex="1">
          <mxGeometry x="155.93" y="37" width="44.07" height="44.07" as="geometry" />
        </mxCell>
        <mxCell id="J6oPv5elQKLaFBjouUGu-41" value="&lt;p style=&quot;line-height: 100%;&quot;&gt;&lt;font face=&quot;Helvetica&quot; style=&quot;font-size: 18px;&quot;&gt;MongoDB&lt;/font&gt;&lt;/p&gt;" style="rounded=1;whiteSpace=wrap;html=1;fillColor=#dae8fc;strokeColor=#6c8ebf;container=0;" parent="J6oPv5elQKLaFBjouUGu-37" vertex="1">
          <mxGeometry x="22" y="147" width="156" height="60" as="geometry" />
        </mxCell>
        <mxCell id="J6oPv5elQKLaFBjouUGu-42" value="" style="shape=image;verticalLabelPosition=bottom;labelBackgroundColor=default;verticalAlign=top;aspect=fixed;imageAspect=0;image=data:image/png,UklGRpYVAABXRUJQVlA4WAoAAAAYAAAA/wAA/wAAQUxQSGkJAAABwIZtm2lLkt6IWOls27Zt27Zt27ZtlW3bysyasu1qd2cWzoqI9/mRp87ZWHutcUbEBGiT/zf5f5MZ45jD0El61RnHrBnjcf+x7/KB0+ijjPmfqwbP+5krY8xctnLwfIBsRl+5YpP//gfcBwdauM6lg22h754JQXFGfHG/XXabzF13336LLefd6vdrqd0XJMXZcBhTacbZEY0edtLjFMMs2Iu5PPkVu+OSbnUB7VukOAP2odCxnRC0bA3XwvelNMyk7WmphT1XKQ2xpI/T2rjlhFurGV5R989UbGi54G5qBlfQPmQMNi2X30vNwEp6DsU2YNNy2V2VhlXQQRTMxjYt591CaUhFPRrbzG/TsmaZwoBK+jl5Adi0bKcu7x9afRHVLNB25jNKgynpmVQvCGPzZKXh9B1as3BTOO/6CgNJOpLCYk3LLxWHUdDN/429KLvyRKVBFPVkbBZtCseqq/tGo3eRR4CdeaPSEEr6Di2joHDqEg2hoK3JHgF25rVKA0g6mDIaCoerm3tHOoHCSG3zSMUBtOwc6qgy31WantSMXPt20g3CkmbUE7DiklFB5YxGXbw7uXsu0zSvvGxkNn6o4rQs+fS3vj7ab3zja+dSu8as/+aXvjLaL3/1izcd34qLR4YzH1IjhZiaFEMIIaYmxTAZq+YYo+lcM857K4xr2dmjI7OZliaNMDZhfCsvZq4ddcVdY9yOeq5suMf44jrKqFw4XlK8+WNf+4nv/X7bnXfZ4U8/+dxbnnzbRpJSGNflVHqgmZsA7UvxqMxfH/rG3x3/bxZ59Sl/euc9JMU4DKJ+T2bUxi0bl7bN87ZtMcDckR+9gxTjEGj0JVqPCkNpi21jA8a2a87A+s0eJqXQ/5JeQxmZsY3NIm3skoGt7y2l3hf1wIo9ojHa2Nm0372Rep+08kLqxAE2znDJu/pf0PZkptLG13Jw/2v0frI9DWDbD+5/QfeYY0pMZhv1P0kHU5hG29QHDoGkt5HtaaDlt0oDIOiGl1LtiTOVf9xOYQAo6Uu0TJxN5j1KGgJBN7uSiifLpmUvjbFfKemD5AmzyVx2S8WBIGktmUm2KfixShoKS3Xnf1InyKbAK9RoICRJL7tikmwyvFFJgyAmSc87DCqTakMLr1TSAIhJ0vXecAyUiifEpmaufLyS+l5ooiQ97DsXQSnGk2HjFva/jRqNNWhVf7in4qJCjE3Sxksf8fnjgFKMzSTadjYbPiwljXtlf7iHwqLmX3H/t/3ubIBcjc0E2nbNwJZ3lqLGHLSqP9xdiwxLVtzs/s985/f2vrgA5GJjxm9j11yg7vRIKWnBT193xFEjPPKYOdwP6rEHHbLAgw854tjTLl2fmbfkamPGbGPbNWcDl/74AVKMWvjHGLXphWa0zm2pNjYjNy7z5ty2xWx88WYvu4EUoxb7ea4pIzXuA8Zl0bXaNjZjNWbhV5+546eesFpSilr8b8gMT5t6wL6HHX7w/rv86UefftNTbrdEkmLSSPekeHhQOESLDE3UqA+mMDjtwuuUNgoxNSkGjfMM6vCgcsFqhY0m8a94cNiZLytpUq8ZJGy4k8LElOFhZ36vqIn1EIGHDDmT2U1RA86VJw05k9lfQRNcBocrz1CapGsGhskcoKBJ/tvQcOWpShN1KnVImMweCprogykeEjaPVJys3QeFyWyuqMn+ES2D0TZX323iPkXr4UDLN5Q04a+mDgZTuegGCpP2WBgOzrxRSZN+iw2DwWQO0hQ2p1M9CGxTH6w4edqBzDCg5RtKmsIv0HoImMIZyxWm4YXUIWC78jQlTeNtr8IeALT8VEnTuYbS/0zhrFUKU5H0Q9reZ2yeqKQpeRHV7nc2LV9X0nQG3fzv9D4yR2p6g3Yh0+tN5d93U5yaRu8g2z3OuPJKNZraoNuvp8/ZtPxQSVMctCuZ3m7TcqgUpinp1RS7t1G47FaKmu7rXUzta6ZSH62k6U76PtnuZcaVN6rRlEfdO9PPjDNfVtLUR+1Ixv3LpuVP6sKox2H3L5uWfaTQAQrak4x7lk3LmhWK6sKoJ1Hds2xaTr+JkroxaD8y7lM2LeffVkkdmfRkqu3+ZNNyyZ3UqDOj/kRLf7JpueSuatSdQbf6GxX3JJuWC++iRl3a6F1k7F5kaDnr9mrUrUH7kulFxi0n3EKNOjbqzuupuPfYOHPwaiV1btKbybZ7jk0tbBeV1MFRW9Bi9xqbAt+Toro4aPUZZHqNTYb3SFHdnPSAOSruLTZu+fszFIO6utFrqcY9xaZmjr+zGnV40pfJxr3EJsMfl6pRx29Bi90/bNyS3yUldXuQ9qPF7hs2pXLqgxSDuj5qxXG02L3Cxi38YrkazcCkGxxPi90jbErhshdJSTMx6UYn0IL7go1b2OpmSkEzMukGx9Ia9wIbirn4ZVLS7ExacSDZ2LPPpmb4+Y0Ug2ZpkragVuwZZ+MWjn2clDRjo/Q1yNizzMYZrniXlIJmbpBe09Iae1bZOJtrv3dTKWkmJz3oDHLFnkk2zoYt7yklzepGq7aE1tgzx7azYZdHSClodifpTf8mV+zZYuwM7PF4KUbN9BB1572gNfbMsHHNULd/tBSjZn4jveUvOBt7Jhg7F/j3rx4ghag+GINu/isoxdhdZ9s1A+d87vZSjOqLSXrUflCKsTvMxjVXKPu9coWUonpkSNIL10Aptt1NNnYuwDnfvL+kFNQzY5BesQacbeyuMXbNBfjr5s9fIYWkPpokPf8AIBcbd4eNXdoK/H3H199MUorqq0nSw3/7TyAXG3eAjV1zAbh0i9feUlJM6rUpSLd69zEAudjY02Nju7QFYG7td595fUkhBfXeGCU96KsnA5S22tgTZ2O75myAfOYf3np3SYopqB+HJCk+7ItHXA1Q2lJtY0+CjW3X3Bbm3bDmF2+57xJJSkm9OiZJusMbf3XqHBvXNpfq61yU8fy1ltzmyvzrT9jiE8+6TZCk2AT18JgkKd3t1d/f//LC/C5tm3PZuNZaSykl59y2uVRz3fmfJ+/0nbc94ZZRG6cU1N9Ditp45QNf/pnNDrpoQ2Ws+eorT95/s2++94UPuFHSvLGJQf0/pKT5l9/0Yc986ye/8qvt9tj7wDUnnHLaKScdf9QB++yy2S+/96UPv/WlT3rgbVY1us6Qmhg0JGNqohYeU7OkaZIWH5smxaChGmJMTRODFh5iTE2TUoxBm/y/yf//r3kAVlA4IEQLAABQQwCdASoAAQABPm0wlUikP6ShJ3BKw/ANiWNu8p8dlOAP5AsgD8AP0ATmFAP73tFQQ+g5snkbwvzV55u0DN9/qv+N7VfzJ7AH6j9N/zB/sP+4XvPf739mfcn/kPUA/tH9560b9t/YT8t/2a/8Z/2PTOzX7/AdxfJgzP29/ZfLeiFclb8zZezyfftbwcuDbZL26ZMd42yXt0yY7xtkvbpSo8pOrXumTHeNslyj9pbCYnQeAdOp4C7kBi4SWt8AWur8DTGpowFZhjZq8f2Mt2eUU6AJjXg3WKLWC/nrVqLOKH7LubzSLGnwIUWLO/QxoH6d77Yr9SYUv2hyVVU5JqCTR5jhsZqxzn2w6zxowwUB6XoinFm30MVd7E2BpcuPJIZOrBFTtBlfpl+cI+0to1ftmye5EYDVQ+OEkNJJ4bW4jBjfGNnZfo1joaw4HTfwXCOfZAmrIt6DHWuSrRaF6Ky9Tou9pTKd7jbcTCZNMy4PsaWwbMuLh1G5ubm5tIsX2cP5TLYvHS5TyWYw6NXqf2TIsA7dIm6Ex/VeU2oBsaSkY6C39FDg0jk+kTGhPEXJ+umXCG6RhZwPqa0RnB2Jh6lVVyjK29i573xIMEDPqjvKcKxD/e2Lf+vRGqVxIXvME5KVrnDfS8JX1J8mjm33hbmsoL4Uq2gfr2B/Qthz3/RH9HUQTi0Lj4Zz7F2kRuiXdlAuIxumTakn+3xtkvbpkx3jbIoAAP6mqgAAAAE1ZzMMe/PPIyCnPQAi/Hpgk1fgyDGunI5z1TI71N/Q3Pq9ZagpyngKx6awMltCOC4owPa1yGYJjBoTCNnZAxBJdJFJM80or2WF9CRTJJnCWhU/GiYC54Sls2PXMfhfBvaeKCS9MJGKkC2LySaBN/gtRfoI0p183ffYW9swdtiy1/4X96oO62WebQj9Eyu5hFftzNQGoX5mXV50q1nRnfnVo8BPnxNjnf1tdpGsz7F2mS9RLOv4gOj1xWyAA9iyGhvC0Ugjkhzj+QvVN4Bp80kEqnvya3kcC5TqUPdB/vkm/SO8QUBJ7UOiVWIViCOpYDIHb8NE2sBH7BRcvFY6PlStp1JYoxM9YhM7TlWh4KpyPtOBevDG3xOXv4ov9+uJ80RikRTnsnKRQ/PpQDb1Qyeo6esZNjlEHIMfQyX585grPCnMIp54CgBgV7urynZaNDv7m8klCl4apDPv5bGfxh/Bt4bt/U6FfUrLNnSQnJwOjR0Kk6iKuSc+3xuBar7GZjx0tEuA2xoftIBxgxNhgcW1vVC2PcPFEhOxPohlRiwjpQF7pwIWVxACIotjXp3/3iTo/w0AO60U05/14ph2dGp5cUWERLkZHo8hNfMSAQenKqem+BsKXWvQtlqg1wz5YxFxzU1zLijqFQHC7V8awy5HWgaecGDh/dDT7xivnvcG8igBbJVRJjAp8eIxpJc8JVxGAjMu0RKWVGlTZix+T3XUfPxA+J0u1zDejha2EItUfGWp3/YQP/9FZDSh3/TY93/puk1i+RUR7gz2b6zd/ZmlKWfbHqC+wZVbJrJL04y/0TCgl6E51WwCAsNqg/CBD/HWbVre8c9dIc1z7fLjape2WUWYQfwWuK+wseF+GmTr3mT+mRmPa7aKZPCPB3ejiItnNkJSmbW4QVJwp3ykf0P+rhZAZRZSvb3E6gwpS050Fq14Kjqz54UlAvGyaCqKmjV66EbCZ//6Uh3O6PlxfyokduG4ycSgmrRgxWOJx6gu3XFVv8PBKxa/KDohFYOfuTRJ1M4J7doIXG0xNw/kfkRjO581eV4CFL+XWqcWO3vP1MCU4HUMDWbWVGsIzREJl4BEkbX+FQp9So9CHIROC8BlgZy8LtgJS8L34cx3ChVjANVWGx0x3zHt/Sg/CLuMltoRko2ykTEhomT9HReOrsdYYIKIHzceFqCrUeKCz/aYsptwlyCmyfl0DBtUweRLUidyJtbZ652vs3nDi8syJXZGFN7QVf0E4bSGpRzFvDbLgyJZZESvXaXP3t2gZ63CIEU9VYG/an5DItWEg4CN6KEgDxIyRiK03/TjyrSijjw3IQq41zlmoqWVkv8IdAsy3RCthO0LkwILTJMI2h6VJMo/ATrkqwEcpYXA0IE6U2LYCCEysZFmTqpi2JNRnLuO7qzJjxWNdxKtTFVxzTe2/tAtU8qaAVNYy4hCK+w2mDhgimX68Yrkeb/K+ikXJRhrRxWJ0211YjoUxiw4c4X1MF1aT0Y3Ux1vXWXbm7VuMYnkp1f4YGX96Uf3S5xzX0pAtVMXrft+quUHVqybxYMMIr+Zz0d/QBo3qse0s7BSeD5K3q2SeBFTEmu36cxUX5IrE6jDH8mwTkqs2dAwzpO1xkQvfm7C3crWgf1amGtHyBze601c272wnnhCFnzh/1QyyGJt6N5FdQU2F9M4f2OKRqBLQYgYtTpiFfgAAymM6lkwqSuSvt/Ya8NdY06SSkjZ0G/A4GRp0UQM0cTLIQjyVatKvQCDfTkO3bXDqbxCQyvETPPUUP3/eYTKm00gvTOe8ImHX9X3/ANcFRA+fwsW9qO1mwrfzIQlzpD1CqrMmCVkSMOrN0KKGNzA8wgfU9Mp0K5wIx9urdj3LZQoTmRuhPyQFkfvspyUh6oYCmjad3TupajRyFfDl4l0fkfzM9nFc///10H/zf//+tQvBmjv+jjWUdoxEovm+2LOWJE58y3opVtVKkh3+Nmdrnn//g3JD8M6zgcSeosp4jhXwI+/FuJ+YSqhBzSeBym9wL7Ru+xtuNuBtr/8T9ee60J1FSwdsUFxjAjGIZGSMjx+a4NGW6zwNsxN9Gr+oYG2qGsfptVMJkXq+jHRvD15szNsM5qrEn/jKiXj46yhR8epmtTbchWNQrw8FUJjmYCE9MJi+bIzByK7Yu47hp4oTjWS8p+AzPlbdwpwKBtcf5x2LBYLnb2nya4HKwE6TUH+HPGkMZXfG1mjDgmc7Yg51DdAf/Y1pZ3hz4Zybnmdu8YHjz3tJFd7ZucFvq6//5cjmQc4bMmyoj+pqib4nz2Xs90jpKQ94KfBU7NYJLUYNFoxz8XAnwIQ+edaBzE1EjiZQnR+bwVFV8KpJ0Mj9V9oNswhtfh9HNBeNJV3rp0DDXITNva9nxsudajumTL9NvUHOZ+6Or81l1h1dCKLTTBPHECyZ5T2IG9z5pt+yjhQEIhhhdIjxaFNmKEcBm+tPWlYBJVWpHzhXUG7aJT3WivpXTXmC/MwBi9lfoVPUAreFysekqa1vxZk8cp73Rg6Kxp5dGZdhjCDQEFoVYzmF8OEEDexHu+c6tCvea7qzZ+wCxxYZzQBxZj6T5fUuNFi+EwzyRv95oHf5m9eyVWtwj//H2YEJOB1CmGUaapz/sWpblWTX0JfnKLZTELsWFpDjR6ZIs6eF/NF1Nbbwrj7t2eK2gXQwxT4YSYakOVJ2M1w/oVOguCG/U3BirvWk4bcDsNK2HzuKuAiHe7iQ0ymwqh4V2MOz/uJtQwapN6cZR6niW9qoWni03psa2iVT7X7z1ZONM/qP2VlRA12oRyHyHZXqDqpEy9lOac8x5k6RdGsmOesQ/gyDe2uk/R5DXE4UyP8xychTfr+Jok9b2UEVF0eogAS8yuZVAr8W2H0zxy8mnep7VsBbs7XwtIlD0QadugruyBqnKPPDkUPywts5uxAND6i/Kbhv6gUAXKAxcwbPB9rFYCFqNWdlKBecjudKuJBq8Jj8tYMvEdf6cXMvf4SYU3VxDuajYr8pB165aGty1tQA5itg8hJHeaPtz0TYpt3H2OXPv3eYearI8vm54tBp6YjHLuj0Kil5jvNwO1JLyioeU+1VgJ3AAAAAAAAAAAARVhJRroAAABFeGlmAABJSSoACAAAAAYAEgEDAAEAAAABAAAAGgEFAAEAAABWAAAAGwEFAAEAAABeAAAAKAEDAAEAAAACAAAAEwIDAAEAAAABAAAAaYcEAAEAAABmAAAAAAAAAEgAAAABAAAASAAAAAEAAAAGAACQBwAEAAAAMDIxMAGRBwAEAAAAAQIDAACgBwAEAAAAMDEwMAGgAwABAAAA//8AAAKgBAABAAAAAAEAAAOgBAABAAAAAAEAAAAAAAA=;container=0;" parent="J6oPv5elQKLaFBjouUGu-37" vertex="1">
          <mxGeometry x="149.99999999999994" y="127" width="44.07" height="44.07" as="geometry" />
        </mxCell>
        <mxCell id="J6oPv5elQKLaFBjouUGu-43" value="" style="endArrow=classic;startArrow=classic;html=1;rounded=0;entryX=0.5;entryY=1;entryDx=0;entryDy=0;" parent="J6oPv5elQKLaFBjouUGu-37" source="J6oPv5elQKLaFBjouUGu-41" target="J6oPv5elQKLaFBjouUGu-39" edge="1">
          <mxGeometry width="50" height="50" relative="1" as="geometry">
            <mxPoint x="190" y="107" as="sourcePoint" />
            <mxPoint x="240" y="57" as="targetPoint" />
          </mxGeometry>
        </mxCell>
        <mxCell id="J6oPv5elQKLaFBjouUGu-44" value="&lt;font style=&quot;font-size: 18px;&quot;&gt;API Gateway&lt;/font&gt;" style="text;html=1;align=center;verticalAlign=middle;resizable=0;points=[];autosize=1;strokeColor=none;fillColor=none;" parent="1" vertex="1">
          <mxGeometry x="575" y="737" width="130" height="40" as="geometry" />
        </mxCell>
        <mxCell id="vAbXBvOrlHkean85AAzt-6" style="rounded=0;orthogonalLoop=1;jettySize=auto;html=1;entryX=0.25;entryY=0;entryDx=0;entryDy=0;startArrow=classic;startFill=1;exitX=0.5;exitY=1;exitDx=0;exitDy=0;" parent="1" source="J6oPv5elQKLaFBjouUGu-22" target="J6oPv5elQKLaFBjouUGu-38" edge="1">
          <mxGeometry relative="1" as="geometry" />
        </mxCell>
        <mxCell id="vAbXBvOrlHkean85AAzt-7" style="rounded=0;orthogonalLoop=1;jettySize=auto;html=1;entryX=0.75;entryY=0;entryDx=0;entryDy=0;startArrow=classic;startFill=1;" parent="1" source="J6oPv5elQKLaFBjouUGu-30" target="J6oPv5elQKLaFBjouUGu-38" edge="1">
          <mxGeometry relative="1" as="geometry" />
        </mxCell>
        <mxCell id="sW3DkYA1sAx3PCCbiGF8-17" value="" style="group" parent="1" vertex="1" connectable="0">
          <mxGeometry x="827.0000000000002" y="829.9999999999998" width="200" height="227.00000000000023" as="geometry" />
        </mxCell>
        <mxCell id="sW3DkYA1sAx3PCCbiGF8-18" value="" style="rounded=1;whiteSpace=wrap;html=1;fillColor=#ffe6cc;strokeColor=#d79b00;container=0;" parent="sW3DkYA1sAx3PCCbiGF8-17" vertex="1">
          <mxGeometry y="37" width="200" height="190" as="geometry" />
        </mxCell>
        <mxCell id="sW3DkYA1sAx3PCCbiGF8-19" value="&lt;p style=&quot;line-height: 100%;&quot;&gt;&lt;span style=&quot;font-size: 18px;&quot;&gt;Node.js&lt;/span&gt;&lt;/p&gt;" style="rounded=1;whiteSpace=wrap;html=1;fillColor=#dae8fc;strokeColor=#6c8ebf;movable=1;resizable=1;rotatable=1;deletable=1;editable=1;locked=0;connectable=1;container=0;" parent="sW3DkYA1sAx3PCCbiGF8-17" vertex="1">
          <mxGeometry x="22" y="57" width="156" height="60" as="geometry" />
        </mxCell>
        <mxCell id="sW3DkYA1sAx3PCCbiGF8-20" value="" style="shape=image;verticalLabelPosition=bottom;labelBackgroundColor=default;verticalAlign=top;aspect=fixed;imageAspect=0;image=data:image/png,UklGRpYVAABXRUJQVlA4WAoAAAAYAAAA/wAA/wAAQUxQSGkJAAABwIZtm2lLkt6IWOls27Zt27Zt27ZtlW3bysyasu1qd2cWzoqI9/mRp87ZWHutcUbEBGiT/zf5f5MZ45jD0El61RnHrBnjcf+x7/KB0+ijjPmfqwbP+5krY8xctnLwfIBsRl+5YpP//gfcBwdauM6lg22h754JQXFGfHG/XXabzF13336LLefd6vdrqd0XJMXZcBhTacbZEY0edtLjFMMs2Iu5PPkVu+OSbnUB7VukOAP2odCxnRC0bA3XwvelNMyk7WmphT1XKQ2xpI/T2rjlhFurGV5R989UbGi54G5qBlfQPmQMNi2X30vNwEp6DsU2YNNy2V2VhlXQQRTMxjYt591CaUhFPRrbzG/TsmaZwoBK+jl5Adi0bKcu7x9afRHVLNB25jNKgynpmVQvCGPzZKXh9B1as3BTOO/6CgNJOpLCYk3LLxWHUdDN/429KLvyRKVBFPVkbBZtCseqq/tGo3eRR4CdeaPSEEr6Di2joHDqEg2hoK3JHgF25rVKA0g6mDIaCoerm3tHOoHCSG3zSMUBtOwc6qgy31WantSMXPt20g3CkmbUE7DiklFB5YxGXbw7uXsu0zSvvGxkNn6o4rQs+fS3vj7ab3zja+dSu8as/+aXvjLaL3/1izcd34qLR4YzH1IjhZiaFEMIIaYmxTAZq+YYo+lcM857K4xr2dmjI7OZliaNMDZhfCsvZq4ddcVdY9yOeq5suMf44jrKqFw4XlK8+WNf+4nv/X7bnXfZ4U8/+dxbnnzbRpJSGNflVHqgmZsA7UvxqMxfH/rG3x3/bxZ59Sl/euc9JMU4DKJ+T2bUxi0bl7bN87ZtMcDckR+9gxTjEGj0JVqPCkNpi21jA8a2a87A+s0eJqXQ/5JeQxmZsY3NIm3skoGt7y2l3hf1wIo9ojHa2Nm0372Rep+08kLqxAE2znDJu/pf0PZkptLG13Jw/2v0frI9DWDbD+5/QfeYY0pMZhv1P0kHU5hG29QHDoGkt5HtaaDlt0oDIOiGl1LtiTOVf9xOYQAo6Uu0TJxN5j1KGgJBN7uSiifLpmUvjbFfKemD5AmzyVx2S8WBIGktmUm2KfixShoKS3Xnf1InyKbAK9RoICRJL7tikmwyvFFJgyAmSc87DCqTakMLr1TSAIhJ0vXecAyUiifEpmaufLyS+l5ooiQ97DsXQSnGk2HjFva/jRqNNWhVf7in4qJCjE3Sxksf8fnjgFKMzSTadjYbPiwljXtlf7iHwqLmX3H/t/3ubIBcjc0E2nbNwJZ3lqLGHLSqP9xdiwxLVtzs/s985/f2vrgA5GJjxm9j11yg7vRIKWnBT193xFEjPPKYOdwP6rEHHbLAgw854tjTLl2fmbfkamPGbGPbNWcDl/74AVKMWvjHGLXphWa0zm2pNjYjNy7z5ty2xWx88WYvu4EUoxb7ea4pIzXuA8Zl0bXaNjZjNWbhV5+546eesFpSilr8b8gMT5t6wL6HHX7w/rv86UefftNTbrdEkmLSSPekeHhQOESLDE3UqA+mMDjtwuuUNgoxNSkGjfMM6vCgcsFqhY0m8a94cNiZLytpUq8ZJGy4k8LElOFhZ36vqIn1EIGHDDmT2U1RA86VJw05k9lfQRNcBocrz1CapGsGhskcoKBJ/tvQcOWpShN1KnVImMweCprogykeEjaPVJys3QeFyWyuqMn+ES2D0TZX323iPkXr4UDLN5Q04a+mDgZTuegGCpP2WBgOzrxRSZN+iw2DwWQO0hQ2p1M9CGxTH6w4edqBzDCg5RtKmsIv0HoImMIZyxWm4YXUIWC78jQlTeNtr8IeALT8VEnTuYbS/0zhrFUKU5H0Q9reZ2yeqKQpeRHV7nc2LV9X0nQG3fzv9D4yR2p6g3Yh0+tN5d93U5yaRu8g2z3OuPJKNZraoNuvp8/ZtPxQSVMctCuZ3m7TcqgUpinp1RS7t1G47FaKmu7rXUzta6ZSH62k6U76PtnuZcaVN6rRlEfdO9PPjDNfVtLUR+1Ixv3LpuVP6sKox2H3L5uWfaTQAQrak4x7lk3LmhWK6sKoJ1Hds2xaTr+JkroxaD8y7lM2LeffVkkdmfRkqu3+ZNNyyZ3UqDOj/kRLf7JpueSuatSdQbf6GxX3JJuWC++iRl3a6F1k7F5kaDnr9mrUrUH7kulFxi0n3EKNOjbqzuupuPfYOHPwaiV1btKbybZ7jk0tbBeV1MFRW9Bi9xqbAt+Toro4aPUZZHqNTYb3SFHdnPSAOSruLTZu+fszFIO6utFrqcY9xaZmjr+zGnV40pfJxr3EJsMfl6pRx29Bi90/bNyS3yUldXuQ9qPF7hs2pXLqgxSDuj5qxXG02L3Cxi38YrkazcCkGxxPi90jbErhshdJSTMx6UYn0IL7go1b2OpmSkEzMukGx9Ia9wIbirn4ZVLS7ExacSDZ2LPPpmb4+Y0Ug2ZpkragVuwZZ+MWjn2clDRjo/Q1yNizzMYZrniXlIJmbpBe09Iae1bZOJtrv3dTKWkmJz3oDHLFnkk2zoYt7yklzepGq7aE1tgzx7azYZdHSClodifpTf8mV+zZYuwM7PF4KUbN9BB1572gNfbMsHHNULd/tBSjZn4jveUvOBt7Jhg7F/j3rx4ghag+GINu/isoxdhdZ9s1A+d87vZSjOqLSXrUflCKsTvMxjVXKPu9coWUonpkSNIL10Aptt1NNnYuwDnfvL+kFNQzY5BesQacbeyuMXbNBfjr5s9fIYWkPpokPf8AIBcbd4eNXdoK/H3H199MUorqq0nSw3/7TyAXG3eAjV1zAbh0i9feUlJM6rUpSLd69zEAudjY02Nju7QFYG7td595fUkhBfXeGCU96KsnA5S22tgTZ2O75myAfOYf3np3SYopqB+HJCk+7ItHXA1Q2lJtY0+CjW3X3Bbm3bDmF2+57xJJSkm9OiZJusMbf3XqHBvXNpfq61yU8fy1ltzmyvzrT9jiE8+6TZCk2AT18JgkKd3t1d/f//LC/C5tm3PZuNZaSykl59y2uVRz3fmfJ+/0nbc94ZZRG6cU1N9Ditp45QNf/pnNDrpoQ2Ws+eorT95/s2++94UPuFHSvLGJQf0/pKT5l9/0Yc986ye/8qvt9tj7wDUnnHLaKScdf9QB++yy2S+/96UPv/WlT3rgbVY1us6Qmhg0JGNqohYeU7OkaZIWH5smxaChGmJMTRODFh5iTE2TUoxBm/y/yf//r3kAVlA4IEQLAABQQwCdASoAAQABPm0wlUikP6ShJ3BKw/ANiWNu8p8dlOAP5AsgD8AP0ATmFAP73tFQQ+g5snkbwvzV55u0DN9/qv+N7VfzJ7AH6j9N/zB/sP+4XvPf739mfcn/kPUA/tH9560b9t/YT8t/2a/8Z/2PTOzX7/AdxfJgzP29/ZfLeiFclb8zZezyfftbwcuDbZL26ZMd42yXt0yY7xtkvbpSo8pOrXumTHeNslyj9pbCYnQeAdOp4C7kBi4SWt8AWur8DTGpowFZhjZq8f2Mt2eUU6AJjXg3WKLWC/nrVqLOKH7LubzSLGnwIUWLO/QxoH6d77Yr9SYUv2hyVVU5JqCTR5jhsZqxzn2w6zxowwUB6XoinFm30MVd7E2BpcuPJIZOrBFTtBlfpl+cI+0to1ftmye5EYDVQ+OEkNJJ4bW4jBjfGNnZfo1joaw4HTfwXCOfZAmrIt6DHWuSrRaF6Ky9Tou9pTKd7jbcTCZNMy4PsaWwbMuLh1G5ubm5tIsX2cP5TLYvHS5TyWYw6NXqf2TIsA7dIm6Ex/VeU2oBsaSkY6C39FDg0jk+kTGhPEXJ+umXCG6RhZwPqa0RnB2Jh6lVVyjK29i573xIMEDPqjvKcKxD/e2Lf+vRGqVxIXvME5KVrnDfS8JX1J8mjm33hbmsoL4Uq2gfr2B/Qthz3/RH9HUQTi0Lj4Zz7F2kRuiXdlAuIxumTakn+3xtkvbpkx3jbIoAAP6mqgAAAAE1ZzMMe/PPIyCnPQAi/Hpgk1fgyDGunI5z1TI71N/Q3Pq9ZagpyngKx6awMltCOC4owPa1yGYJjBoTCNnZAxBJdJFJM80or2WF9CRTJJnCWhU/GiYC54Sls2PXMfhfBvaeKCS9MJGKkC2LySaBN/gtRfoI0p183ffYW9swdtiy1/4X96oO62WebQj9Eyu5hFftzNQGoX5mXV50q1nRnfnVo8BPnxNjnf1tdpGsz7F2mS9RLOv4gOj1xWyAA9iyGhvC0Ugjkhzj+QvVN4Bp80kEqnvya3kcC5TqUPdB/vkm/SO8QUBJ7UOiVWIViCOpYDIHb8NE2sBH7BRcvFY6PlStp1JYoxM9YhM7TlWh4KpyPtOBevDG3xOXv4ov9+uJ80RikRTnsnKRQ/PpQDb1Qyeo6esZNjlEHIMfQyX585grPCnMIp54CgBgV7urynZaNDv7m8klCl4apDPv5bGfxh/Bt4bt/U6FfUrLNnSQnJwOjR0Kk6iKuSc+3xuBar7GZjx0tEuA2xoftIBxgxNhgcW1vVC2PcPFEhOxPohlRiwjpQF7pwIWVxACIotjXp3/3iTo/w0AO60U05/14ph2dGp5cUWERLkZHo8hNfMSAQenKqem+BsKXWvQtlqg1wz5YxFxzU1zLijqFQHC7V8awy5HWgaecGDh/dDT7xivnvcG8igBbJVRJjAp8eIxpJc8JVxGAjMu0RKWVGlTZix+T3XUfPxA+J0u1zDejha2EItUfGWp3/YQP/9FZDSh3/TY93/puk1i+RUR7gz2b6zd/ZmlKWfbHqC+wZVbJrJL04y/0TCgl6E51WwCAsNqg/CBD/HWbVre8c9dIc1z7fLjape2WUWYQfwWuK+wseF+GmTr3mT+mRmPa7aKZPCPB3ejiItnNkJSmbW4QVJwp3ykf0P+rhZAZRZSvb3E6gwpS050Fq14Kjqz54UlAvGyaCqKmjV66EbCZ//6Uh3O6PlxfyokduG4ycSgmrRgxWOJx6gu3XFVv8PBKxa/KDohFYOfuTRJ1M4J7doIXG0xNw/kfkRjO581eV4CFL+XWqcWO3vP1MCU4HUMDWbWVGsIzREJl4BEkbX+FQp9So9CHIROC8BlgZy8LtgJS8L34cx3ChVjANVWGx0x3zHt/Sg/CLuMltoRko2ykTEhomT9HReOrsdYYIKIHzceFqCrUeKCz/aYsptwlyCmyfl0DBtUweRLUidyJtbZ652vs3nDi8syJXZGFN7QVf0E4bSGpRzFvDbLgyJZZESvXaXP3t2gZ63CIEU9VYG/an5DItWEg4CN6KEgDxIyRiK03/TjyrSijjw3IQq41zlmoqWVkv8IdAsy3RCthO0LkwILTJMI2h6VJMo/ATrkqwEcpYXA0IE6U2LYCCEysZFmTqpi2JNRnLuO7qzJjxWNdxKtTFVxzTe2/tAtU8qaAVNYy4hCK+w2mDhgimX68Yrkeb/K+ikXJRhrRxWJ0211YjoUxiw4c4X1MF1aT0Y3Ux1vXWXbm7VuMYnkp1f4YGX96Uf3S5xzX0pAtVMXrft+quUHVqybxYMMIr+Zz0d/QBo3qse0s7BSeD5K3q2SeBFTEmu36cxUX5IrE6jDH8mwTkqs2dAwzpO1xkQvfm7C3crWgf1amGtHyBze601c272wnnhCFnzh/1QyyGJt6N5FdQU2F9M4f2OKRqBLQYgYtTpiFfgAAymM6lkwqSuSvt/Ya8NdY06SSkjZ0G/A4GRp0UQM0cTLIQjyVatKvQCDfTkO3bXDqbxCQyvETPPUUP3/eYTKm00gvTOe8ImHX9X3/ANcFRA+fwsW9qO1mwrfzIQlzpD1CqrMmCVkSMOrN0KKGNzA8wgfU9Mp0K5wIx9urdj3LZQoTmRuhPyQFkfvspyUh6oYCmjad3TupajRyFfDl4l0fkfzM9nFc///10H/zf//+tQvBmjv+jjWUdoxEovm+2LOWJE58y3opVtVKkh3+Nmdrnn//g3JD8M6zgcSeosp4jhXwI+/FuJ+YSqhBzSeBym9wL7Ru+xtuNuBtr/8T9ee60J1FSwdsUFxjAjGIZGSMjx+a4NGW6zwNsxN9Gr+oYG2qGsfptVMJkXq+jHRvD15szNsM5qrEn/jKiXj46yhR8epmtTbchWNQrw8FUJjmYCE9MJi+bIzByK7Yu47hp4oTjWS8p+AzPlbdwpwKBtcf5x2LBYLnb2nya4HKwE6TUH+HPGkMZXfG1mjDgmc7Yg51DdAf/Y1pZ3hz4Zybnmdu8YHjz3tJFd7ZucFvq6//5cjmQc4bMmyoj+pqib4nz2Xs90jpKQ94KfBU7NYJLUYNFoxz8XAnwIQ+edaBzE1EjiZQnR+bwVFV8KpJ0Mj9V9oNswhtfh9HNBeNJV3rp0DDXITNva9nxsudajumTL9NvUHOZ+6Or81l1h1dCKLTTBPHECyZ5T2IG9z5pt+yjhQEIhhhdIjxaFNmKEcBm+tPWlYBJVWpHzhXUG7aJT3WivpXTXmC/MwBi9lfoVPUAreFysekqa1vxZk8cp73Rg6Kxp5dGZdhjCDQEFoVYzmF8OEEDexHu+c6tCvea7qzZ+wCxxYZzQBxZj6T5fUuNFi+EwzyRv95oHf5m9eyVWtwj//H2YEJOB1CmGUaapz/sWpblWTX0JfnKLZTELsWFpDjR6ZIs6eF/NF1Nbbwrj7t2eK2gXQwxT4YSYakOVJ2M1w/oVOguCG/U3BirvWk4bcDsNK2HzuKuAiHe7iQ0ymwqh4V2MOz/uJtQwapN6cZR6niW9qoWni03psa2iVT7X7z1ZONM/qP2VlRA12oRyHyHZXqDqpEy9lOac8x5k6RdGsmOesQ/gyDe2uk/R5DXE4UyP8xychTfr+Jok9b2UEVF0eogAS8yuZVAr8W2H0zxy8mnep7VsBbs7XwtIlD0QadugruyBqnKPPDkUPywts5uxAND6i/Kbhv6gUAXKAxcwbPB9rFYCFqNWdlKBecjudKuJBq8Jj8tYMvEdf6cXMvf4SYU3VxDuajYr8pB165aGty1tQA5itg8hJHeaPtz0TYpt3H2OXPv3eYearI8vm54tBp6YjHLuj0Kil5jvNwO1JLyioeU+1VgJ3AAAAAAAAAAAARVhJRroAAABFeGlmAABJSSoACAAAAAYAEgEDAAEAAAABAAAAGgEFAAEAAABWAAAAGwEFAAEAAABeAAAAKAEDAAEAAAACAAAAEwIDAAEAAAABAAAAaYcEAAEAAABmAAAAAAAAAEgAAAABAAAASAAAAAEAAAAGAACQBwAEAAAAMDIxMAGRBwAEAAAAAQIDAACgBwAEAAAAMDEwMAGgAwABAAAA//8AAAKgBAABAAAAAAEAAAOgBAABAAAAAAEAAAAAAAA=;container=0;" parent="sW3DkYA1sAx3PCCbiGF8-17" vertex="1">
          <mxGeometry x="155.93" y="37" width="44.07" height="44.07" as="geometry" />
        </mxCell>
        <mxCell id="sW3DkYA1sAx3PCCbiGF8-21" value="&lt;p style=&quot;line-height: 100%;&quot;&gt;&lt;font face=&quot;Helvetica&quot; style=&quot;font-size: 18px;&quot;&gt;MongoDB&lt;/font&gt;&lt;/p&gt;" style="rounded=1;whiteSpace=wrap;html=1;fillColor=#dae8fc;strokeColor=#6c8ebf;container=0;" parent="sW3DkYA1sAx3PCCbiGF8-17" vertex="1">
          <mxGeometry x="22" y="147" width="156" height="60" as="geometry" />
        </mxCell>
        <mxCell id="sW3DkYA1sAx3PCCbiGF8-22" value="" style="shape=image;verticalLabelPosition=bottom;labelBackgroundColor=default;verticalAlign=top;aspect=fixed;imageAspect=0;image=data:image/png,UklGRpYVAABXRUJQVlA4WAoAAAAYAAAA/wAA/wAAQUxQSGkJAAABwIZtm2lLkt6IWOls27Zt27Zt27ZtlW3bysyasu1qd2cWzoqI9/mRp87ZWHutcUbEBGiT/zf5f5MZ45jD0El61RnHrBnjcf+x7/KB0+ijjPmfqwbP+5krY8xctnLwfIBsRl+5YpP//gfcBwdauM6lg22h754JQXFGfHG/XXabzF13336LLefd6vdrqd0XJMXZcBhTacbZEY0edtLjFMMs2Iu5PPkVu+OSbnUB7VukOAP2odCxnRC0bA3XwvelNMyk7WmphT1XKQ2xpI/T2rjlhFurGV5R989UbGi54G5qBlfQPmQMNi2X30vNwEp6DsU2YNNy2V2VhlXQQRTMxjYt591CaUhFPRrbzG/TsmaZwoBK+jl5Adi0bKcu7x9afRHVLNB25jNKgynpmVQvCGPzZKXh9B1as3BTOO/6CgNJOpLCYk3LLxWHUdDN/429KLvyRKVBFPVkbBZtCseqq/tGo3eRR4CdeaPSEEr6Di2joHDqEg2hoK3JHgF25rVKA0g6mDIaCoerm3tHOoHCSG3zSMUBtOwc6qgy31WantSMXPt20g3CkmbUE7DiklFB5YxGXbw7uXsu0zSvvGxkNn6o4rQs+fS3vj7ab3zja+dSu8as/+aXvjLaL3/1izcd34qLR4YzH1IjhZiaFEMIIaYmxTAZq+YYo+lcM857K4xr2dmjI7OZliaNMDZhfCsvZq4ddcVdY9yOeq5suMf44jrKqFw4XlK8+WNf+4nv/X7bnXfZ4U8/+dxbnnzbRpJSGNflVHqgmZsA7UvxqMxfH/rG3x3/bxZ59Sl/euc9JMU4DKJ+T2bUxi0bl7bN87ZtMcDckR+9gxTjEGj0JVqPCkNpi21jA8a2a87A+s0eJqXQ/5JeQxmZsY3NIm3skoGt7y2l3hf1wIo9ojHa2Nm0372Rep+08kLqxAE2znDJu/pf0PZkptLG13Jw/2v0frI9DWDbD+5/QfeYY0pMZhv1P0kHU5hG29QHDoGkt5HtaaDlt0oDIOiGl1LtiTOVf9xOYQAo6Uu0TJxN5j1KGgJBN7uSiifLpmUvjbFfKemD5AmzyVx2S8WBIGktmUm2KfixShoKS3Xnf1InyKbAK9RoICRJL7tikmwyvFFJgyAmSc87DCqTakMLr1TSAIhJ0vXecAyUiifEpmaufLyS+l5ooiQ97DsXQSnGk2HjFva/jRqNNWhVf7in4qJCjE3Sxksf8fnjgFKMzSTadjYbPiwljXtlf7iHwqLmX3H/t/3ubIBcjc0E2nbNwJZ3lqLGHLSqP9xdiwxLVtzs/s985/f2vrgA5GJjxm9j11yg7vRIKWnBT193xFEjPPKYOdwP6rEHHbLAgw854tjTLl2fmbfkamPGbGPbNWcDl/74AVKMWvjHGLXphWa0zm2pNjYjNy7z5ty2xWx88WYvu4EUoxb7ea4pIzXuA8Zl0bXaNjZjNWbhV5+546eesFpSilr8b8gMT5t6wL6HHX7w/rv86UefftNTbrdEkmLSSPekeHhQOESLDE3UqA+mMDjtwuuUNgoxNSkGjfMM6vCgcsFqhY0m8a94cNiZLytpUq8ZJGy4k8LElOFhZ36vqIn1EIGHDDmT2U1RA86VJw05k9lfQRNcBocrz1CapGsGhskcoKBJ/tvQcOWpShN1KnVImMweCprogykeEjaPVJys3QeFyWyuqMn+ES2D0TZX323iPkXr4UDLN5Q04a+mDgZTuegGCpP2WBgOzrxRSZN+iw2DwWQO0hQ2p1M9CGxTH6w4edqBzDCg5RtKmsIv0HoImMIZyxWm4YXUIWC78jQlTeNtr8IeALT8VEnTuYbS/0zhrFUKU5H0Q9reZ2yeqKQpeRHV7nc2LV9X0nQG3fzv9D4yR2p6g3Yh0+tN5d93U5yaRu8g2z3OuPJKNZraoNuvp8/ZtPxQSVMctCuZ3m7TcqgUpinp1RS7t1G47FaKmu7rXUzta6ZSH62k6U76PtnuZcaVN6rRlEfdO9PPjDNfVtLUR+1Ixv3LpuVP6sKox2H3L5uWfaTQAQrak4x7lk3LmhWK6sKoJ1Hds2xaTr+JkroxaD8y7lM2LeffVkkdmfRkqu3+ZNNyyZ3UqDOj/kRLf7JpueSuatSdQbf6GxX3JJuWC++iRl3a6F1k7F5kaDnr9mrUrUH7kulFxi0n3EKNOjbqzuupuPfYOHPwaiV1btKbybZ7jk0tbBeV1MFRW9Bi9xqbAt+Toro4aPUZZHqNTYb3SFHdnPSAOSruLTZu+fszFIO6utFrqcY9xaZmjr+zGnV40pfJxr3EJsMfl6pRx29Bi90/bNyS3yUldXuQ9qPF7hs2pXLqgxSDuj5qxXG02L3Cxi38YrkazcCkGxxPi90jbErhshdJSTMx6UYn0IL7go1b2OpmSkEzMukGx9Ia9wIbirn4ZVLS7ExacSDZ2LPPpmb4+Y0Ug2ZpkragVuwZZ+MWjn2clDRjo/Q1yNizzMYZrniXlIJmbpBe09Iae1bZOJtrv3dTKWkmJz3oDHLFnkk2zoYt7yklzepGq7aE1tgzx7azYZdHSClodifpTf8mV+zZYuwM7PF4KUbN9BB1572gNfbMsHHNULd/tBSjZn4jveUvOBt7Jhg7F/j3rx4ghag+GINu/isoxdhdZ9s1A+d87vZSjOqLSXrUflCKsTvMxjVXKPu9coWUonpkSNIL10Aptt1NNnYuwDnfvL+kFNQzY5BesQacbeyuMXbNBfjr5s9fIYWkPpokPf8AIBcbd4eNXdoK/H3H199MUorqq0nSw3/7TyAXG3eAjV1zAbh0i9feUlJM6rUpSLd69zEAudjY02Nju7QFYG7td595fUkhBfXeGCU96KsnA5S22tgTZ2O75myAfOYf3np3SYopqB+HJCk+7ItHXA1Q2lJtY0+CjW3X3Bbm3bDmF2+57xJJSkm9OiZJusMbf3XqHBvXNpfq61yU8fy1ltzmyvzrT9jiE8+6TZCk2AT18JgkKd3t1d/f//LC/C5tm3PZuNZaSykl59y2uVRz3fmfJ+/0nbc94ZZRG6cU1N9Ditp45QNf/pnNDrpoQ2Ws+eorT95/s2++94UPuFHSvLGJQf0/pKT5l9/0Yc986ye/8qvt9tj7wDUnnHLaKScdf9QB++yy2S+/96UPv/WlT3rgbVY1us6Qmhg0JGNqohYeU7OkaZIWH5smxaChGmJMTRODFh5iTE2TUoxBm/y/yf//r3kAVlA4IEQLAABQQwCdASoAAQABPm0wlUikP6ShJ3BKw/ANiWNu8p8dlOAP5AsgD8AP0ATmFAP73tFQQ+g5snkbwvzV55u0DN9/qv+N7VfzJ7AH6j9N/zB/sP+4XvPf739mfcn/kPUA/tH9560b9t/YT8t/2a/8Z/2PTOzX7/AdxfJgzP29/ZfLeiFclb8zZezyfftbwcuDbZL26ZMd42yXt0yY7xtkvbpSo8pOrXumTHeNslyj9pbCYnQeAdOp4C7kBi4SWt8AWur8DTGpowFZhjZq8f2Mt2eUU6AJjXg3WKLWC/nrVqLOKH7LubzSLGnwIUWLO/QxoH6d77Yr9SYUv2hyVVU5JqCTR5jhsZqxzn2w6zxowwUB6XoinFm30MVd7E2BpcuPJIZOrBFTtBlfpl+cI+0to1ftmye5EYDVQ+OEkNJJ4bW4jBjfGNnZfo1joaw4HTfwXCOfZAmrIt6DHWuSrRaF6Ky9Tou9pTKd7jbcTCZNMy4PsaWwbMuLh1G5ubm5tIsX2cP5TLYvHS5TyWYw6NXqf2TIsA7dIm6Ex/VeU2oBsaSkY6C39FDg0jk+kTGhPEXJ+umXCG6RhZwPqa0RnB2Jh6lVVyjK29i573xIMEDPqjvKcKxD/e2Lf+vRGqVxIXvME5KVrnDfS8JX1J8mjm33hbmsoL4Uq2gfr2B/Qthz3/RH9HUQTi0Lj4Zz7F2kRuiXdlAuIxumTakn+3xtkvbpkx3jbIoAAP6mqgAAAAE1ZzMMe/PPIyCnPQAi/Hpgk1fgyDGunI5z1TI71N/Q3Pq9ZagpyngKx6awMltCOC4owPa1yGYJjBoTCNnZAxBJdJFJM80or2WF9CRTJJnCWhU/GiYC54Sls2PXMfhfBvaeKCS9MJGKkC2LySaBN/gtRfoI0p183ffYW9swdtiy1/4X96oO62WebQj9Eyu5hFftzNQGoX5mXV50q1nRnfnVo8BPnxNjnf1tdpGsz7F2mS9RLOv4gOj1xWyAA9iyGhvC0Ugjkhzj+QvVN4Bp80kEqnvya3kcC5TqUPdB/vkm/SO8QUBJ7UOiVWIViCOpYDIHb8NE2sBH7BRcvFY6PlStp1JYoxM9YhM7TlWh4KpyPtOBevDG3xOXv4ov9+uJ80RikRTnsnKRQ/PpQDb1Qyeo6esZNjlEHIMfQyX585grPCnMIp54CgBgV7urynZaNDv7m8klCl4apDPv5bGfxh/Bt4bt/U6FfUrLNnSQnJwOjR0Kk6iKuSc+3xuBar7GZjx0tEuA2xoftIBxgxNhgcW1vVC2PcPFEhOxPohlRiwjpQF7pwIWVxACIotjXp3/3iTo/w0AO60U05/14ph2dGp5cUWERLkZHo8hNfMSAQenKqem+BsKXWvQtlqg1wz5YxFxzU1zLijqFQHC7V8awy5HWgaecGDh/dDT7xivnvcG8igBbJVRJjAp8eIxpJc8JVxGAjMu0RKWVGlTZix+T3XUfPxA+J0u1zDejha2EItUfGWp3/YQP/9FZDSh3/TY93/puk1i+RUR7gz2b6zd/ZmlKWfbHqC+wZVbJrJL04y/0TCgl6E51WwCAsNqg/CBD/HWbVre8c9dIc1z7fLjape2WUWYQfwWuK+wseF+GmTr3mT+mRmPa7aKZPCPB3ejiItnNkJSmbW4QVJwp3ykf0P+rhZAZRZSvb3E6gwpS050Fq14Kjqz54UlAvGyaCqKmjV66EbCZ//6Uh3O6PlxfyokduG4ycSgmrRgxWOJx6gu3XFVv8PBKxa/KDohFYOfuTRJ1M4J7doIXG0xNw/kfkRjO581eV4CFL+XWqcWO3vP1MCU4HUMDWbWVGsIzREJl4BEkbX+FQp9So9CHIROC8BlgZy8LtgJS8L34cx3ChVjANVWGx0x3zHt/Sg/CLuMltoRko2ykTEhomT9HReOrsdYYIKIHzceFqCrUeKCz/aYsptwlyCmyfl0DBtUweRLUidyJtbZ652vs3nDi8syJXZGFN7QVf0E4bSGpRzFvDbLgyJZZESvXaXP3t2gZ63CIEU9VYG/an5DItWEg4CN6KEgDxIyRiK03/TjyrSijjw3IQq41zlmoqWVkv8IdAsy3RCthO0LkwILTJMI2h6VJMo/ATrkqwEcpYXA0IE6U2LYCCEysZFmTqpi2JNRnLuO7qzJjxWNdxKtTFVxzTe2/tAtU8qaAVNYy4hCK+w2mDhgimX68Yrkeb/K+ikXJRhrRxWJ0211YjoUxiw4c4X1MF1aT0Y3Ux1vXWXbm7VuMYnkp1f4YGX96Uf3S5xzX0pAtVMXrft+quUHVqybxYMMIr+Zz0d/QBo3qse0s7BSeD5K3q2SeBFTEmu36cxUX5IrE6jDH8mwTkqs2dAwzpO1xkQvfm7C3crWgf1amGtHyBze601c272wnnhCFnzh/1QyyGJt6N5FdQU2F9M4f2OKRqBLQYgYtTpiFfgAAymM6lkwqSuSvt/Ya8NdY06SSkjZ0G/A4GRp0UQM0cTLIQjyVatKvQCDfTkO3bXDqbxCQyvETPPUUP3/eYTKm00gvTOe8ImHX9X3/ANcFRA+fwsW9qO1mwrfzIQlzpD1CqrMmCVkSMOrN0KKGNzA8wgfU9Mp0K5wIx9urdj3LZQoTmRuhPyQFkfvspyUh6oYCmjad3TupajRyFfDl4l0fkfzM9nFc///10H/zf//+tQvBmjv+jjWUdoxEovm+2LOWJE58y3opVtVKkh3+Nmdrnn//g3JD8M6zgcSeosp4jhXwI+/FuJ+YSqhBzSeBym9wL7Ru+xtuNuBtr/8T9ee60J1FSwdsUFxjAjGIZGSMjx+a4NGW6zwNsxN9Gr+oYG2qGsfptVMJkXq+jHRvD15szNsM5qrEn/jKiXj46yhR8epmtTbchWNQrw8FUJjmYCE9MJi+bIzByK7Yu47hp4oTjWS8p+AzPlbdwpwKBtcf5x2LBYLnb2nya4HKwE6TUH+HPGkMZXfG1mjDgmc7Yg51DdAf/Y1pZ3hz4Zybnmdu8YHjz3tJFd7ZucFvq6//5cjmQc4bMmyoj+pqib4nz2Xs90jpKQ94KfBU7NYJLUYNFoxz8XAnwIQ+edaBzE1EjiZQnR+bwVFV8KpJ0Mj9V9oNswhtfh9HNBeNJV3rp0DDXITNva9nxsudajumTL9NvUHOZ+6Or81l1h1dCKLTTBPHECyZ5T2IG9z5pt+yjhQEIhhhdIjxaFNmKEcBm+tPWlYBJVWpHzhXUG7aJT3WivpXTXmC/MwBi9lfoVPUAreFysekqa1vxZk8cp73Rg6Kxp5dGZdhjCDQEFoVYzmF8OEEDexHu+c6tCvea7qzZ+wCxxYZzQBxZj6T5fUuNFi+EwzyRv95oHf5m9eyVWtwj//H2YEJOB1CmGUaapz/sWpblWTX0JfnKLZTELsWFpDjR6ZIs6eF/NF1Nbbwrj7t2eK2gXQwxT4YSYakOVJ2M1w/oVOguCG/U3BirvWk4bcDsNK2HzuKuAiHe7iQ0ymwqh4V2MOz/uJtQwapN6cZR6niW9qoWni03psa2iVT7X7z1ZONM/qP2VlRA12oRyHyHZXqDqpEy9lOac8x5k6RdGsmOesQ/gyDe2uk/R5DXE4UyP8xychTfr+Jok9b2UEVF0eogAS8yuZVAr8W2H0zxy8mnep7VsBbs7XwtIlD0QadugruyBqnKPPDkUPywts5uxAND6i/Kbhv6gUAXKAxcwbPB9rFYCFqNWdlKBecjudKuJBq8Jj8tYMvEdf6cXMvf4SYU3VxDuajYr8pB165aGty1tQA5itg8hJHeaPtz0TYpt3H2OXPv3eYearI8vm54tBp6YjHLuj0Kil5jvNwO1JLyioeU+1VgJ3AAAAAAAAAAAARVhJRroAAABFeGlmAABJSSoACAAAAAYAEgEDAAEAAAABAAAAGgEFAAEAAABWAAAAGwEFAAEAAABeAAAAKAEDAAEAAAACAAAAEwIDAAEAAAABAAAAaYcEAAEAAABmAAAAAAAAAEgAAAABAAAASAAAAAEAAAAGAACQBwAEAAAAMDIxMAGRBwAEAAAAAQIDAACgBwAEAAAAMDEwMAGgAwABAAAA//8AAAKgBAABAAAAAAEAAAOgBAABAAAAAAEAAAAAAAA=;container=0;" parent="sW3DkYA1sAx3PCCbiGF8-17" vertex="1">
          <mxGeometry x="155.92999999999995" y="127" width="44.07" height="44.07" as="geometry" />
        </mxCell>
        <mxCell id="sW3DkYA1sAx3PCCbiGF8-23" value="" style="endArrow=classic;startArrow=classic;html=1;rounded=0;entryX=0.5;entryY=1;entryDx=0;entryDy=0;" parent="sW3DkYA1sAx3PCCbiGF8-17" source="sW3DkYA1sAx3PCCbiGF8-21" target="sW3DkYA1sAx3PCCbiGF8-19" edge="1">
          <mxGeometry width="50" height="50" relative="1" as="geometry">
            <mxPoint x="190" y="107" as="sourcePoint" />
            <mxPoint x="240" y="57" as="targetPoint" />
          </mxGeometry>
        </mxCell>
        <mxCell id="sW3DkYA1sAx3PCCbiGF8-24" value="&lt;span style=&quot;font-size: 18px;&quot;&gt;Delivery Methods&lt;/span&gt;" style="text;html=1;align=center;verticalAlign=middle;resizable=0;points=[];autosize=1;strokeColor=none;fillColor=none;" parent="sW3DkYA1sAx3PCCbiGF8-17" vertex="1">
          <mxGeometry x="20" width="160" height="40" as="geometry" />
        </mxCell>
        <mxCell id="kLsyt0Qd7WfUFBoRi8lW-2" value="" style="endArrow=classic;startArrow=classic;html=1;rounded=0;exitX=0;exitY=0.5;exitDx=0;exitDy=0;entryX=1;entryY=0.5;entryDx=0;entryDy=0;edgeStyle=orthogonalEdgeStyle;" parent="1" source="sW3DkYA1sAx3PCCbiGF8-2" target="J6oPv5elQKLaFBjouUGu-38" edge="1">
          <mxGeometry width="50" height="50" relative="1" as="geometry">
            <mxPoint x="720" y="710" as="sourcePoint" />
            <mxPoint x="760" y="520" as="targetPoint" />
          </mxGeometry>
        </mxCell>
        <mxCell id="kLsyt0Qd7WfUFBoRi8lW-4" value="" style="endArrow=classic;startArrow=classic;html=1;rounded=0;exitX=1;exitY=0.75;exitDx=0;exitDy=0;entryX=0;entryY=0.5;entryDx=0;entryDy=0;" parent="1" source="J6oPv5elQKLaFBjouUGu-38" target="sW3DkYA1sAx3PCCbiGF8-18" edge="1">
          <mxGeometry width="50" height="50" relative="1" as="geometry">
            <mxPoint x="850" y="730" as="sourcePoint" />
            <mxPoint x="930" y="630" as="targetPoint" />
          </mxGeometry>
        </mxCell>
        <mxCell id="sW3DkYA1sAx3PCCbiGF8-1" value="" style="group" parent="1" vertex="1" connectable="0">
          <mxGeometry x="940.0000000000002" y="509.9999999999998" width="200" height="227" as="geometry" />
        </mxCell>
        <mxCell id="sW3DkYA1sAx3PCCbiGF8-2" value="" style="rounded=1;whiteSpace=wrap;html=1;fillColor=#ffe6cc;strokeColor=#d79b00;container=0;" parent="sW3DkYA1sAx3PCCbiGF8-1" vertex="1">
          <mxGeometry y="37" width="200" height="190" as="geometry" />
        </mxCell>
        <mxCell id="sW3DkYA1sAx3PCCbiGF8-3" value="&lt;p style=&quot;line-height: 100%;&quot;&gt;&lt;span style=&quot;font-size: 18px;&quot;&gt;Node.js App&lt;/span&gt;&lt;/p&gt;" style="rounded=1;whiteSpace=wrap;html=1;fillColor=#dae8fc;strokeColor=#6c8ebf;movable=1;resizable=1;rotatable=1;deletable=1;editable=1;locked=0;connectable=1;container=0;" parent="sW3DkYA1sAx3PCCbiGF8-1" vertex="1">
          <mxGeometry x="22" y="57" width="156" height="60" as="geometry" />
        </mxCell>
        <mxCell id="sW3DkYA1sAx3PCCbiGF8-4" value="" style="shape=image;verticalLabelPosition=bottom;labelBackgroundColor=default;verticalAlign=top;aspect=fixed;imageAspect=0;image=data:image/png,UklGRpYVAABXRUJQVlA4WAoAAAAYAAAA/wAA/wAAQUxQSGkJAAABwIZtm2lLkt6IWOls27Zt27Zt27ZtlW3bysyasu1qd2cWzoqI9/mRp87ZWHutcUbEBGiT/zf5f5MZ45jD0El61RnHrBnjcf+x7/KB0+ijjPmfqwbP+5krY8xctnLwfIBsRl+5YpP//gfcBwdauM6lg22h754JQXFGfHG/XXabzF13336LLefd6vdrqd0XJMXZcBhTacbZEY0edtLjFMMs2Iu5PPkVu+OSbnUB7VukOAP2odCxnRC0bA3XwvelNMyk7WmphT1XKQ2xpI/T2rjlhFurGV5R989UbGi54G5qBlfQPmQMNi2X30vNwEp6DsU2YNNy2V2VhlXQQRTMxjYt591CaUhFPRrbzG/TsmaZwoBK+jl5Adi0bKcu7x9afRHVLNB25jNKgynpmVQvCGPzZKXh9B1as3BTOO/6CgNJOpLCYk3LLxWHUdDN/429KLvyRKVBFPVkbBZtCseqq/tGo3eRR4CdeaPSEEr6Di2joHDqEg2hoK3JHgF25rVKA0g6mDIaCoerm3tHOoHCSG3zSMUBtOwc6qgy31WantSMXPt20g3CkmbUE7DiklFB5YxGXbw7uXsu0zSvvGxkNn6o4rQs+fS3vj7ab3zja+dSu8as/+aXvjLaL3/1izcd34qLR4YzH1IjhZiaFEMIIaYmxTAZq+YYo+lcM857K4xr2dmjI7OZliaNMDZhfCsvZq4ddcVdY9yOeq5suMf44jrKqFw4XlK8+WNf+4nv/X7bnXfZ4U8/+dxbnnzbRpJSGNflVHqgmZsA7UvxqMxfH/rG3x3/bxZ59Sl/euc9JMU4DKJ+T2bUxi0bl7bN87ZtMcDckR+9gxTjEGj0JVqPCkNpi21jA8a2a87A+s0eJqXQ/5JeQxmZsY3NIm3skoGt7y2l3hf1wIo9ojHa2Nm0372Rep+08kLqxAE2znDJu/pf0PZkptLG13Jw/2v0frI9DWDbD+5/QfeYY0pMZhv1P0kHU5hG29QHDoGkt5HtaaDlt0oDIOiGl1LtiTOVf9xOYQAo6Uu0TJxN5j1KGgJBN7uSiifLpmUvjbFfKemD5AmzyVx2S8WBIGktmUm2KfixShoKS3Xnf1InyKbAK9RoICRJL7tikmwyvFFJgyAmSc87DCqTakMLr1TSAIhJ0vXecAyUiifEpmaufLyS+l5ooiQ97DsXQSnGk2HjFva/jRqNNWhVf7in4qJCjE3Sxksf8fnjgFKMzSTadjYbPiwljXtlf7iHwqLmX3H/t/3ubIBcjc0E2nbNwJZ3lqLGHLSqP9xdiwxLVtzs/s985/f2vrgA5GJjxm9j11yg7vRIKWnBT193xFEjPPKYOdwP6rEHHbLAgw854tjTLl2fmbfkamPGbGPbNWcDl/74AVKMWvjHGLXphWa0zm2pNjYjNy7z5ty2xWx88WYvu4EUoxb7ea4pIzXuA8Zl0bXaNjZjNWbhV5+546eesFpSilr8b8gMT5t6wL6HHX7w/rv86UefftNTbrdEkmLSSPekeHhQOESLDE3UqA+mMDjtwuuUNgoxNSkGjfMM6vCgcsFqhY0m8a94cNiZLytpUq8ZJGy4k8LElOFhZ36vqIn1EIGHDDmT2U1RA86VJw05k9lfQRNcBocrz1CapGsGhskcoKBJ/tvQcOWpShN1KnVImMweCprogykeEjaPVJys3QeFyWyuqMn+ES2D0TZX323iPkXr4UDLN5Q04a+mDgZTuegGCpP2WBgOzrxRSZN+iw2DwWQO0hQ2p1M9CGxTH6w4edqBzDCg5RtKmsIv0HoImMIZyxWm4YXUIWC78jQlTeNtr8IeALT8VEnTuYbS/0zhrFUKU5H0Q9reZ2yeqKQpeRHV7nc2LV9X0nQG3fzv9D4yR2p6g3Yh0+tN5d93U5yaRu8g2z3OuPJKNZraoNuvp8/ZtPxQSVMctCuZ3m7TcqgUpinp1RS7t1G47FaKmu7rXUzta6ZSH62k6U76PtnuZcaVN6rRlEfdO9PPjDNfVtLUR+1Ixv3LpuVP6sKox2H3L5uWfaTQAQrak4x7lk3LmhWK6sKoJ1Hds2xaTr+JkroxaD8y7lM2LeffVkkdmfRkqu3+ZNNyyZ3UqDOj/kRLf7JpueSuatSdQbf6GxX3JJuWC++iRl3a6F1k7F5kaDnr9mrUrUH7kulFxi0n3EKNOjbqzuupuPfYOHPwaiV1btKbybZ7jk0tbBeV1MFRW9Bi9xqbAt+Toro4aPUZZHqNTYb3SFHdnPSAOSruLTZu+fszFIO6utFrqcY9xaZmjr+zGnV40pfJxr3EJsMfl6pRx29Bi90/bNyS3yUldXuQ9qPF7hs2pXLqgxSDuj5qxXG02L3Cxi38YrkazcCkGxxPi90jbErhshdJSTMx6UYn0IL7go1b2OpmSkEzMukGx9Ia9wIbirn4ZVLS7ExacSDZ2LPPpmb4+Y0Ug2ZpkragVuwZZ+MWjn2clDRjo/Q1yNizzMYZrniXlIJmbpBe09Iae1bZOJtrv3dTKWkmJz3oDHLFnkk2zoYt7yklzepGq7aE1tgzx7azYZdHSClodifpTf8mV+zZYuwM7PF4KUbN9BB1572gNfbMsHHNULd/tBSjZn4jveUvOBt7Jhg7F/j3rx4ghag+GINu/isoxdhdZ9s1A+d87vZSjOqLSXrUflCKsTvMxjVXKPu9coWUonpkSNIL10Aptt1NNnYuwDnfvL+kFNQzY5BesQacbeyuMXbNBfjr5s9fIYWkPpokPf8AIBcbd4eNXdoK/H3H199MUorqq0nSw3/7TyAXG3eAjV1zAbh0i9feUlJM6rUpSLd69zEAudjY02Nju7QFYG7td595fUkhBfXeGCU96KsnA5S22tgTZ2O75myAfOYf3np3SYopqB+HJCk+7ItHXA1Q2lJtY0+CjW3X3Bbm3bDmF2+57xJJSkm9OiZJusMbf3XqHBvXNpfq61yU8fy1ltzmyvzrT9jiE8+6TZCk2AT18JgkKd3t1d/f//LC/C5tm3PZuNZaSykl59y2uVRz3fmfJ+/0nbc94ZZRG6cU1N9Ditp45QNf/pnNDrpoQ2Ws+eorT95/s2++94UPuFHSvLGJQf0/pKT5l9/0Yc986ye/8qvt9tj7wDUnnHLaKScdf9QB++yy2S+/96UPv/WlT3rgbVY1us6Qmhg0JGNqohYeU7OkaZIWH5smxaChGmJMTRODFh5iTE2TUoxBm/y/yf//r3kAVlA4IEQLAABQQwCdASoAAQABPm0wlUikP6ShJ3BKw/ANiWNu8p8dlOAP5AsgD8AP0ATmFAP73tFQQ+g5snkbwvzV55u0DN9/qv+N7VfzJ7AH6j9N/zB/sP+4XvPf739mfcn/kPUA/tH9560b9t/YT8t/2a/8Z/2PTOzX7/AdxfJgzP29/ZfLeiFclb8zZezyfftbwcuDbZL26ZMd42yXt0yY7xtkvbpSo8pOrXumTHeNslyj9pbCYnQeAdOp4C7kBi4SWt8AWur8DTGpowFZhjZq8f2Mt2eUU6AJjXg3WKLWC/nrVqLOKH7LubzSLGnwIUWLO/QxoH6d77Yr9SYUv2hyVVU5JqCTR5jhsZqxzn2w6zxowwUB6XoinFm30MVd7E2BpcuPJIZOrBFTtBlfpl+cI+0to1ftmye5EYDVQ+OEkNJJ4bW4jBjfGNnZfo1joaw4HTfwXCOfZAmrIt6DHWuSrRaF6Ky9Tou9pTKd7jbcTCZNMy4PsaWwbMuLh1G5ubm5tIsX2cP5TLYvHS5TyWYw6NXqf2TIsA7dIm6Ex/VeU2oBsaSkY6C39FDg0jk+kTGhPEXJ+umXCG6RhZwPqa0RnB2Jh6lVVyjK29i573xIMEDPqjvKcKxD/e2Lf+vRGqVxIXvME5KVrnDfS8JX1J8mjm33hbmsoL4Uq2gfr2B/Qthz3/RH9HUQTi0Lj4Zz7F2kRuiXdlAuIxumTakn+3xtkvbpkx3jbIoAAP6mqgAAAAE1ZzMMe/PPIyCnPQAi/Hpgk1fgyDGunI5z1TI71N/Q3Pq9ZagpyngKx6awMltCOC4owPa1yGYJjBoTCNnZAxBJdJFJM80or2WF9CRTJJnCWhU/GiYC54Sls2PXMfhfBvaeKCS9MJGKkC2LySaBN/gtRfoI0p183ffYW9swdtiy1/4X96oO62WebQj9Eyu5hFftzNQGoX5mXV50q1nRnfnVo8BPnxNjnf1tdpGsz7F2mS9RLOv4gOj1xWyAA9iyGhvC0Ugjkhzj+QvVN4Bp80kEqnvya3kcC5TqUPdB/vkm/SO8QUBJ7UOiVWIViCOpYDIHb8NE2sBH7BRcvFY6PlStp1JYoxM9YhM7TlWh4KpyPtOBevDG3xOXv4ov9+uJ80RikRTnsnKRQ/PpQDb1Qyeo6esZNjlEHIMfQyX585grPCnMIp54CgBgV7urynZaNDv7m8klCl4apDPv5bGfxh/Bt4bt/U6FfUrLNnSQnJwOjR0Kk6iKuSc+3xuBar7GZjx0tEuA2xoftIBxgxNhgcW1vVC2PcPFEhOxPohlRiwjpQF7pwIWVxACIotjXp3/3iTo/w0AO60U05/14ph2dGp5cUWERLkZHo8hNfMSAQenKqem+BsKXWvQtlqg1wz5YxFxzU1zLijqFQHC7V8awy5HWgaecGDh/dDT7xivnvcG8igBbJVRJjAp8eIxpJc8JVxGAjMu0RKWVGlTZix+T3XUfPxA+J0u1zDejha2EItUfGWp3/YQP/9FZDSh3/TY93/puk1i+RUR7gz2b6zd/ZmlKWfbHqC+wZVbJrJL04y/0TCgl6E51WwCAsNqg/CBD/HWbVre8c9dIc1z7fLjape2WUWYQfwWuK+wseF+GmTr3mT+mRmPa7aKZPCPB3ejiItnNkJSmbW4QVJwp3ykf0P+rhZAZRZSvb3E6gwpS050Fq14Kjqz54UlAvGyaCqKmjV66EbCZ//6Uh3O6PlxfyokduG4ycSgmrRgxWOJx6gu3XFVv8PBKxa/KDohFYOfuTRJ1M4J7doIXG0xNw/kfkRjO581eV4CFL+XWqcWO3vP1MCU4HUMDWbWVGsIzREJl4BEkbX+FQp9So9CHIROC8BlgZy8LtgJS8L34cx3ChVjANVWGx0x3zHt/Sg/CLuMltoRko2ykTEhomT9HReOrsdYYIKIHzceFqCrUeKCz/aYsptwlyCmyfl0DBtUweRLUidyJtbZ652vs3nDi8syJXZGFN7QVf0E4bSGpRzFvDbLgyJZZESvXaXP3t2gZ63CIEU9VYG/an5DItWEg4CN6KEgDxIyRiK03/TjyrSijjw3IQq41zlmoqWVkv8IdAsy3RCthO0LkwILTJMI2h6VJMo/ATrkqwEcpYXA0IE6U2LYCCEysZFmTqpi2JNRnLuO7qzJjxWNdxKtTFVxzTe2/tAtU8qaAVNYy4hCK+w2mDhgimX68Yrkeb/K+ikXJRhrRxWJ0211YjoUxiw4c4X1MF1aT0Y3Ux1vXWXbm7VuMYnkp1f4YGX96Uf3S5xzX0pAtVMXrft+quUHVqybxYMMIr+Zz0d/QBo3qse0s7BSeD5K3q2SeBFTEmu36cxUX5IrE6jDH8mwTkqs2dAwzpO1xkQvfm7C3crWgf1amGtHyBze601c272wnnhCFnzh/1QyyGJt6N5FdQU2F9M4f2OKRqBLQYgYtTpiFfgAAymM6lkwqSuSvt/Ya8NdY06SSkjZ0G/A4GRp0UQM0cTLIQjyVatKvQCDfTkO3bXDqbxCQyvETPPUUP3/eYTKm00gvTOe8ImHX9X3/ANcFRA+fwsW9qO1mwrfzIQlzpD1CqrMmCVkSMOrN0KKGNzA8wgfU9Mp0K5wIx9urdj3LZQoTmRuhPyQFkfvspyUh6oYCmjad3TupajRyFfDl4l0fkfzM9nFc///10H/zf//+tQvBmjv+jjWUdoxEovm+2LOWJE58y3opVtVKkh3+Nmdrnn//g3JD8M6zgcSeosp4jhXwI+/FuJ+YSqhBzSeBym9wL7Ru+xtuNuBtr/8T9ee60J1FSwdsUFxjAjGIZGSMjx+a4NGW6zwNsxN9Gr+oYG2qGsfptVMJkXq+jHRvD15szNsM5qrEn/jKiXj46yhR8epmtTbchWNQrw8FUJjmYCE9MJi+bIzByK7Yu47hp4oTjWS8p+AzPlbdwpwKBtcf5x2LBYLnb2nya4HKwE6TUH+HPGkMZXfG1mjDgmc7Yg51DdAf/Y1pZ3hz4Zybnmdu8YHjz3tJFd7ZucFvq6//5cjmQc4bMmyoj+pqib4nz2Xs90jpKQ94KfBU7NYJLUYNFoxz8XAnwIQ+edaBzE1EjiZQnR+bwVFV8KpJ0Mj9V9oNswhtfh9HNBeNJV3rp0DDXITNva9nxsudajumTL9NvUHOZ+6Or81l1h1dCKLTTBPHECyZ5T2IG9z5pt+yjhQEIhhhdIjxaFNmKEcBm+tPWlYBJVWpHzhXUG7aJT3WivpXTXmC/MwBi9lfoVPUAreFysekqa1vxZk8cp73Rg6Kxp5dGZdhjCDQEFoVYzmF8OEEDexHu+c6tCvea7qzZ+wCxxYZzQBxZj6T5fUuNFi+EwzyRv95oHf5m9eyVWtwj//H2YEJOB1CmGUaapz/sWpblWTX0JfnKLZTELsWFpDjR6ZIs6eF/NF1Nbbwrj7t2eK2gXQwxT4YSYakOVJ2M1w/oVOguCG/U3BirvWk4bcDsNK2HzuKuAiHe7iQ0ymwqh4V2MOz/uJtQwapN6cZR6niW9qoWni03psa2iVT7X7z1ZONM/qP2VlRA12oRyHyHZXqDqpEy9lOac8x5k6RdGsmOesQ/gyDe2uk/R5DXE4UyP8xychTfr+Jok9b2UEVF0eogAS8yuZVAr8W2H0zxy8mnep7VsBbs7XwtIlD0QadugruyBqnKPPDkUPywts5uxAND6i/Kbhv6gUAXKAxcwbPB9rFYCFqNWdlKBecjudKuJBq8Jj8tYMvEdf6cXMvf4SYU3VxDuajYr8pB165aGty1tQA5itg8hJHeaPtz0TYpt3H2OXPv3eYearI8vm54tBp6YjHLuj0Kil5jvNwO1JLyioeU+1VgJ3AAAAAAAAAAAARVhJRroAAABFeGlmAABJSSoACAAAAAYAEgEDAAEAAAABAAAAGgEFAAEAAABWAAAAGwEFAAEAAABeAAAAKAEDAAEAAAACAAAAEwIDAAEAAAABAAAAaYcEAAEAAABmAAAAAAAAAEgAAAABAAAASAAAAAEAAAAGAACQBwAEAAAAMDIxMAGRBwAEAAAAAQIDAACgBwAEAAAAMDEwMAGgAwABAAAA//8AAAKgBAABAAAAAAEAAAOgBAABAAAAAAEAAAAAAAA=;container=0;" parent="sW3DkYA1sAx3PCCbiGF8-1" vertex="1">
          <mxGeometry x="155.93" y="37" width="44.07" height="44.07" as="geometry" />
        </mxCell>
        <mxCell id="sW3DkYA1sAx3PCCbiGF8-5" value="&lt;p style=&quot;line-height: 100%;&quot;&gt;&lt;font face=&quot;Helvetica&quot; style=&quot;font-size: 18px;&quot;&gt;MongoDB&lt;/font&gt;&lt;/p&gt;" style="rounded=1;whiteSpace=wrap;html=1;fillColor=#dae8fc;strokeColor=#6c8ebf;container=0;" parent="sW3DkYA1sAx3PCCbiGF8-1" vertex="1">
          <mxGeometry x="22" y="147" width="156" height="60" as="geometry" />
        </mxCell>
        <mxCell id="sW3DkYA1sAx3PCCbiGF8-6" value="" style="shape=image;verticalLabelPosition=bottom;labelBackgroundColor=default;verticalAlign=top;aspect=fixed;imageAspect=0;image=data:image/png,UklGRpYVAABXRUJQVlA4WAoAAAAYAAAA/wAA/wAAQUxQSGkJAAABwIZtm2lLkt6IWOls27Zt27Zt27ZtlW3bysyasu1qd2cWzoqI9/mRp87ZWHutcUbEBGiT/zf5f5MZ45jD0El61RnHrBnjcf+x7/KB0+ijjPmfqwbP+5krY8xctnLwfIBsRl+5YpP//gfcBwdauM6lg22h754JQXFGfHG/XXabzF13336LLefd6vdrqd0XJMXZcBhTacbZEY0edtLjFMMs2Iu5PPkVu+OSbnUB7VukOAP2odCxnRC0bA3XwvelNMyk7WmphT1XKQ2xpI/T2rjlhFurGV5R989UbGi54G5qBlfQPmQMNi2X30vNwEp6DsU2YNNy2V2VhlXQQRTMxjYt591CaUhFPRrbzG/TsmaZwoBK+jl5Adi0bKcu7x9afRHVLNB25jNKgynpmVQvCGPzZKXh9B1as3BTOO/6CgNJOpLCYk3LLxWHUdDN/429KLvyRKVBFPVkbBZtCseqq/tGo3eRR4CdeaPSEEr6Di2joHDqEg2hoK3JHgF25rVKA0g6mDIaCoerm3tHOoHCSG3zSMUBtOwc6qgy31WantSMXPt20g3CkmbUE7DiklFB5YxGXbw7uXsu0zSvvGxkNn6o4rQs+fS3vj7ab3zja+dSu8as/+aXvjLaL3/1izcd34qLR4YzH1IjhZiaFEMIIaYmxTAZq+YYo+lcM857K4xr2dmjI7OZliaNMDZhfCsvZq4ddcVdY9yOeq5suMf44jrKqFw4XlK8+WNf+4nv/X7bnXfZ4U8/+dxbnnzbRpJSGNflVHqgmZsA7UvxqMxfH/rG3x3/bxZ59Sl/euc9JMU4DKJ+T2bUxi0bl7bN87ZtMcDckR+9gxTjEGj0JVqPCkNpi21jA8a2a87A+s0eJqXQ/5JeQxmZsY3NIm3skoGt7y2l3hf1wIo9ojHa2Nm0372Rep+08kLqxAE2znDJu/pf0PZkptLG13Jw/2v0frI9DWDbD+5/QfeYY0pMZhv1P0kHU5hG29QHDoGkt5HtaaDlt0oDIOiGl1LtiTOVf9xOYQAo6Uu0TJxN5j1KGgJBN7uSiifLpmUvjbFfKemD5AmzyVx2S8WBIGktmUm2KfixShoKS3Xnf1InyKbAK9RoICRJL7tikmwyvFFJgyAmSc87DCqTakMLr1TSAIhJ0vXecAyUiifEpmaufLyS+l5ooiQ97DsXQSnGk2HjFva/jRqNNWhVf7in4qJCjE3Sxksf8fnjgFKMzSTadjYbPiwljXtlf7iHwqLmX3H/t/3ubIBcjc0E2nbNwJZ3lqLGHLSqP9xdiwxLVtzs/s985/f2vrgA5GJjxm9j11yg7vRIKWnBT193xFEjPPKYOdwP6rEHHbLAgw854tjTLl2fmbfkamPGbGPbNWcDl/74AVKMWvjHGLXphWa0zm2pNjYjNy7z5ty2xWx88WYvu4EUoxb7ea4pIzXuA8Zl0bXaNjZjNWbhV5+546eesFpSilr8b8gMT5t6wL6HHX7w/rv86UefftNTbrdEkmLSSPekeHhQOESLDE3UqA+mMDjtwuuUNgoxNSkGjfMM6vCgcsFqhY0m8a94cNiZLytpUq8ZJGy4k8LElOFhZ36vqIn1EIGHDDmT2U1RA86VJw05k9lfQRNcBocrz1CapGsGhskcoKBJ/tvQcOWpShN1KnVImMweCprogykeEjaPVJys3QeFyWyuqMn+ES2D0TZX323iPkXr4UDLN5Q04a+mDgZTuegGCpP2WBgOzrxRSZN+iw2DwWQO0hQ2p1M9CGxTH6w4edqBzDCg5RtKmsIv0HoImMIZyxWm4YXUIWC78jQlTeNtr8IeALT8VEnTuYbS/0zhrFUKU5H0Q9reZ2yeqKQpeRHV7nc2LV9X0nQG3fzv9D4yR2p6g3Yh0+tN5d93U5yaRu8g2z3OuPJKNZraoNuvp8/ZtPxQSVMctCuZ3m7TcqgUpinp1RS7t1G47FaKmu7rXUzta6ZSH62k6U76PtnuZcaVN6rRlEfdO9PPjDNfVtLUR+1Ixv3LpuVP6sKox2H3L5uWfaTQAQrak4x7lk3LmhWK6sKoJ1Hds2xaTr+JkroxaD8y7lM2LeffVkkdmfRkqu3+ZNNyyZ3UqDOj/kRLf7JpueSuatSdQbf6GxX3JJuWC++iRl3a6F1k7F5kaDnr9mrUrUH7kulFxi0n3EKNOjbqzuupuPfYOHPwaiV1btKbybZ7jk0tbBeV1MFRW9Bi9xqbAt+Toro4aPUZZHqNTYb3SFHdnPSAOSruLTZu+fszFIO6utFrqcY9xaZmjr+zGnV40pfJxr3EJsMfl6pRx29Bi90/bNyS3yUldXuQ9qPF7hs2pXLqgxSDuj5qxXG02L3Cxi38YrkazcCkGxxPi90jbErhshdJSTMx6UYn0IL7go1b2OpmSkEzMukGx9Ia9wIbirn4ZVLS7ExacSDZ2LPPpmb4+Y0Ug2ZpkragVuwZZ+MWjn2clDRjo/Q1yNizzMYZrniXlIJmbpBe09Iae1bZOJtrv3dTKWkmJz3oDHLFnkk2zoYt7yklzepGq7aE1tgzx7azYZdHSClodifpTf8mV+zZYuwM7PF4KUbN9BB1572gNfbMsHHNULd/tBSjZn4jveUvOBt7Jhg7F/j3rx4ghag+GINu/isoxdhdZ9s1A+d87vZSjOqLSXrUflCKsTvMxjVXKPu9coWUonpkSNIL10Aptt1NNnYuwDnfvL+kFNQzY5BesQacbeyuMXbNBfjr5s9fIYWkPpokPf8AIBcbd4eNXdoK/H3H199MUorqq0nSw3/7TyAXG3eAjV1zAbh0i9feUlJM6rUpSLd69zEAudjY02Nju7QFYG7td595fUkhBfXeGCU96KsnA5S22tgTZ2O75myAfOYf3np3SYopqB+HJCk+7ItHXA1Q2lJtY0+CjW3X3Bbm3bDmF2+57xJJSkm9OiZJusMbf3XqHBvXNpfq61yU8fy1ltzmyvzrT9jiE8+6TZCk2AT18JgkKd3t1d/f//LC/C5tm3PZuNZaSykl59y2uVRz3fmfJ+/0nbc94ZZRG6cU1N9Ditp45QNf/pnNDrpoQ2Ws+eorT95/s2++94UPuFHSvLGJQf0/pKT5l9/0Yc986ye/8qvt9tj7wDUnnHLaKScdf9QB++yy2S+/96UPv/WlT3rgbVY1us6Qmhg0JGNqohYeU7OkaZIWH5smxaChGmJMTRODFh5iTE2TUoxBm/y/yf//r3kAVlA4IEQLAABQQwCdASoAAQABPm0wlUikP6ShJ3BKw/ANiWNu8p8dlOAP5AsgD8AP0ATmFAP73tFQQ+g5snkbwvzV55u0DN9/qv+N7VfzJ7AH6j9N/zB/sP+4XvPf739mfcn/kPUA/tH9560b9t/YT8t/2a/8Z/2PTOzX7/AdxfJgzP29/ZfLeiFclb8zZezyfftbwcuDbZL26ZMd42yXt0yY7xtkvbpSo8pOrXumTHeNslyj9pbCYnQeAdOp4C7kBi4SWt8AWur8DTGpowFZhjZq8f2Mt2eUU6AJjXg3WKLWC/nrVqLOKH7LubzSLGnwIUWLO/QxoH6d77Yr9SYUv2hyVVU5JqCTR5jhsZqxzn2w6zxowwUB6XoinFm30MVd7E2BpcuPJIZOrBFTtBlfpl+cI+0to1ftmye5EYDVQ+OEkNJJ4bW4jBjfGNnZfo1joaw4HTfwXCOfZAmrIt6DHWuSrRaF6Ky9Tou9pTKd7jbcTCZNMy4PsaWwbMuLh1G5ubm5tIsX2cP5TLYvHS5TyWYw6NXqf2TIsA7dIm6Ex/VeU2oBsaSkY6C39FDg0jk+kTGhPEXJ+umXCG6RhZwPqa0RnB2Jh6lVVyjK29i573xIMEDPqjvKcKxD/e2Lf+vRGqVxIXvME5KVrnDfS8JX1J8mjm33hbmsoL4Uq2gfr2B/Qthz3/RH9HUQTi0Lj4Zz7F2kRuiXdlAuIxumTakn+3xtkvbpkx3jbIoAAP6mqgAAAAE1ZzMMe/PPIyCnPQAi/Hpgk1fgyDGunI5z1TI71N/Q3Pq9ZagpyngKx6awMltCOC4owPa1yGYJjBoTCNnZAxBJdJFJM80or2WF9CRTJJnCWhU/GiYC54Sls2PXMfhfBvaeKCS9MJGKkC2LySaBN/gtRfoI0p183ffYW9swdtiy1/4X96oO62WebQj9Eyu5hFftzNQGoX5mXV50q1nRnfnVo8BPnxNjnf1tdpGsz7F2mS9RLOv4gOj1xWyAA9iyGhvC0Ugjkhzj+QvVN4Bp80kEqnvya3kcC5TqUPdB/vkm/SO8QUBJ7UOiVWIViCOpYDIHb8NE2sBH7BRcvFY6PlStp1JYoxM9YhM7TlWh4KpyPtOBevDG3xOXv4ov9+uJ80RikRTnsnKRQ/PpQDb1Qyeo6esZNjlEHIMfQyX585grPCnMIp54CgBgV7urynZaNDv7m8klCl4apDPv5bGfxh/Bt4bt/U6FfUrLNnSQnJwOjR0Kk6iKuSc+3xuBar7GZjx0tEuA2xoftIBxgxNhgcW1vVC2PcPFEhOxPohlRiwjpQF7pwIWVxACIotjXp3/3iTo/w0AO60U05/14ph2dGp5cUWERLkZHo8hNfMSAQenKqem+BsKXWvQtlqg1wz5YxFxzU1zLijqFQHC7V8awy5HWgaecGDh/dDT7xivnvcG8igBbJVRJjAp8eIxpJc8JVxGAjMu0RKWVGlTZix+T3XUfPxA+J0u1zDejha2EItUfGWp3/YQP/9FZDSh3/TY93/puk1i+RUR7gz2b6zd/ZmlKWfbHqC+wZVbJrJL04y/0TCgl6E51WwCAsNqg/CBD/HWbVre8c9dIc1z7fLjape2WUWYQfwWuK+wseF+GmTr3mT+mRmPa7aKZPCPB3ejiItnNkJSmbW4QVJwp3ykf0P+rhZAZRZSvb3E6gwpS050Fq14Kjqz54UlAvGyaCqKmjV66EbCZ//6Uh3O6PlxfyokduG4ycSgmrRgxWOJx6gu3XFVv8PBKxa/KDohFYOfuTRJ1M4J7doIXG0xNw/kfkRjO581eV4CFL+XWqcWO3vP1MCU4HUMDWbWVGsIzREJl4BEkbX+FQp9So9CHIROC8BlgZy8LtgJS8L34cx3ChVjANVWGx0x3zHt/Sg/CLuMltoRko2ykTEhomT9HReOrsdYYIKIHzceFqCrUeKCz/aYsptwlyCmyfl0DBtUweRLUidyJtbZ652vs3nDi8syJXZGFN7QVf0E4bSGpRzFvDbLgyJZZESvXaXP3t2gZ63CIEU9VYG/an5DItWEg4CN6KEgDxIyRiK03/TjyrSijjw3IQq41zlmoqWVkv8IdAsy3RCthO0LkwILTJMI2h6VJMo/ATrkqwEcpYXA0IE6U2LYCCEysZFmTqpi2JNRnLuO7qzJjxWNdxKtTFVxzTe2/tAtU8qaAVNYy4hCK+w2mDhgimX68Yrkeb/K+ikXJRhrRxWJ0211YjoUxiw4c4X1MF1aT0Y3Ux1vXWXbm7VuMYnkp1f4YGX96Uf3S5xzX0pAtVMXrft+quUHVqybxYMMIr+Zz0d/QBo3qse0s7BSeD5K3q2SeBFTEmu36cxUX5IrE6jDH8mwTkqs2dAwzpO1xkQvfm7C3crWgf1amGtHyBze601c272wnnhCFnzh/1QyyGJt6N5FdQU2F9M4f2OKRqBLQYgYtTpiFfgAAymM6lkwqSuSvt/Ya8NdY06SSkjZ0G/A4GRp0UQM0cTLIQjyVatKvQCDfTkO3bXDqbxCQyvETPPUUP3/eYTKm00gvTOe8ImHX9X3/ANcFRA+fwsW9qO1mwrfzIQlzpD1CqrMmCVkSMOrN0KKGNzA8wgfU9Mp0K5wIx9urdj3LZQoTmRuhPyQFkfvspyUh6oYCmjad3TupajRyFfDl4l0fkfzM9nFc///10H/zf//+tQvBmjv+jjWUdoxEovm+2LOWJE58y3opVtVKkh3+Nmdrnn//g3JD8M6zgcSeosp4jhXwI+/FuJ+YSqhBzSeBym9wL7Ru+xtuNuBtr/8T9ee60J1FSwdsUFxjAjGIZGSMjx+a4NGW6zwNsxN9Gr+oYG2qGsfptVMJkXq+jHRvD15szNsM5qrEn/jKiXj46yhR8epmtTbchWNQrw8FUJjmYCE9MJi+bIzByK7Yu47hp4oTjWS8p+AzPlbdwpwKBtcf5x2LBYLnb2nya4HKwE6TUH+HPGkMZXfG1mjDgmc7Yg51DdAf/Y1pZ3hz4Zybnmdu8YHjz3tJFd7ZucFvq6//5cjmQc4bMmyoj+pqib4nz2Xs90jpKQ94KfBU7NYJLUYNFoxz8XAnwIQ+edaBzE1EjiZQnR+bwVFV8KpJ0Mj9V9oNswhtfh9HNBeNJV3rp0DDXITNva9nxsudajumTL9NvUHOZ+6Or81l1h1dCKLTTBPHECyZ5T2IG9z5pt+yjhQEIhhhdIjxaFNmKEcBm+tPWlYBJVWpHzhXUG7aJT3WivpXTXmC/MwBi9lfoVPUAreFysekqa1vxZk8cp73Rg6Kxp5dGZdhjCDQEFoVYzmF8OEEDexHu+c6tCvea7qzZ+wCxxYZzQBxZj6T5fUuNFi+EwzyRv95oHf5m9eyVWtwj//H2YEJOB1CmGUaapz/sWpblWTX0JfnKLZTELsWFpDjR6ZIs6eF/NF1Nbbwrj7t2eK2gXQwxT4YSYakOVJ2M1w/oVOguCG/U3BirvWk4bcDsNK2HzuKuAiHe7iQ0ymwqh4V2MOz/uJtQwapN6cZR6niW9qoWni03psa2iVT7X7z1ZONM/qP2VlRA12oRyHyHZXqDqpEy9lOac8x5k6RdGsmOesQ/gyDe2uk/R5DXE4UyP8xychTfr+Jok9b2UEVF0eogAS8yuZVAr8W2H0zxy8mnep7VsBbs7XwtIlD0QadugruyBqnKPPDkUPywts5uxAND6i/Kbhv6gUAXKAxcwbPB9rFYCFqNWdlKBecjudKuJBq8Jj8tYMvEdf6cXMvf4SYU3VxDuajYr8pB165aGty1tQA5itg8hJHeaPtz0TYpt3H2OXPv3eYearI8vm54tBp6YjHLuj0Kil5jvNwO1JLyioeU+1VgJ3AAAAAAAAAAAARVhJRroAAABFeGlmAABJSSoACAAAAAYAEgEDAAEAAAABAAAAGgEFAAEAAABWAAAAGwEFAAEAAABeAAAAKAEDAAEAAAACAAAAEwIDAAEAAAABAAAAaYcEAAEAAABmAAAAAAAAAEgAAAABAAAASAAAAAEAAAAGAACQBwAEAAAAMDIxMAGRBwAEAAAAAQIDAACgBwAEAAAAMDEwMAGgAwABAAAA//8AAAKgBAABAAAAAAEAAAOgBAABAAAAAAEAAAAAAAA=;container=0;" parent="sW3DkYA1sAx3PCCbiGF8-1" vertex="1">
          <mxGeometry x="155.92999999999995" y="127" width="44.07" height="44.07" as="geometry" />
        </mxCell>
        <mxCell id="sW3DkYA1sAx3PCCbiGF8-7" value="" style="endArrow=classic;startArrow=classic;html=1;rounded=0;entryX=0.5;entryY=1;entryDx=0;entryDy=0;" parent="sW3DkYA1sAx3PCCbiGF8-1" source="sW3DkYA1sAx3PCCbiGF8-5" target="sW3DkYA1sAx3PCCbiGF8-3" edge="1">
          <mxGeometry width="50" height="50" relative="1" as="geometry">
            <mxPoint x="190" y="107" as="sourcePoint" />
            <mxPoint x="240" y="57" as="targetPoint" />
          </mxGeometry>
        </mxCell>
        <mxCell id="sW3DkYA1sAx3PCCbiGF8-8" value="&lt;span style=&quot;font-size: 18px;&quot;&gt;Orders&lt;/span&gt;" style="text;html=1;align=center;verticalAlign=middle;resizable=0;points=[];autosize=1;strokeColor=none;fillColor=none;" parent="sW3DkYA1sAx3PCCbiGF8-1" vertex="1">
          <mxGeometry x="60" width="80" height="40" as="geometry" />
        </mxCell>
        <mxCell id="xiGFVQOB-eLaK09ldk7y-2" value="" style="endArrow=classic;startArrow=classic;html=1;rounded=0;entryX=1;entryY=0.5;entryDx=0;entryDy=0;exitX=0;exitY=0.5;exitDx=0;exitDy=0;" parent="1" source="J6oPv5elQKLaFBjouUGu-38" target="B96o6gm8LpOH2C7WPo1T-21" edge="1">
          <mxGeometry width="50" height="50" relative="1" as="geometry">
            <mxPoint x="540" y="642" as="sourcePoint" />
            <mxPoint x="900" y="590" as="targetPoint" />
          </mxGeometry>
        </mxCell>
      </root>
    </mxGraphModel>
  </diagram>
</mxfile>
